<?xml version="1.0" encoding="utf-8"?><svg xmlns:xlink="http://www.w3.org/1999/xlink" id="escena_dientes2" image-rendering="auto" baseProfile="basic" version="1.1" x="0px" y="0px" width="547" height="308" xmlns="http://www.w3.org/2000/svg"><g id="Scene_1" overflow="visible"><path fill="#80CEEF" d="M546.951,14.879Q546.951,-0.012 528.075,-0.012L18.855,-0.012Q-0.021,-0.012 -0.021,14.879L-0.021,292.766Q-0.021,307.656 18.855,307.656L528.075,307.656Q546.951,307.656 546.951,292.766L546.951,14.879"/><g style="display:none;"><path fill="none" stroke="#12678B" stroke-width="10" stroke-linecap="round" stroke-linejoin="round" d="M339.45,164.65L324.25,177.55M339.45,164.65L324.25,151.8"/><animate attributeName="display" repeatCount="indefinite" dur="2.458s" keyTimes="0;0.898;0.949;1" values="none;inline;none;none"/></g><g style="display:none;"><path fill="none" stroke="#12678B" stroke-width="10" stroke-linecap="round" stroke-linejoin="round" d="M339.45,164.65L324.25,177.55M339.45,164.65L324.25,151.8"/><path fill="none" stroke="#12678B" stroke-width="10" stroke-linecap="round" stroke-linejoin="round" d="M295.5,165.1L306.55,165.1"/><animate attributeName="display" repeatCount="indefinite" dur="2.458s" keyTimes="0;0.847;0.898;1" values="none;inline;none;none"/></g><g style="display:none;"><path fill="none" stroke="#12678B" stroke-width="10" stroke-linecap="round" stroke-linejoin="round" d="M339.45,164.65L324.25,177.55M339.45,164.65L324.25,151.8"/><path fill="none" stroke="#12678B" stroke-width="10" stroke-linecap="round" stroke-linejoin="round" d="M265.1,165.1L276.15,165.1"/><path fill="none" stroke="#12678B" stroke-width="10" stroke-linecap="round" stroke-linejoin="round" d="M295.5,165.1L306.55,165.1"/><animate attributeName="display" repeatCount="indefinite" dur="2.458s" keyTimes="0;0.797;0.847;1" values="none;inline;none;none"/></g><g style="display:none;"><path fill="none" stroke="#12678B" stroke-width="10" stroke-linecap="round" stroke-linejoin="round" d="M339.45,164.65L324.25,177.55M339.45,164.65L324.25,151.8"/><path fill="none" stroke="#12678B" stroke-width="10" stroke-linecap="round" stroke-linejoin="round" d="M265.1,165.1L276.15,165.1"/><path fill="none" stroke="#12678B" stroke-width="10" stroke-linecap="round" stroke-linejoin="round" d="M295.5,165.1L306.55,165.1"/><path fill="none" stroke="#12678B" stroke-width="10" stroke-linecap="round" stroke-linejoin="round" d="M234.7,165.1L245.75,165.1"/><animate attributeName="display" repeatCount="indefinite" dur="2.458s" keyTimes="0;0.746;0.797;1" values="none;inline;none;none"/></g><g style="display:none;"><path fill="none" stroke="#12678B" stroke-width="10" stroke-linecap="round" stroke-linejoin="round" d="M339.45,164.65L324.25,177.55M339.45,164.65L324.25,151.8"/><path fill="none" stroke="#12678B" stroke-width="10" stroke-linecap="round" stroke-linejoin="round" d="M204.3,165.1L215.35,165.1"/><path fill="none" stroke="#12678B" stroke-width="10" stroke-linecap="round" stroke-linejoin="round" d="M265.1,165.1L276.15,165.1"/><path fill="none" stroke="#12678B" stroke-width="10" stroke-linecap="round" stroke-linejoin="round" d="M295.5,165.1L306.55,165.1"/><path fill="none" stroke="#12678B" stroke-width="10" stroke-linecap="round" stroke-linejoin="round" d="M234.7,165.1L245.75,165.1"/><animate attributeName="display" repeatCount="indefinite" dur="2.458s" keyTimes="0;0.695;0.746;1" values="none;inline;none;none"/></g><g style="display:none;"><path fill="none" stroke="#12678B" stroke-width="10" stroke-linecap="round" stroke-linejoin="round" d="M339.45,164.65L324.25,177.55M339.45,164.65L324.25,151.8"/><path fill="none" stroke="#12678B" stroke-width="10" stroke-linecap="round" stroke-linejoin="round" d="M173.9,165.1L184.95,165.1"/><path fill="none" stroke="#12678B" stroke-width="10" stroke-linecap="round" stroke-linejoin="round" d="M204.3,165.1L215.35,165.1"/><path fill="none" stroke="#12678B" stroke-width="10" stroke-linecap="round" stroke-linejoin="round" d="M265.1,165.1L276.15,165.1"/><path fill="none" stroke="#12678B" stroke-width="10" stroke-linecap="round" stroke-linejoin="round" d="M295.5,165.1L306.55,165.1"/><path fill="none" stroke="#12678B" stroke-width="10" stroke-linecap="round" stroke-linejoin="round" d="M234.7,165.1L245.75,165.1"/><animate attributeName="display" repeatCount="indefinite" dur="2.458s" keyTimes="0;0.305;0.695;1" values="none;inline;none;none"/></g><g style="display:none;"><path fill="none" stroke="#12678B" stroke-width="10" stroke-linecap="round" stroke-linejoin="round" d="M173.9,165.1L184.95,165.1"/><path fill="none" stroke="#12678B" stroke-width="10" stroke-linecap="round" stroke-linejoin="round" d="M204.3,165.1L215.35,165.1"/><path fill="none" stroke="#12678B" stroke-width="10" stroke-linecap="round" stroke-linejoin="round" d="M265.1,165.1L276.15,165.1"/><path fill="none" stroke="#12678B" stroke-width="10" stroke-linecap="round" stroke-linejoin="round" d="M295.5,165.1L306.55,165.1"/><path fill="none" stroke="#12678B" stroke-width="10" stroke-linecap="round" stroke-linejoin="round" d="M234.7,165.1L245.75,165.1"/><animate attributeName="display" repeatCount="indefinite" dur="2.458s" keyTimes="0;0.254;0.305;1" values="none;inline;none;none"/></g><g style="display:none;"><path fill="none" stroke="#12678B" stroke-width="10" stroke-linecap="round" stroke-linejoin="round" d="M173.9,165.1L184.95,165.1"/><path fill="none" stroke="#12678B" stroke-width="10" stroke-linecap="round" stroke-linejoin="round" d="M204.3,165.1L215.35,165.1"/><path fill="none" stroke="#12678B" stroke-width="10" stroke-linecap="round" stroke-linejoin="round" d="M265.1,165.1L276.15,165.1"/><path fill="none" stroke="#12678B" stroke-width="10" stroke-linecap="round" stroke-linejoin="round" d="M234.7,165.1L245.75,165.1"/><animate attributeName="display" repeatCount="indefinite" dur="2.458s" keyTimes="0;0.203;0.254;1" values="none;inline;none;none"/></g><g style="display:none;"><path fill="none" stroke="#12678B" stroke-width="10" stroke-linecap="round" stroke-linejoin="round" d="M173.9,165.1L184.95,165.1"/><path fill="none" stroke="#12678B" stroke-width="10" stroke-linecap="round" stroke-linejoin="round" d="M204.3,165.1L215.35,165.1"/><path fill="none" stroke="#12678B" stroke-width="10" stroke-linecap="round" stroke-linejoin="round" d="M234.7,165.1L245.75,165.1"/><animate attributeName="display" repeatCount="indefinite" dur="2.458s" keyTimes="0;0.153;0.203;1" values="none;inline;none;none"/></g><g style="display:none;"><path fill="none" stroke="#12678B" stroke-width="10" stroke-linecap="round" stroke-linejoin="round" d="M173.9,165.1L184.95,165.1"/><path fill="none" stroke="#12678B" stroke-width="10" stroke-linecap="round" stroke-linejoin="round" d="M204.3,165.1L215.35,165.1"/><animate attributeName="display" repeatCount="indefinite" dur="2.458s" keyTimes="0;0.102;0.153;1" values="none;inline;none;none"/></g><g style="display:none;"><path fill="none" stroke="#12678B" stroke-width="10" stroke-linecap="round" stroke-linejoin="round" d="M173.9,165.1L184.95,165.1"/><animate attributeName="display" repeatCount="indefinite" dur="2.458s" keyTimes="0;0.051;0.102;1" values="none;inline;none;none"/></g><path fill="#FFF" d="M465.025,99.875L410.425,99.875Q405.623,99.883 401.2,101.1 396.777,102.341 392.9,104.625 389.02,106.899 385.85,110.05 382.699,113.219 380.425,117.1 378.141,120.977 376.9,125.4 375.683,129.822 375.675,134.625L375.675,150.25Q375.665,151.141 375.7,152.1 375.752,153.06 375.85,154.075 375.941,155.075 376.075,156.125L377.275,162.8 380.675,174.5 381.55,176.775Q382.125,178.222 382.725,179.575 383.329,180.919 383.95,182.15 384.564,183.381 385.2,184.525 385.844,185.676 386.5,186.725 387.154,187.777 387.825,188.75 388.495,189.71 389.175,190.575L389.175,213.4Q389.175,214.786 389.35,216.125 389.539,217.47 389.9,218.75 390.247,220.023 390.75,221.225 391.264,222.431 391.925,223.55 393.246,225.795 395.075,227.625 396.906,229.454 399.15,230.775 400.256,231.424 401.45,231.925 402.665,232.44 403.95,232.8 405.23,233.149 406.575,233.325 407.915,233.513 409.3,233.525 410.686,233.513 412.025,233.325 413.371,233.149 414.65,232.8 415.923,232.44 417.125,231.925 418.331,231.424 419.45,230.775 421.693,229.454 423.525,227.625 425.355,225.795 426.675,223.55 427.336,222.431 427.85,221.225 428.353,220.023 428.7,218.75 429.063,217.47 429.25,216.125 429.426,214.786 429.425,213.4L429.45,201.95 429.5,201.9Q429.502,201.34 429.575,200.8 429.652,200.249 429.8,199.725 429.943,199.198 430.15,198.7 430.357,198.207 430.625,197.75 430.898,197.293 431.225,196.875 431.538,196.464 431.9,196.1 432.277,195.725 432.7,195.4 433.118,195.073 433.575,194.8 434.032,194.532 434.525,194.325 435.022,194.118 435.55,193.975 436.062,193.826 436.6,193.75 437.153,193.676 437.725,193.675 438.297,193.676 438.85,193.75 439.4,193.826 439.925,193.975 440.439,194.118 440.925,194.325 441.419,194.532 441.875,194.8 442.331,195.073 442.75,195.4 443.172,195.725 443.55,196.1 443.925,196.464 444.25,196.875 444.564,197.293 444.825,197.75 445.093,198.207 445.3,198.7 445.507,199.198 445.65,199.725 445.798,200.249 445.875,200.8 445.95,201.337 445.975,201.925L446.025,201.95 446.025,213.4Q446.037,214.786 446.225,216.125 446.401,217.47 446.75,218.75 447.111,220.023 447.625,221.225 448.126,222.431 448.775,223.55 450.096,225.795 451.925,227.625 453.756,229.454 456,230.775 457.118,231.424 458.325,231.925 459.538,232.44 460.825,232.8 462.092,233.149 463.425,233.325 464.776,233.513 466.175,233.525 467.56,233.513 468.9,233.325 470.246,233.149 471.525,232.8 472.798,232.44 474,231.925 475.206,231.424 476.325,230.775 478.57,229.454 480.4,227.625 482.229,225.795 483.55,223.55 484.198,222.431 484.7,221.225 485.215,220.023 485.575,218.75 485.924,217.47 486.1,216.125 486.288,214.786 486.3,213.4L486.3,190.575Q486.98,189.709 487.65,188.75 488.309,187.777 488.95,186.725 489.607,185.677 490.25,184.525 490.899,183.381 491.525,182.15 492.134,180.919 492.725,179.575 493.325,178.222 493.9,176.775L494.775,174.5Q495.191,173.344 495.575,172.175L498.675,160.525 499.375,156.125Q499.509,155.074 499.6,154.075 499.698,153.06 499.75,152.1 499.799,151.141 499.8,150.25L499.8,134.625Q499.8,132.831 499.625,131.075 499.448,129.318 499.1,127.625 498.742,125.934 498.225,124.3 497.714,122.672 497.05,121.125 496.396,119.562 495.6,118.075 494.791,116.59 493.85,115.2 491.966,112.419 489.6,110.05 487.231,107.684 484.45,105.8 483.072,104.871 481.6,104.075 480.113,103.265 478.55,102.6 476.99,101.937 475.35,101.425 473.716,100.92 472.025,100.575 470.332,100.227 468.575,100.05 466.82,99.876 465.025,99.875"/><path fill="none" stroke="#F59120" stroke-width="8.69" stroke-linecap="round" stroke-linejoin="round" d="M86.6,123.675L110.9,123.675"/><path fill="none" stroke="#F59120" stroke-width="8.69" stroke-linecap="round" stroke-linejoin="round" d="M86.6,111.325L110.9,111.325"/><path fill="none" stroke="#F59120" stroke-width="8.69" stroke-linecap="round" stroke-linejoin="round" d="M86.6,99L110.9,99"/><path fill="none" stroke="#F59120" stroke-width="8.69" stroke-linecap="round" stroke-linejoin="round" d="M86.6,86.65L110.9,86.65"/><path fill="none" stroke="#1B75BA" stroke-width="8.69" stroke-linecap="round" stroke-linejoin="round" d="M77.1,107.4L77.1,165.875"/><path fill="none" stroke="#1B75BA" stroke-width="29.65" stroke-linecap="round" stroke-linejoin="round" d="M77.1,171.125L77.1,227.675"/><path fill="#1B75BA" stroke="#1B75BA" stroke-width="9.6" stroke-linecap="round" stroke-linejoin="round" d="M91.45,124L91.45,86.3Q91.45,78.55 83.7,78.55L70.5,78.55Q62.75,78.55 62.75,86.3L62.75,124Q62.75,131.75 70.5,131.75L83.7,131.75Q91.45,131.75 91.45,124"/><path fill="none" stroke="#221F1F" stroke-width="5.3" stroke-linecap="round" stroke-linejoin="round" d="M70.1,101.95L70.1,106.55"/><path fill="none" stroke="#221F1F" stroke-width="5.3" stroke-linecap="round" stroke-linejoin="round" d="M84.075,101.95L84.075,106.55"/><path fill="none" stroke="#221F1F" stroke-width="3.05" stroke-linecap="round" stroke-linejoin="round" d="M73.85,119.125Q72.548,117.817 72.5,115.85M73.85,119.125Q75.158,120.426 77.125,120.475 78.076,120.462 78.9,120.1 79.738,119.751 80.375,119.125 81.013,118.488 81.375,117.65 81.725,116.814 81.725,115.85"/><path fill="none" stroke="#F59120" stroke-width="8.69" stroke-linecap="round" stroke-linejoin="round" d="M77.1,214.475L77.1,227.675"/></g></svg>