<?xml version="1.0" encoding="utf-8"?><svg xmlns:xlink="http://www.w3.org/1999/xlink" id="escena_torta" image-rendering="auto" baseProfile="basic" version="1.1" x="0px" y="0px" width="546" height="307" xmlns="http://www.w3.org/2000/svg"><g id="Scene_1" overflow="visible"><path fill="#FEED72" d="M547.001,14.951Q547.001,0.051 528.101,0.051L18.901,0.051Q0.051,0.051 0.051,14.951L0.051,292.801Q0.051,307.701 18.901,307.701L528.101,307.701Q547.001,307.701 547.001,292.801L547.001,14.951"/><g style="display:none;"><path fill="none" stroke="#E0860C" stroke-width="10" stroke-linecap="round" stroke-linejoin="round" d="M329.45,163.75L314.25,176.65M329.45,163.75L314.25,150.9"/><animate attributeName="display" repeatCount="indefinite" dur="2.458s" keyTimes="0;0.898;0.949;1" values="none;inline;none;none"/></g><g style="display:none;"><g><path fill="none" stroke="#E0860C" stroke-width="10" stroke-linecap="round" stroke-linejoin="round" d="M285.5,164.2L296.55,164.2"/><path fill="none" stroke="#E0860C" stroke-width="10" stroke-linecap="round" stroke-linejoin="round" d="M329.45,163.75L314.25,176.65M329.45,163.75L314.25,150.9"/></g><animate attributeName="display" repeatCount="indefinite" dur="2.458s" keyTimes="0;0.847;0.898;1" values="none;inline;none;none"/></g><g style="display:none;"><g><path fill="none" stroke="#E0860C" stroke-width="10" stroke-linecap="round" stroke-linejoin="round" d="M255.1,164.2L266.15,164.2"/><path fill="none" stroke="#E0860C" stroke-width="10" stroke-linecap="round" stroke-linejoin="round" d="M285.5,164.2L296.55,164.2"/><path fill="none" stroke="#E0860C" stroke-width="10" stroke-linecap="round" stroke-linejoin="round" d="M329.45,163.75L314.25,176.65M329.45,163.75L314.25,150.9"/></g><animate attributeName="display" repeatCount="indefinite" dur="2.458s" keyTimes="0;0.797;0.847;1" values="none;inline;none;none"/></g><g style="display:none;"><g><path fill="none" stroke="#E0860C" stroke-width="10" stroke-linecap="round" stroke-linejoin="round" d="M224.7,164.2L235.75,164.2"/><path fill="none" stroke="#E0860C" stroke-width="10" stroke-linecap="round" stroke-linejoin="round" d="M255.1,164.2L266.15,164.2"/><path fill="none" stroke="#E0860C" stroke-width="10" stroke-linecap="round" stroke-linejoin="round" d="M285.5,164.2L296.55,164.2"/><path fill="none" stroke="#E0860C" stroke-width="10" stroke-linecap="round" stroke-linejoin="round" d="M329.45,163.75L314.25,176.65M329.45,163.75L314.25,150.9"/></g><animate attributeName="display" repeatCount="indefinite" dur="2.458s" keyTimes="0;0.746;0.797;1" values="none;inline;none;none"/></g><g style="display:none;"><g><path fill="none" stroke="#E0860C" stroke-width="10" stroke-linecap="round" stroke-linejoin="round" d="M224.7,164.2L235.75,164.2"/><path fill="none" stroke="#E0860C" stroke-width="10" stroke-linecap="round" stroke-linejoin="round" d="M194.3,164.2L205.35,164.2"/><path fill="none" stroke="#E0860C" stroke-width="10" stroke-linecap="round" stroke-linejoin="round" d="M255.1,164.2L266.15,164.2"/><path fill="none" stroke="#E0860C" stroke-width="10" stroke-linecap="round" stroke-linejoin="round" d="M285.5,164.2L296.55,164.2"/><path fill="none" stroke="#E0860C" stroke-width="10" stroke-linecap="round" stroke-linejoin="round" d="M329.45,163.75L314.25,176.65M329.45,163.75L314.25,150.9"/></g><animate attributeName="display" repeatCount="indefinite" dur="2.458s" keyTimes="0;0.695;0.746;1" values="none;inline;none;none"/></g><g style="display:none;"><g><path fill="none" stroke="#E0860C" stroke-width="10" stroke-linecap="round" stroke-linejoin="round" d="M163.9,164.2L174.95,164.2"/><path fill="none" stroke="#E0860C" stroke-width="10" stroke-linecap="round" stroke-linejoin="round" d="M224.7,164.2L235.75,164.2"/><path fill="none" stroke="#E0860C" stroke-width="10" stroke-linecap="round" stroke-linejoin="round" d="M194.3,164.2L205.35,164.2"/><path fill="none" stroke="#E0860C" stroke-width="10" stroke-linecap="round" stroke-linejoin="round" d="M255.1,164.2L266.15,164.2"/><path fill="none" stroke="#E0860C" stroke-width="10" stroke-linecap="round" stroke-linejoin="round" d="M285.5,164.2L296.55,164.2"/><path fill="none" stroke="#E0860C" stroke-width="10" stroke-linecap="round" stroke-linejoin="round" d="M329.45,163.75L314.25,176.65M329.45,163.75L314.25,150.9"/></g><animate attributeName="display" repeatCount="indefinite" dur="2.458s" keyTimes="0;0.305;0.695;1" values="none;inline;none;none"/></g><g style="display:none;"><g><path fill="none" stroke="#E0860C" stroke-width="10" stroke-linecap="round" stroke-linejoin="round" d="M163.9,164.2L174.95,164.2"/><path fill="none" stroke="#E0860C" stroke-width="10" stroke-linecap="round" stroke-linejoin="round" d="M224.7,164.2L235.75,164.2"/><path fill="none" stroke="#E0860C" stroke-width="10" stroke-linecap="round" stroke-linejoin="round" d="M194.3,164.2L205.35,164.2"/><path fill="none" stroke="#E0860C" stroke-width="10" stroke-linecap="round" stroke-linejoin="round" d="M255.1,164.2L266.15,164.2"/><path fill="none" stroke="#E0860C" stroke-width="10" stroke-linecap="round" stroke-linejoin="round" d="M285.5,164.2L296.55,164.2"/></g><animate attributeName="display" repeatCount="indefinite" dur="2.458s" keyTimes="0;0.254;0.305;1" values="none;inline;none;none"/></g><g style="display:none;"><g><path fill="none" stroke="#E0860C" stroke-width="10" stroke-linecap="round" stroke-linejoin="round" d="M163.9,164.2L174.95,164.2"/><path fill="none" stroke="#E0860C" stroke-width="10" stroke-linecap="round" stroke-linejoin="round" d="M224.7,164.2L235.75,164.2"/><path fill="none" stroke="#E0860C" stroke-width="10" stroke-linecap="round" stroke-linejoin="round" d="M194.3,164.2L205.35,164.2"/><path fill="none" stroke="#E0860C" stroke-width="10" stroke-linecap="round" stroke-linejoin="round" d="M255.1,164.2L266.15,164.2"/></g><animate attributeName="display" repeatCount="indefinite" dur="2.458s" keyTimes="0;0.203;0.254;1" values="none;inline;none;none"/></g><g style="display:none;"><g><path fill="none" stroke="#E0860C" stroke-width="10" stroke-linecap="round" stroke-linejoin="round" d="M163.9,164.2L174.95,164.2"/><path fill="none" stroke="#E0860C" stroke-width="10" stroke-linecap="round" stroke-linejoin="round" d="M224.7,164.2L235.75,164.2"/><path fill="none" stroke="#E0860C" stroke-width="10" stroke-linecap="round" stroke-linejoin="round" d="M194.3,164.2L205.35,164.2"/></g><animate attributeName="display" repeatCount="indefinite" dur="2.458s" keyTimes="0;0.153;0.203;1" values="none;inline;none;none"/></g><g style="display:none;"><g><path fill="none" stroke="#E0860C" stroke-width="10" stroke-linecap="round" stroke-linejoin="round" d="M163.9,164.2L174.95,164.2"/><path fill="none" stroke="#E0860C" stroke-width="10" stroke-linecap="round" stroke-linejoin="round" d="M194.3,164.2L205.35,164.2"/></g><animate attributeName="display" repeatCount="indefinite" dur="2.458s" keyTimes="0;0.102;0.153;1" values="none;inline;none;none"/></g><g style="display:none;"><path fill="none" stroke="#E0860C" stroke-width="10" stroke-linecap="round" stroke-linejoin="round" d="M163.9,164.2L174.95,164.2"/><animate attributeName="display" repeatCount="indefinite" dur="2.458s" keyTimes="0;0.051;0.102;1" values="none;inline;none;none"/></g><g><path fill="#A5A7AA" d="M62.6,99.45Q61.7,99.4 60.8,99.55 59.9,99.65 59.05,99.9 58.2,100.15 57.4,100.5 56.6,100.8 55.9,101.25 55.75,101.3 55.65,101.4L55.65,124.95 55.65,101.4Q55.05,101.75 54.45,102.2 53.8,102.7 53.2,103.35 52.55,103.95 52.05,104.6 51.5,105.3 51.1,106.05 50.65,106.75 50.35,107.55 50,108.35 49.75,109.2 49.5,110.05 49.4,110.95 49.25,111.85 49.3,112.75L49.3,124.3Q49.25,125.2 49.4,126.1 49.5,126.95 49.75,127.85 50,128.65 50.35,129.5 50.65,130.25 51.1,131 51.5,131.75 52.05,132.45 52.55,133.1 53.2,133.7 53.8,134.3 54.45,134.85 55.15,135.35 55.9,135.8 56.6,136.2 57.4,136.55 58.2,136.9 59.05,137.15 59.9,137.35 60.8,137.5 61.7,137.6 62.6,137.6L77.05,137.6 91.5,137.6Q92.4,137.6 93.3,137.5 94.2,137.35 95.05,137.15 95.85,136.9 96.7,136.55 97.5,136.2 98.25,135.8 98.95,135.35 99.65,134.85 100.3,134.3 100.95,133.7 101.55,133.1 102.05,132.45 102.55,131.75 103,131 103.45,130.25 103.8,129.5 104.1,128.65 104.35,127.85 104.6,126.95 104.7,126.1 104.8,125.2 104.85,124.3L104.85,112.75Q104.8,109.95 103.8,107.55 102.75,105.15 100.95,103.35 99.95,102.35 98.75,101.6L98.75,124.95 98.75,101.6Q97.8,100.95 96.7,100.5 94.25,99.45 91.5,99.45L77,99.45 62.6,99.45"/><path fill="none" stroke="#A5A7AA" stroke-width="12.3" stroke-linecap="round" stroke-linejoin="round" d="M55.65,101.4L55.65,80.75M98.75,101.6L98.75,80.75M77,99.45L77,80.75"/><path fill="none" stroke="#A5A7AA" stroke-width="9.19" stroke-linecap="round" stroke-linejoin="round" d="M77.05,137.6L77.05,177.15"/><path fill="none" stroke="#A5A7AA" stroke-width="12.3" stroke-linecap="round" stroke-linejoin="round" d="M55.65,101.4L55.65,124.95M98.75,101.6L98.75,124.95"/></g><g><path fill="#EA2127" d="M90.9,169.625Q90.898,168.671 90.775,167.75 90.647,166.828 90.4,165.95 90.153,165.063 89.8,164.225 89.451,163.395 89,162.625 88.546,161.854 88,161.15 87.454,160.449 86.825,159.825 86.201,159.196 85.5,158.65 84.796,158.104 84.025,157.65 83.255,157.199 82.425,156.85 81.599,156.497 80.725,156.25 79.847,156.015 78.925,155.9 77.991,155.776 77.025,155.775 76.071,155.776 75.15,155.9 74.228,156.015 73.35,156.25 72.463,156.497 71.625,156.85 70.795,157.199 70.025,157.65 69.254,158.104 68.55,158.65 67.849,159.196 67.225,159.825 66.596,160.449 66.05,161.15 65.504,161.854 65.05,162.625 64.599,163.395 64.25,164.225 63.897,165.063 63.65,165.95 63.415,166.828 63.3,167.75 63.176,168.671 63.175,169.625L63.175,227.875Q63.189,230.753 64.25,233.25 65.325,235.764 67.225,237.675 69.123,239.576 71.625,240.65 74.135,241.711 77.025,241.725 77.991,241.723 78.925,241.6 79.847,241.473 80.725,241.225 81.599,240.991 82.425,240.65 83.255,240.289 84.025,239.825 84.796,239.383 85.5,238.85 86.201,238.304 86.825,237.675 87.454,237.038 88,236.325 88.546,235.621 89,234.85 89.451,234.08 89.8,233.25 90.153,232.424 90.4,231.55 90.647,230.672 90.775,229.75 90.898,228.828 90.9,227.875L90.9,169.625"/><path fill="#FDD900" d="M81.6,214.2Q81.6,212.3 80.25,210.95 78.9,209.6 77,209.6 75.1,209.6 73.75,210.95 72.4,212.3 72.4,214.2 72.4,216.1 73.75,217.45 75.1,218.8 77,218.8 78.9,218.8 80.25,217.45 81.6,216.1 81.6,214.2"/><path fill="#FDD900" d="M81.6,186.5Q81.6,184.6 80.25,183.25 78.9,181.9 77,181.9 75.1,181.9 73.75,183.25 72.4,184.6 72.4,186.5 72.4,188.4 73.75,189.75 75.1,191.1 77,191.1 78.9,191.1 80.25,189.75 81.6,188.4 81.6,186.5"/></g><g><path fill="none" stroke="#221F1F" stroke-width="4.05" stroke-linecap="round" stroke-linejoin="round" d="M71.025,108.425L71.025,113.275"/><path fill="none" stroke="#221F1F" stroke-width="4.05" stroke-linecap="round" stroke-linejoin="round" d="M83.025,108.425L83.025,113.275"/><path fill="#EA2127" d="M88.5,123.025Q88.841,122.651 89.05,122.275 89.255,121.876 89.2,121.475 89.141,121.086 88.7,120.7 88.335,120.388 87.925,120.2 87.519,120.013 87.1,119.95L86.675,119.925 86.275,119.95Q85.876,120.013 85.525,120.2 85.172,120.375 84.9,120.675 84.571,121.067 84.45,121.55 84.326,122.035 84.4,122.55 84.467,123.063 84.725,123.55 84.996,124.031 85.45,124.425 85.89,124.815 86.2,124.925 86.332,124.96 86.45,124.95 86.623,124.949 86.775,124.875 87.023,124.756 87.275,124.475L87.85,123.8 88.5,123.025"/><path fill="none" stroke="#221F1F" stroke-width="3.2" stroke-linecap="round" stroke-linejoin="round" d="M86.25,126.05Q85.368,126.436 84.35,126.45M86.25,126.05Q87.132,125.671 87.8,125 88.471,124.332 88.85,123.45 89.235,122.567 89.25,121.55"/></g><g><path fill="#F17AA9" d="M505.7,111.95Q503.55,111.05 500.5,111.05L380.35,111.05Q370.1,111.05 370.1,121.3L370.1,129.45 510.75,129.45 510.75,121.3Q510.75,114.1 505.7,111.95"/><path fill="#8C5430" d="M370.1,219.5Q370.1,223.7 371.85,226.2L509.05,226.2Q510.75,223.7 510.75,219.5L510.75,129.45 370.1,129.45 370.1,219.5"/><path fill="#8C5430" d="M371.85,226.2Q374.3,229.75 380.35,229.75L500.5,229.75Q506.55,229.75 509.05,226.2L371.85,226.2"/><path fill="none" stroke="#27B373" stroke-width="12.7" stroke-linecap="round" stroke-linejoin="round" d="M371.85,226.2L360.6,226.2M509.05,226.2L520.5,226.2"/><path fill="none" stroke="#27B373" stroke-width="12.7" stroke-linecap="round" stroke-linejoin="round" d="M371.85,226.2L509.05,226.2"/></g><g><path fill="#FFF" d="M497.1,196.225L497,196.225Q496.285,196.221 495.575,196.275 494.881,196.347 494.2,196.475 493.51,196.591 492.825,196.75 492.131,196.917 491.45,197.125L490.1,197.55 488.775,198.025 487.475,198.55 486.175,199.075 484.425,199.75 483.6,200.075 482.75,200.375Q481.932,200.672 481.15,200.9 480.366,201.11 479.625,201.225L478.875,201.325 478.175,201.35Q477.415,201.335 476.575,201.175 475.747,201.021 474.85,200.725 473.938,200.428 472.975,200.075L471,199.3 468.775,198.425 467.625,198 466.425,197.6 465.2,197.225 463.95,196.875Q463.311,196.721 462.65,196.6L461.325,196.4Q460.649,196.303 459.95,196.25 459.257,196.216 458.55,196.225 457.388,196.228 456.325,196.3 455.256,196.366 454.3,196.5 453.348,196.652 452.475,196.85 451.592,197.041 450.8,197.275 450.02,197.514 449.3,197.775 448.577,198.028 447.925,198.3L446.65,198.85 445.475,199.4 444.1,200.025Q443.433,200.313 442.775,200.55 442.125,200.795 441.45,200.975 440.767,201.154 440.025,201.25 439.283,201.348 438.45,201.35 437.862,201.352 437.25,201.225 436.645,201.09 436,200.85 435.353,200.613 434.65,200.3L433.175,199.625 431.475,198.85 430.55,198.45 429.6,198.075 428.6,197.7 427.55,197.35 426.425,197.025 425.25,196.75 424.025,196.525 422.725,196.35Q422.058,196.282 421.35,196.25 420.641,196.219 419.9,196.225 418.973,196.229 418.075,196.3 417.179,196.367 416.325,196.5 415.487,196.628 414.675,196.8 413.844,196.978 413.05,197.2L411.525,197.675 410.025,198.2 408.6,198.725 407.225,199.275 405.15,200.075 404.175,200.425 403.225,200.75 402.325,201 401.425,201.2Q400.984,201.283 400.55,201.325 400.118,201.358 399.7,201.35 399.042,201.345 398.3,201.2 397.563,201.044 396.75,200.75 395.937,200.453 395.075,200.1L393.3,199.325 391.6,198.6 390.7,198.225 389.8,197.875 388.875,197.525 387.925,197.225 386.95,196.95 385.975,196.7 384.95,196.5 383.925,196.35 382.875,196.25 381.775,196.225Q380.814,196.229 379.9,196.3 378.983,196.367 378.125,196.5 377.263,196.639 376.45,196.825 375.632,197.003 374.875,197.225 374.124,197.46 373.425,197.725 372.731,197.974 372.1,198.25 371.458,198.533 370.875,198.825 370.301,199.119 369.775,199.45L369.775,207.6 369.825,207.625Q370.279,207.381 370.65,207L371,206.7Q371.354,206.397 372.025,205.925L372.775,205.45 373.65,204.925Q374.127,204.668 374.675,204.425 375.23,204.179 375.85,203.95 376.466,203.716 377.15,203.525 377.833,203.328 378.575,203.175 379.318,203.027 380.125,202.95 380.924,202.876 381.775,202.875 382.322,202.873 382.875,202.925 383.426,202.986 383.975,203.1L385.075,203.35 386.2,203.675 387.275,204.075 388.375,204.5 390.55,205.425 392.325,206.175Q393.22,206.56 394.125,206.9L395.025,207.2 395.95,207.475 396.875,207.7 397.8,207.875Q398.271,207.943 398.75,207.975L399.7,208.025Q400.365,208.026 401.025,207.975 401.682,207.914 402.325,207.8 402.965,207.694 403.6,207.55 404.244,207.406 404.875,207.225L406.1,206.825 407.325,206.4 408.55,205.925 409.75,205.45 410.95,204.975 412.175,204.525 413.4,204.075 414.675,203.7Q415.293,203.507 415.925,203.35 416.572,203.206 417.225,203.1 417.879,202.986 418.55,202.925 419.221,202.873 419.9,202.875 420.726,202.883 421.5,202.95 422.269,203.009 422.975,203.125 423.682,203.241 424.35,203.4 425.024,203.555 425.65,203.75L426.875,204.175 428.025,204.625 429.15,205.125 430.25,205.65 431.775,206.35 432.55,206.675 433.325,206.975 434.125,207.275 434.95,207.525 435.775,207.725 436.65,207.9 437.525,208 438.45,208.025Q439.253,208.027 440,207.975 440.745,207.914 441.425,207.8 442.107,207.682 442.75,207.525 443.399,207.381 444,207.2L445.15,206.8 446.275,206.35 447.325,205.9 448.375,205.4 449.425,204.925 450.475,204.475Q451.006,204.238 451.575,204.025L452.75,203.65Q453.343,203.469 454,203.325 454.648,203.194 455.35,203.1 456.068,202.987 456.875,202.925 457.673,202.874 458.55,202.875 459.187,202.873 459.825,202.925 460.467,202.986 461.1,203.1 461.725,203.206 462.35,203.35 462.966,203.507 463.575,203.7L464.825,204.1 466.025,204.525 467.25,205 468.45,205.475 470.35,206.225 471.3,206.575 472.275,206.925 473.25,207.225 474.225,207.475 475.2,207.7 476.175,207.875 477.175,207.975 478.175,208.025Q478.864,208.016 479.55,207.95 480.232,207.891 480.9,207.775 481.563,207.658 482.225,207.5 482.905,207.345 483.575,207.15L484.875,206.725 486.175,206.25 487.475,205.75 488.75,205.225 490.525,204.525 491.375,204.2 492.25,203.875 493.075,203.6 493.9,203.375 494.725,203.15 495.5,203Q496.283,202.877 497.025,202.875L497.1,202.875Q498.56,202.89 499.875,203.05 501.194,203.217 502.35,203.525 503.494,203.824 504.475,204.175 505.463,204.539 506.275,204.95 507.091,205.358 507.725,205.725 508.358,206.085 508.8,206.4L509.375,206.825 509.65,207.05 509.75,207.125Q509.918,207.277 510.1,207.4L510.475,207.625 510.525,207.575 510.5,199.6Q509.939,199.299 509.3,199 508.672,198.697 507.975,198.4 507.275,198.1 506.5,197.825 505.719,197.548 504.875,197.3 504.035,197.051 503.125,196.85 502.217,196.663 501.25,196.525 500.272,196.377 499.225,196.3 498.189,196.227 497.1,196.225"/><path fill="#FFF" d="M497.1,174.925L497,174.925Q496.285,174.921 495.575,174.975 494.881,175.047 494.2,175.175 493.51,175.292 492.825,175.45 492.131,175.618 491.45,175.825L490.1,176.25 488.775,176.725 487.475,177.25 486.175,177.775 484.425,178.45 483.6,178.775 482.75,179.075Q481.932,179.372 481.15,179.6 480.366,179.81 479.625,179.925L478.875,180.025 478.175,180.05Q477.415,180.035 476.575,179.875 475.747,179.721 474.85,179.425 473.938,179.128 472.975,178.775L471,178 468.775,177.125 467.625,176.7 466.425,176.3 465.2,175.925 463.95,175.575Q463.311,175.421 462.65,175.3L461.325,175.1Q460.649,175.003 459.95,174.95 459.257,174.916 458.55,174.925 457.388,174.928 456.325,175 455.256,175.066 454.3,175.2 453.348,175.352 452.475,175.55 451.592,175.741 450.8,175.975 450.02,176.214 449.3,176.475 448.577,176.728 447.925,177L446.65,177.55 445.475,178.1 444.1,178.725Q443.433,179.013 442.775,179.25 442.125,179.495 441.45,179.675 440.767,179.854 440.025,179.95L439.25,180.025 438.45,180.05Q437.862,180.052 437.25,179.925 436.645,179.789 436,179.55 435.353,179.313 434.65,179L433.175,178.325 431.475,177.55 430.55,177.15 429.6,176.775 428.6,176.4 427.55,176.05 426.425,175.725 425.25,175.45 424.025,175.225 422.725,175.05Q422.058,174.982 421.35,174.95 420.641,174.919 419.9,174.925 418.973,174.929 418.075,175 417.179,175.067 416.325,175.2 415.487,175.328 414.675,175.5 413.844,175.678 413.05,175.9L411.525,176.375 410.025,176.9 408.6,177.425 407.225,177.975 405.15,178.775 404.175,179.125 403.225,179.45 402.325,179.7 401.425,179.9 400.55,180.025Q400.118,180.057 399.7,180.05 399.042,180.045 398.3,179.9 397.563,179.744 396.75,179.45 395.937,179.153 395.075,178.8L393.3,178.025 391.6,177.3 390.7,176.925 389.8,176.575 388.875,176.225 387.925,175.925 386.95,175.65 385.975,175.4 384.95,175.2 383.925,175.05 382.875,174.95 381.775,174.925Q380.814,174.929 379.9,175 378.983,175.067 378.125,175.2 377.263,175.339 376.45,175.525 375.632,175.703 374.875,175.925 374.124,176.16 373.425,176.425 372.731,176.674 372.1,176.95 371.458,177.233 370.875,177.525 370.301,177.819 369.775,178.15L369.775,186.3 369.825,186.325Q370.278,186.08 370.65,185.7L371,185.4Q371.354,185.097 372.025,184.625L372.775,184.15 373.65,183.625Q374.127,183.369 374.675,183.125 375.23,182.88 375.85,182.65 376.466,182.417 377.15,182.225 377.833,182.028 378.575,181.875 379.318,181.727 380.125,181.65 380.924,181.576 381.775,181.575 382.323,181.573 382.875,181.625 383.427,181.686 383.975,181.8 384.523,181.906 385.075,182.05 385.639,182.194 386.2,182.375L387.275,182.775 388.375,183.2 390.55,184.125 392.325,184.875 393.225,185.25 394.125,185.6 395.025,185.9 395.95,186.175 396.875,186.4 397.8,186.575Q398.271,186.643 398.75,186.675L399.7,186.725Q400.365,186.726 401.025,186.675 401.682,186.614 402.325,186.5 402.965,186.394 403.6,186.25 404.244,186.106 404.875,185.925L406.1,185.525 407.325,185.1 408.55,184.625 409.75,184.15 410.95,183.675 412.175,183.225 413.4,182.775 414.675,182.4Q415.293,182.207 415.925,182.05 416.572,181.906 417.225,181.8 417.879,181.685 418.55,181.625 419.221,181.573 419.9,181.575 420.727,181.583 421.5,181.65 422.27,181.709 422.975,181.825 423.682,181.941 424.35,182.1 425.024,182.255 425.65,182.45L426.875,182.875 428.025,183.325 429.15,183.825 430.25,184.35 431.775,185.05Q432.538,185.383 433.325,185.675L434.125,185.975 434.95,186.225Q435.778,186.462 436.65,186.6L437.525,186.7 438.45,186.725Q439.253,186.728 440,186.675 440.745,186.614 441.425,186.5 442.107,186.382 442.75,186.225 443.399,186.081 444,185.9L445.15,185.5 446.275,185.05 447.325,184.6 448.375,184.1 449.425,183.625 450.475,183.175 451.575,182.725 452.75,182.35Q453.343,182.169 454,182.025 454.648,181.894 455.35,181.8 456.068,181.687 456.875,181.625 457.673,181.574 458.55,181.575 459.187,181.573 459.825,181.625 460.467,181.686 461.1,181.8 461.725,181.905 462.35,182.05 462.966,182.207 463.575,182.4L464.825,182.8 466.025,183.225 468.45,184.175 470.35,184.925 471.3,185.275 472.275,185.6 473.25,185.925 474.225,186.175 475.2,186.4 476.175,186.575 477.175,186.675 478.175,186.725Q478.864,186.716 479.55,186.65 480.232,186.591 480.9,186.475 481.563,186.358 482.225,186.2 482.905,186.045 483.575,185.85L484.875,185.425 486.175,184.95 487.475,184.45 488.75,183.925 490.525,183.225 491.375,182.9 492.25,182.575Q493.09,182.289 493.9,182.075L494.725,181.85 495.5,181.7Q496.283,181.575 497.025,181.575L497.1,181.575Q498.068,181.576 498.975,181.65 499.887,181.727 500.725,181.875 501.571,182.028 502.35,182.225 503.113,182.416 503.8,182.65 504.498,182.879 505.125,183.125 505.74,183.38 506.275,183.65L507.3,184.175 508.125,184.65Q508.885,185.129 509.3,185.45L509.75,185.825Q509.918,185.977 510.1,186.1L510.475,186.325 510.525,186.275 510.5,178.3Q509.939,177.999 509.3,177.7 508.672,177.396 507.975,177.1 507.275,176.8 506.5,176.525 505.719,176.248 504.875,176 504.035,175.751 503.125,175.55 502.217,175.362 501.25,175.225 500.272,175.077 499.225,175 498.189,174.927 497.1,174.925"/></g><g><path fill="#E7242B" d="M422.55,109.35Q422.55,106.3 420.35,104.1 418.2,101.95 415.15,101.95 412.1,101.95 409.9,104.1 407.75,106.3 407.75,109.35 407.75,112.4 409.9,114.55 412.1,116.75 415.15,116.75 418.2,116.75 420.35,114.55 422.55,112.4 422.55,109.35"/><path fill="#E7242B" d="M448.05,109.35Q448.05,106.25 445.85,104.05 443.7,101.9 440.6,101.9 437.5,101.9 435.3,104.05 433.15,106.25 433.15,109.35 433.15,112.45 435.3,114.6 437.5,116.8 440.6,116.8 443.7,116.8 445.85,114.6 448.05,112.45 448.05,109.35"/><path fill="#E7242B" d="M473.3,109.35Q473.3,106.25 471.1,104.05 468.95,101.9 465.85,101.9 462.75,101.9 460.55,104.05 458.4,106.25 458.4,109.35 458.4,112.45 460.55,114.6 462.75,116.8 465.85,116.8 468.95,116.8 471.1,114.6 473.3,112.45 473.3,109.35"/></g><g><path fill="#F17AA9" d="M504.5,111.85Q502.65,111.05 500.5,111.05L380.4,111.05Q379.7,111 379,111.1 378.3,111.2 377.65,111.4 377,111.55 376.4,111.85 375.75,112.1 375.2,112.45 374.6,112.75 374.1,113.2 373.55,113.6 373.1,114.05 372.65,114.5 372.25,115.05 371.8,115.55 371.5,116.15 371.15,116.7 370.9,117.35 370.6,117.95 370.45,118.6 370.25,119.25 370.15,119.95 370.05,120.65 370.1,121.35L370.1,149.95Q370.1,150.9 370.2,151.9 370.35,152.8 370.6,153.75 370.8,154.6 371.2,155.5 371.55,156.3 372,157.1 372.45,157.9 373,158.65 373.55,159.35 374.2,160 374.85,160.6 375.55,161.2 376.25,161.75 377.05,162.2 377.85,162.65 378.7,163.05 379.55,163.4 380.45,163.65 381.3,163.9 382.25,164.05 383.2,164.15 384.2,164.15 385.15,164.15 386.1,164.05 387,163.9 387.95,163.65 388.8,163.4 389.65,163.05 390.5,162.65 391.3,162.2 392.05,161.75 392.8,161.2 393.5,160.6 394.15,160 394.8,159.35 395.35,158.65 395.9,157.9 396.35,157.1 396.8,156.3 397.2,155.5 397.55,154.6 397.8,153.75 398.15,152.35 398.25,150.95 398.3,151.65 398.4,152.35 398.5,153.05 398.7,153.75 398.95,154.6 399.3,155.5 399.65,156.3 400.15,157.1 400.6,157.9 401.15,158.65 401.7,159.35 402.35,160 402.95,160.6 403.7,161.2 404.4,161.75 405.2,162.2 405.95,162.65 406.85,163.05 407.65,163.4 408.55,163.65 409.45,163.9 410.4,164.05 411.35,164.15 412.3,164.15 413.3,164.15 414.25,164.05 415.15,163.9 416.05,163.65 416.95,163.4 417.8,163.05 418.65,162.65 419.45,162.2 420.2,161.75 420.95,161.2 421.65,160.6 422.3,160 422.9,159.35 423.5,158.65 424,157.9 424.5,157.1 424.95,156.3 425.3,155.5 425.65,154.6 425.9,153.75 426.1,153.05 426.2,152.35 426.3,151.65 426.4,150.95 426.5,152.35 426.85,153.75 427.1,154.6 427.45,155.5 427.8,156.3 428.25,157.1 428.7,157.9 429.3,158.65 429.85,159.35 430.5,160 431.1,160.6 431.85,161.2 432.55,161.75 433.35,162.2 434.1,162.65 434.95,163.05 435.8,163.4 436.7,163.65 437.6,163.9 438.55,164.05 439.45,164.15 440.45,164.15 441.4,164.15 442.35,164.05 443.3,163.9 444.2,163.65 445.1,163.4 445.95,163.05 446.75,162.65 447.55,162.2 448.35,161.75 449.05,161.2 449.8,160.6 450.45,160 451.05,159.35 451.6,158.65 452.15,157.9 452.65,157.1 453.1,156.3 453.45,155.5 453.8,154.6 454.05,153.75 454.25,153.05 454.35,152.35 454.45,151.65 454.5,150.95 454.6,152.35 455,153.75 455.2,154.6 455.6,155.5 455.95,156.3 456.4,157.1 456.85,157.9 457.4,158.65 457.95,159.35 458.6,160 459.25,160.6 459.95,161.2 460.65,161.75 461.45,162.2 462.25,162.65 463.1,163.05 463.95,163.4 464.85,163.65 465.75,163.9 466.7,164.05 467.6,164.15 468.6,164.15 469.55,164.15 470.5,164.05 471.45,163.9 472.35,163.65 473.2,163.4 474.1,163.05 474.9,162.65 475.7,162.2 476.5,161.75 477.2,161.2 477.9,160.6 478.55,160 479.2,159.35 479.75,158.65 480.3,157.9 480.75,157.1 481.2,156.3 481.6,155.5 481.95,154.6 482.2,153.75 482.35,153.05 482.5,152.35 482.6,151.65 482.65,150.95 482.75,152.35 483.1,153.75 483.35,154.6 483.75,155.5 484.05,156.3 484.55,157.1 485,157.9 485.55,158.65 486.1,159.35 486.75,160 487.4,160.6 488.1,161.2 488.8,161.75 489.6,162.2 490.4,162.65 491.25,163.05 492.05,163.4 492.95,163.65 493.85,163.9 494.8,164.05 495.75,164.15 496.7,164.15 497.7,164.15 498.65,164.05 499.55,163.9 500.45,163.65 501.35,163.4 502.2,163.05 503.05,162.65 503.85,162.2 504.6,161.75 505.35,161.2 506.05,160.6 506.7,160 507.3,159.35 507.9,158.65 508.45,157.9 508.9,157.1 509.35,156.3 509.7,155.5 510.05,154.6 510.3,153.75 510.55,152.8 510.7,151.9 510.8,150.9 510.85,149.95L510.85,121.35Q510.8,119.2 510,117.35 509.2,115.45 507.8,114.05 506.35,112.65 504.5,111.85"/><path fill="#FFF" d="M392.15,135.3Q392.15,133.45 390.8,132.1 389.5,130.8 387.65,130.8 385.8,130.8 384.45,132.1 383.15,133.45 383.15,135.3 383.15,137.15 384.45,138.45 385.8,139.8 387.65,139.8 389.5,139.8 390.8,138.45 392.15,137.15 392.15,135.3"/><path fill="#FFF" d="M418.45,135.3Q418.45,133.45 417.1,132.1 415.8,130.8 413.95,130.8 412.1,130.8 410.75,132.1 409.45,133.45 409.45,135.3 409.45,137.15 410.75,138.45 412.1,139.8 413.95,139.8 415.8,139.8 417.1,138.45 418.45,137.15 418.45,135.3"/><path fill="#FFF" d="M444.85,135.3Q444.85,133.45 443.5,132.1 442.2,130.8 440.35,130.8 438.5,130.8 437.15,132.1 435.85,133.45 435.85,135.3 435.85,137.15 437.15,138.45 438.5,139.8 440.35,139.8 442.2,139.8 443.5,138.45 444.85,137.15 444.85,135.3"/><path fill="#FFF" d="M471.65,135.3Q471.65,133.45 470.3,132.1 469,130.8 467.15,130.8 465.3,130.8 463.95,132.1 462.65,133.45 462.65,135.3 462.65,137.15 463.95,138.45 465.3,139.8 467.15,139.8 469,139.8 470.3,138.45 471.65,137.15 471.65,135.3"/><path fill="#FFF" d="M498.05,135.3Q498.05,133.45 496.7,132.1 495.4,130.8 493.55,130.8 491.7,130.8 490.35,132.1 489.05,133.45 489.05,135.3 489.05,137.15 490.35,138.45 491.7,139.8 493.55,139.8 495.4,139.8 496.7,138.45 498.05,137.15 498.05,135.3"/></g></g></svg>