<?xml version="1.0" encoding="utf-8"?><svg xmlns:xlink="http://www.w3.org/1999/xlink" id="escena_regalo" image-rendering="auto" baseProfile="basic" version="1.1" x="0px" y="0px" width="546" height="307" xmlns="http://www.w3.org/2000/svg"><defs><symbol id="parte_candado_2" overflow="visible"><path fill="none" stroke="#6D6F70" stroke-width="14.75" stroke-linecap="round" stroke-linejoin="round" d="M75.7,28.3Q77.06,33.199 77.075,38.525L77.075,89.7M75.7,28.3Q74.331,23.382 71.8,19.075 69.277,14.778 65.775,11.275 62.272,7.773 57.975,5.25 53.68,2.731 48.775,1.375 43.864,0.014 38.525,0 33.199,0.014 28.3,1.375 23.382,2.731 19.075,5.25 14.778,7.773 11.275,11.275 10.388,12.162 9.575,13.1 7.182,15.812 5.325,18.95"/>
</symbol></defs><g id="Scene_1" overflow="visible"><path fill="#FFF" d="M546.951,14.879Q546.951,-0.012 528.075,-0.012L18.855,-0.012Q-0.021,-0.012 -0.021,14.879L-0.021,292.766Q-0.021,307.656 18.855,307.656L528.075,307.656Q546.951,307.656 546.951,292.766L546.951,14.879"/><g style="display:none;"><path fill="none" stroke="#6D6F70" stroke-width="14.75" stroke-linecap="round" stroke-linejoin="round" d="M312.458,109.55Q313.881,114.454 313.877,119.78L313.686,170.954M312.458,109.55Q311.026,104.626 308.36,100.31 305.703,96.002 302.005,92.486 298.307,88.97 293.763,86.43 289.221,83.894 284.028,82.518 278.829,81.138 273.172,81.103 267.528,81.096 262.332,82.437 257.116,83.774 252.543,86.276 247.98,88.782 244.255,92.27 240.532,95.758 237.842,100.046 235.157,104.342 233.701,109.255 232.241,114.148 232.206,119.474L232.001,174.374"/><animate attributeName="display" repeatCount="indefinite" dur="2.25s" keyTimes="0;0.37;0.389;1" values="none;inline;none;none"/></g><g style="display:none;"><path fill="none" stroke="#6D6F70" stroke-width="14.75" stroke-linecap="round" stroke-linejoin="round" d="M310.243,105.933Q311.585,110.836 311.58,116.163L311.388,167.337M310.243,105.933Q308.893,101.009 306.378,96.693 303.87,92.386 300.382,88.871 296.892,85.356 292.604,82.817 288.319,80.282 283.419,78.907 278.513,77.528 273.174,77.494 267.848,77.489 262.944,78.831 258.021,80.169 253.705,82.671 249.398,85.178 245.883,88.667 242.368,92.156 239.829,96.444 237.294,100.742 235.919,105.655 234.54,110.548 234.506,115.874L234.301,170.774"/><animate attributeName="display" repeatCount="indefinite" dur="2.25s" keyTimes="0;0.352;0.37;0.389;1" values="none;inline;none;inline;inline"/></g><g style="display:none;"><path fill="none" stroke="#6D6F70" stroke-width="14.75" stroke-linecap="round" stroke-linejoin="round" d="M310.172,105.74Q311.536,110.637 311.556,115.964L311.596,167.139M310.172,105.74Q308.8,100.823 306.265,96.518 303.738,92.223 300.234,88.723 296.728,85.224 292.429,82.704 288.133,80.189 283.226,78.836 278.314,77.48 272.975,77.469 267.649,77.488 262.751,78.853 257.834,80.213 253.529,82.735 249.234,85.261 245.734,88.766 244.848,89.654 244.035,90.592 241.644,93.306 239.79,96.446"/><animate attributeName="display" repeatCount="indefinite" dur="2.25s" keyTimes="0;0.333;0.352;1" values="none;inline;none;none"/></g><g style="display:none;"><use xlink:href="#parte_candado_2" transform="matrix(0.895 0.445 -0.445 0.895 259.3 65.25)"/><animate attributeName="display" repeatCount="indefinite" dur="2.25s" keyTimes="0;0.296;0.333;1" values="none;inline;none;none"/></g><g style="display:none;"><path fill="none" stroke="#6D6F70" stroke-width="14.75" stroke-linecap="round" stroke-linejoin="round" d="M314.433,122.715Q313.658,127.733 311.483,132.588L290.457,179.173M314.433,122.715Q315.207,117.675 314.673,112.715 314.142,107.766 312.393,103.139 310.643,98.512 307.768,94.45 304.894,90.392 300.985,87.142 297.074,83.886 292.22,81.679 287.365,79.504 282.347,78.729 277.312,77.943 272.357,78.467 267.408,78.998 262.781,80.746 261.609,81.189 260.484,81.709 257.191,83.195 254.211,85.288"/><animate attributeName="display" repeatCount="indefinite" dur="2.25s" keyTimes="0;0.278;0.296;1" values="none;inline;none;none"/></g><g style="display:none;"><path fill="none" stroke="#6D6F70" stroke-width="14.75" stroke-linecap="round" stroke-linejoin="round" d="M314.358,121.099Q313.779,126.144 311.795,131.08L292.595,178.453M314.358,121.099Q314.936,116.032 314.209,111.096 313.486,106.171 311.558,101.615 309.629,97.059 306.598,93.111 303.568,89.168 299.535,86.072 295.499,82.97 290.563,80.954 285.627,78.969 280.582,78.391 275.52,77.801 270.588,78.517 265.663,79.24 261.107,81.168 259.953,81.656 258.849,82.219 255.616,83.832 252.72,86.04"/><animate attributeName="display" repeatCount="indefinite" dur="2.25s" keyTimes="0;0.259;0.278;1" values="none;inline;none;none"/></g><g style="display:none;"><path fill="none" stroke="#6D6F70" stroke-width="14.75" stroke-linecap="round" stroke-linejoin="round" d="M314.143,119.499Q313.761,124.563 311.969,129.573L294.625,177.661M314.143,119.499Q314.523,114.413 313.604,109.508 312.69,104.615 310.586,100.137 308.482,95.659 305.299,91.832 302.117,88.01 297.967,85.073 293.813,82.13 288.801,80.307 283.791,78.515 278.727,78.133 273.646,77.741 268.745,78.648 263.852,79.562 259.374,81.666 258.24,82.199 257.158,82.805 253.99,84.542 251.181,86.862"/><animate attributeName="display" repeatCount="indefinite" dur="2.25s" keyTimes="0;0.241;0.259;1" values="none;inline;none;none"/></g><g style="display:none;"><path fill="none" stroke="#6D6F70" stroke-width="14.75" stroke-linecap="round" stroke-linejoin="round" d="M314.02,117.977Q313.818,123.052 312.206,128.124L296.585,176.803M314.02,117.977Q314.219,112.881 313.126,108.012 312.037,103.154 309.776,98.753 307.513,94.353 304.195,90.641 300.879,86.934 296.627,84.147 292.37,81.353 287.296,79.71 282.225,78.098 277.15,77.897 272.058,77.685 267.192,78.767 262.334,79.855 257.933,82.117 256.819,82.69 255.759,83.334 252.655,85.183 249.931,87.601"/><animate attributeName="display" repeatCount="indefinite" dur="2.25s" keyTimes="0;0.222;0.241;1" values="none;inline;none;none"/></g><g style="display:none;"><path fill="none" stroke="#6D6F70" stroke-width="14.75" stroke-linecap="round" stroke-linejoin="round" d="M313.768,116.527Q313.752,121.611 312.325,126.743L298.478,176.009M313.768,116.527Q313.781,111.422 312.51,106.591 311.244,101.771 308.82,97.452 306.396,93.133 302.942,89.541 299.489,85.954 295.133,83.321 290.773,80.683 285.638,79.224 280.506,77.797 275.422,77.781 270.32,77.756 265.493,79.016 260.673,80.282 256.354,82.705 255.26,83.319 254.223,84.002 251.185,85.965 248.549,88.484"/><animate attributeName="display" repeatCount="indefinite" dur="2.25s" keyTimes="0;0.204;0.222;1" values="none;inline;none;none"/></g><g><use xlink:href="#parte_candado_2" transform="matrix(0.963 0.271 -0.271 0.963 248.55 68.8)"/><animate attributeName="display" repeatCount="indefinite" dur="2.25s" keyTimes="0;0.204;1" values="inline;none;none"/></g><g style="display:none;"><path fill="#6D6F70" d="M327.399,141.326L218.55,141.326 218.524,141.35 218.524,180.626Q218.543,187.668 220.456,194.149 222.378,200.629 225.937,206.307 229.516,211.969 234.473,216.589 239.421,221.202 245.488,224.532 251.558,227.852 258.487,229.648 265.431,231.445 272.974,231.476 280.518,231.445 287.461,229.648 294.391,227.852 300.461,224.532 306.541,221.202 311.502,216.589 316.446,211.969 320.012,206.307 323.571,200.629 325.493,194.149 327.419,187.668 327.451,180.626L327.451,141.35 327.399,141.326"/><path fill="#6D6F70" stroke-width="7.95" stroke-linecap="round" stroke-linejoin="round" d="M327.399,180.626L327.399,141.35 218.55,141.35 218.55,180.626Q218.565,187.669 220.482,194.149 222.415,200.618 225.989,206.282 229.553,211.947 234.499,216.564 239.445,221.181 245.514,224.507 251.582,227.832 258.513,229.624 265.442,231.425 272.974,231.451 280.507,231.425 287.435,229.624 294.38,227.832 300.461,224.507 306.53,221.181 311.476,216.564 316.422,211.947 319.986,206.282 323.547,200.618 325.467,194.149 327.384,187.669 327.399,180.626"/><path fill="none" stroke="#6D6F70" stroke-width="7.95" stroke-linecap="round" stroke-linejoin="round" d="M327.399,180.626L327.399,141.35 218.55,141.35 218.55,180.626Q218.565,187.669 220.482,194.149 222.415,200.618 225.989,206.282 229.553,211.947 234.499,216.564 239.445,221.181 245.514,224.507 251.582,227.832 258.513,229.624 265.442,231.425 272.974,231.451 280.507,231.425 287.435,229.624 294.38,227.832 300.461,224.507 306.53,221.181 311.476,216.564 316.422,211.947 319.986,206.282 323.547,200.618 325.467,194.149 327.384,187.669 327.399,180.626"/><path fill="#221F1F" d="M286.325,174.877Q286.325,169.712 282.409,166.057 278.546,162.451 273.012,162.451 267.479,162.451 263.563,166.057 259.7,169.712 259.7,174.877 259.7,180.043 263.563,183.649 267.479,187.303 273.012,187.303 278.546,187.303 282.409,183.649 286.325,180.043 286.325,174.877"/><path fill="none" stroke="#221F1F" stroke-width="11.9" stroke-linecap="round" stroke-linejoin="round" d="M272.975,176.677L272.975,201.091"/><animate attributeName="display" repeatCount="indefinite" dur="2.25s" keyTimes="0;0.37;0.389;1" values="none;inline;none;none"/></g><g><path fill="#6D6F70" d="M325.1,138.975L220.85,138.975 220.825,139 220.825,179.3Q220.844,186.526 222.675,193.175 224.516,199.824 227.925,205.65 231.352,211.46 236.1,216.2 240.839,220.934 246.65,224.35 252.463,227.757 259.1,229.6 265.75,231.443 272.975,231.475 280.2,231.443 286.85,229.6 293.487,227.757 299.3,224.35 305.123,220.934 309.875,216.2 314.61,211.46 318.025,205.65 321.434,199.824 323.275,193.175 325.12,186.526 325.15,179.3L325.15,139 325.1,138.975"/><path fill="#6D6F70" stroke-width="7.95" stroke-linecap="round" stroke-linejoin="round" d="M325.1,179.3L325.1,139 220.85,139 220.85,179.3Q220.865,186.527 222.7,193.175 224.551,199.813 227.975,205.625 231.388,211.438 236.125,216.175 240.862,220.912 246.675,224.325 252.487,227.736 259.125,229.575 265.761,231.423 272.975,231.45 280.189,231.423 286.825,229.575 293.476,227.736 299.3,224.325 305.113,220.912 309.85,216.175 314.587,211.438 318,205.625 321.411,199.813 323.25,193.175 325.085,186.527 325.1,179.3"/><path fill="none" stroke="#6D6F70" stroke-width="7.95" stroke-linecap="round" stroke-linejoin="round" d="M325.1,179.3L325.1,139 220.85,139 220.85,179.3Q220.865,186.527 222.7,193.175 224.551,199.813 227.975,205.625 231.388,211.438 236.125,216.175 240.862,220.912 246.675,224.325 252.487,227.736 259.125,229.575 265.761,231.423 272.975,231.45 280.189,231.423 286.825,229.575 293.476,227.736 299.3,224.325 305.113,220.912 309.85,216.175 314.587,211.438 318,205.625 321.411,199.813 323.25,193.175 325.085,186.527 325.1,179.3"/><path fill="#221F1F" d="M285.75,173.4Q285.75,168.1 282,164.35 278.3,160.65 273,160.65 267.7,160.65 263.95,164.35 260.25,168.1 260.25,173.4 260.25,178.7 263.95,182.4 267.7,186.15 273,186.15 278.3,186.15 282,182.4 285.75,178.7 285.75,173.4"/><path fill="none" stroke="#221F1F" stroke-width="11.9" stroke-linecap="round" stroke-linejoin="round" d="M272.95,175.25L272.95,200.3"/><animate attributeName="display" repeatCount="indefinite" dur="2.25s" keyTimes="0;0.37;0.389;1" values="inline;none;inline;inline"/></g><g style="display:none;"><path fill="none" stroke="#F30" stroke-width="10" stroke-linecap="round" stroke-linejoin="round" d="M169.038,143.376L169.609,143.376"/><path fill="none" stroke="#F30" stroke-width="10" stroke-linecap="round" stroke-linejoin="round" d="M180.633,178.171L181.249,177.556"/><path fill="none" stroke="#F30" stroke-width="10" stroke-linecap="round" stroke-linejoin="round" d="M180.638,108.544L181.399,109.304"/><animate attributeName="display" repeatCount="indefinite" dur="2.25s" keyTimes="0;0.407;0.426;1" values="none;inline;none;none"/></g><g style="display:none;"><path fill="none" stroke="#F30" stroke-width="10" stroke-linecap="round" stroke-linejoin="round" d="M176.458,143.376L182.842,143.376"/><path fill="none" stroke="#F30" stroke-width="10" stroke-linecap="round" stroke-linejoin="round" d="M187.785,177.07L192.679,172.177"/><path fill="none" stroke="#F30" stroke-width="10" stroke-linecap="round" stroke-linejoin="round" d="M187.636,109.491L192.214,114.069"/><animate attributeName="display" repeatCount="indefinite" dur="2.25s" keyTimes="0;0.389;0.407;1" values="none;inline;none;none"/></g><g style="display:none;"><path fill="none" stroke="#F30" stroke-width="10" stroke-linecap="round" stroke-linejoin="round" d="M182.384,143.376L194.257,143.376"/><path fill="none" stroke="#F30" stroke-width="10" stroke-linecap="round" stroke-linejoin="round" d="M193.141,171.764L201.537,163.369"/><path fill="none" stroke="#F30" stroke-width="10" stroke-linecap="round" stroke-linejoin="round" d="M193.086,114.941L201.481,123.337"/><animate attributeName="display" repeatCount="indefinite" dur="2.25s" keyTimes="0;0.352;0.389;1" values="none;inline;none;none"/></g></g></svg>