<?xml version="1.0" encoding="utf-8"?>
<!-- Generator: Adobe Illustrator 16.0.0, SVG Export Plug-In . SVG Version: 6.00 Build 0)  -->
<!DOCTYPE svg PUBLIC "-//W3C//DTD SVG 1.1//EN" "http://www.w3.org/Graphics/SVG/1.1/DTD/svg11.dtd">
<svg version="1.1" xmlns="http://www.w3.org/2000/svg" xmlns:xlink="http://www.w3.org/1999/xlink" x="0px" y="0px"
	 width="515.001px" height="515px" viewBox="0 0 515.001 515" enable-background="new 0 0 515.001 515" xml:space="preserve">
<g id="Layer_8">
	<rect fill="#80CEEF" width="515.001" height="515"/>
</g>
<g id="espejo">
</g>
<g id="Layer_10">
	<g>
		<g>
			
				<line fill="none" stroke="#FFFFFF" stroke-width="10" stroke-linecap="round" stroke-linejoin="round" stroke-miterlimit="10" x1="196.236" y1="398.696" x2="196.236" y2="449.077"/>
			
				<line fill="none" stroke="#FFFFFF" stroke-width="10" stroke-linecap="round" stroke-linejoin="round" stroke-miterlimit="10" x1="395.236" y1="398.696" x2="395.236" y2="449.077"/>
		</g>
		<path fill="#FFFFFF" d="M423.892,359.55H167.583h-0.002c-11.215,0-20.47,8.554-21.583,19.48c-0.074,0.729-0.112,1.467-0.112,2.215
			c0,0.126,0.014,0.251,0.041,0.374l9,39.805c2.531,14.521,9.735,21.321,22.654,21.321h0.002h236.309
			c12.919,0,20.123-6.801,22.654-21.321l9-39.805c0.027-0.123,0.041-0.248,0.041-0.374
			C445.587,369.282,435.854,359.55,423.892,359.55z"/>
		
			<line fill="none" stroke="#FFFFFF" stroke-width="30" stroke-linecap="round" stroke-linejoin="round" stroke-miterlimit="10" x1="149.338" y1="373.838" x2="442.96" y2="373.838"/>
	</g>
	<g>
		
			<path fill="#FEED72" stroke="#FFFFFF" stroke-width="3.0655" stroke-linecap="round" stroke-linejoin="round" stroke-miterlimit="10" d="
			M398.976,66.738v314.814c0,8.032,6.8,14.544,15.189,14.544c8.389,0,15.188-6.512,15.188-14.544V66.738H398.976z"/>
		
			<path fill="#FEED72" stroke="#FFFFFF" stroke-width="3.0655" stroke-linecap="round" stroke-linejoin="round" stroke-miterlimit="10" d="
			M368.602,66.738v314.814c0,8.032,6.799,14.544,15.189,14.544c8.387,0,15.185-6.512,15.185-14.544V66.738H368.602z"/>
		
			<path fill="#FEED72" stroke="#FFFFFF" stroke-width="3.0655" stroke-linecap="round" stroke-linejoin="round" stroke-miterlimit="10" d="
			M338.226,66.738v314.814c0,8.032,6.799,14.544,15.189,14.544c8.387,0,15.187-6.512,15.187-14.544V66.738H338.226z"/>
		
			<path fill="#FEED72" stroke="#FFFFFF" stroke-width="3.0655" stroke-linecap="round" stroke-linejoin="round" stroke-miterlimit="10" d="
			M307.851,66.738v314.814c0,8.032,6.799,14.544,15.188,14.544c8.388,0,15.187-6.512,15.187-14.544V66.738H307.851z"/>
		
			<path fill="#FEED72" stroke="#FFFFFF" stroke-width="3.0655" stroke-linecap="round" stroke-linejoin="round" stroke-miterlimit="10" d="
			M277.476,66.738v314.814c0,8.032,6.798,14.544,15.189,14.544c8.386,0,15.186-6.512,15.186-14.544V66.738H277.476z"/>
		
			<path fill="#FEED72" stroke="#FFFFFF" stroke-width="3.0655" stroke-linecap="round" stroke-linejoin="round" stroke-miterlimit="10" d="
			M247.099,66.738v314.814c0,8.032,6.8,14.544,15.189,14.544c8.389,0,15.188-6.512,15.188-14.544V66.738H247.099z"/>
		
			<path fill="#FEED72" stroke="#FFFFFF" stroke-width="3.0655" stroke-linecap="round" stroke-linejoin="round" stroke-miterlimit="10" d="
			M216.725,66.738v314.814c0,8.032,6.799,14.544,15.189,14.544c8.387,0,15.185-6.512,15.185-14.544V66.738H216.725z"/>
		
			<path fill="#FEED72" stroke="#FFFFFF" stroke-width="3.0655" stroke-linecap="round" stroke-linejoin="round" stroke-miterlimit="10" d="
			M186.349,66.738v314.814c0,8.032,6.799,14.544,15.189,14.544c8.387,0,15.187-6.512,15.187-14.544V66.738H186.349z"/>
		
			<path fill="#FEED72" stroke="#FFFFFF" stroke-width="3.0655" stroke-linecap="round" stroke-linejoin="round" stroke-miterlimit="10" d="
			M155.974,66.738v314.814c0,8.032,6.799,14.544,15.188,14.544c8.388,0,15.187-6.512,15.187-14.544V66.738H155.974z"/>
		
			<path fill="#FEED72" stroke="#FFFFFF" stroke-width="3.0655" stroke-linecap="round" stroke-linejoin="round" stroke-miterlimit="10" d="
			M125.599,66.738v314.814c0,8.032,6.798,14.544,15.189,14.544c8.386,0,15.186-6.512,15.186-14.544V66.738H125.599z"/>
		<g>
			
				<line fill="#FFFFFF" stroke="#26A9E0" stroke-width="5" stroke-linecap="round" stroke-linejoin="round" stroke-miterlimit="10" x1="201.537" y1="58.51" x2="201.537" y2="71.338"/>
			
				<line fill="#FFFFFF" stroke="#26A9E0" stroke-width="5" stroke-linecap="round" stroke-linejoin="round" stroke-miterlimit="10" x1="171.16" y1="58.51" x2="171.16" y2="71.338"/>
			
				<line fill="#FFFFFF" stroke="#26A9E0" stroke-width="5" stroke-linecap="round" stroke-linejoin="round" stroke-miterlimit="10" x1="140.786" y1="58.51" x2="140.786" y2="71.338"/>
			
				<line fill="#FFFFFF" stroke="#26A9E0" stroke-width="5" stroke-linecap="round" stroke-linejoin="round" stroke-miterlimit="10" x1="231.912" y1="58.51" x2="231.912" y2="71.338"/>
			
				<line fill="#FFFFFF" stroke="#26A9E0" stroke-width="5" stroke-linecap="round" stroke-linejoin="round" stroke-miterlimit="10" x1="262.287" y1="58.51" x2="262.287" y2="71.338"/>
			
				<line fill="#FFFFFF" stroke="#26A9E0" stroke-width="5" stroke-linecap="round" stroke-linejoin="round" stroke-miterlimit="10" x1="292.663" y1="58.51" x2="292.663" y2="71.338"/>
			
				<line fill="#FFFFFF" stroke="#26A9E0" stroke-width="5" stroke-linecap="round" stroke-linejoin="round" stroke-miterlimit="10" x1="323.037" y1="58.51" x2="323.037" y2="71.338"/>
			
				<line fill="#FFFFFF" stroke="#26A9E0" stroke-width="5" stroke-linecap="round" stroke-linejoin="round" stroke-miterlimit="10" x1="353.414" y1="58.51" x2="353.414" y2="71.338"/>
			
				<line fill="#FFFFFF" stroke="#26A9E0" stroke-width="5" stroke-linecap="round" stroke-linejoin="round" stroke-miterlimit="10" x1="383.789" y1="58.51" x2="383.789" y2="71.338"/>
			
				<line fill="#FFFFFF" stroke="#26A9E0" stroke-width="5" stroke-linecap="round" stroke-linejoin="round" stroke-miterlimit="10" x1="414.164" y1="58.51" x2="414.164" y2="71.338"/>
		</g>
	</g>
</g>
<g id="perri" display="none">
	<rect x="-44.418" y="52.4" display="inline" fill="#FEED72" width="603.837" height="410.199"/>
	<g display="inline">
		<path fill="#8C5330" d="M121.668,337.992H76.702c-7.452,0-13.493,6.041-13.493,13.492c0,7.455,6.041,13.494,13.493,13.494h44.966
			V337.992z"/>
		<path fill="#C3996B" d="M210.641,267.073c30.753,0,55.684,24.931,55.684,55.685v5.842c0,30.752-24.931,55.684-55.684,55.684
			H147.55c-30.755,0-55.686-24.932-55.686-55.684v-5.842c0-30.754,24.931-55.685,55.686-55.685H210.641z"/>
		<path fill="#C3996B" stroke="#C3996B" stroke-width="4.0461" stroke-miterlimit="10" d="M126.145,357.201v33.924
			c0,11.309,9.167,20.474,20.478,20.474c11.308,0,20.475-9.165,20.475-20.474v-33.924H126.145z"/>
		<path fill="#C3996B" stroke="#C3996B" stroke-width="4.0461" stroke-miterlimit="10" d="M205.279,357.201v33.924
			c0,11.309,9.166,20.474,20.478,20.474c11.309,0,20.474-9.165,20.474-20.474v-33.924H205.279z"/>
		<path fill="#C3996B" d="M294.613,293.227c-2.427-4.186-6.341-7.178-10.97-8.408l-32.547-9.77l-9.315,35.027l32.495,9.755
			c1.53,0.406,3.1,0.611,4.669,0.611c0,0,0,0,0.001,0c8.195,0,15.394-5.538,17.502-13.467
			C297.694,302.297,297.042,297.413,294.613,293.227z"/>
		<g>
			<polygon fill="#AA845E" points="266.082,279.545 266.082,317.371 269.474,318.39 269.474,280.564 			"/>
		</g>
		<path fill="#C3996B" stroke="#C3996B" stroke-width="3.2369" stroke-miterlimit="10" d="M120.978,291.802l-23.979-13.137
			c-7.995-4.381-18.024-1.451-22.405,6.542c-4.379,7.995-1.451,18.024,6.543,22.402l23.979,13.14L120.978,291.802z"/>
		
			<path fill="#EC1C24" stroke="#EC1C24" stroke-width="33.49" stroke-linecap="round" stroke-linejoin="round" stroke-miterlimit="10" d="
			M121.437,266.198c5.193,22.41,116.881,24.421,121.173,0"/>
		<path fill="#CFAD89" d="M211.278,332.476c10.446,0,18.913,8.468,18.913,18.913v1.983c0,10.444-8.467,18.914-18.913,18.914h-21.428
			c-10.445,0-18.912-8.47-18.912-18.914v-1.983c0-10.445,8.467-18.913,18.912-18.913H211.278z"/>
		
			<line fill="none" stroke="#808184" stroke-width="6.7829" stroke-linecap="round" stroke-linejoin="round" stroke-miterlimit="10" x1="201.106" y1="283.739" x2="201.106" y2="305.198"/>
		<path fill="#808184" d="M212.977,315.243c0,6.552-5.316,11.866-11.867,11.866c-6.557,0-11.872-5.314-11.872-11.866
			c0-6.553,5.315-11.866,11.872-11.866C207.66,303.377,212.977,308.69,212.977,315.243z"/>
		<circle fill="#CFAD89" cx="286.292" cy="293.951" r="3.692"/>
		<circle fill="#CFAD89" cx="288.553" cy="305.353" r="3.692"/>
		<circle fill="#CFAD89" cx="280.089" cy="312.039" r="3.692"/>
		<g>
			
				<path fill="#C3996B" stroke="#C3996B" stroke-width="11.3049" stroke-linecap="round" stroke-linejoin="round" stroke-miterlimit="10" d="
				M50.439,136.838c-8.495,13.507-13.431,29.468-13.431,46.567v8.978c0,48.38,39.357,87.735,87.735,87.735h114.354
				c48.379,0,87.737-39.355,87.737-87.735v-8.978c0-17.1-4.937-33.061-13.432-46.567H50.439z"/>
			
				<path fill="#8C5330" stroke="#8C5330" stroke-width="3.3915" stroke-linecap="round" stroke-linejoin="round" stroke-miterlimit="10" d="
				M109.756,128.941v45.446c0,16.28-13.196,29.478-29.482,29.478c-16.279,0-29.477-13.197-29.477-29.478v-45.446H109.756z"/>
			
				<path fill="#8C5330" stroke="#8C5330" stroke-width="3.3915" stroke-linecap="round" stroke-linejoin="round" stroke-miterlimit="10" d="
				M313.21,128.941v45.446c0,16.28-13.195,29.478-29.482,29.478c-16.279,0-29.477-13.197-29.477-29.478v-45.446H313.21z"/>
			<g>
				<path fill="#231F20" d="M210.179,208.582c0,3.562-2.885,6.445-6.446,6.445l0,0c-3.563,0-6.447-2.884-6.447-6.445v-0.22
					c0-3.563,2.885-6.451,6.447-6.451l0,0c3.562,0,6.446,2.889,6.446,6.451V208.582z"/>
				<g>
					<path fill="#231F20" d="M184.747,203.606c0,2.688-2.176,4.864-4.863,4.864l0,0c-2.686,0-4.863-2.177-4.863-4.864v-3.461
						c0-2.688,2.178-4.865,4.863-4.865l0,0c2.688,0,4.863,2.178,4.863,4.865V203.606z"/>
					<path fill="#231F20" d="M231.098,203.606c0,2.688-2.178,4.864-4.864,4.864l0,0c-2.686,0-4.863-2.177-4.863-4.864v-3.461
						c0-2.688,2.178-4.865,4.863-4.865l0,0c2.687,0,4.864,2.178,4.864,4.865V203.606z"/>
				</g>
				<path fill="#EC1C24" stroke="#EC1C24" stroke-width="0.3867" stroke-miterlimit="10" d="M190.199,227.985l-2.144-7.434
					c-1.668-5.787-7.711-9.127-13.499-7.458c-5.787,1.668-9.126,7.711-7.457,13.498l0.817,2.836"/>
				
					<path fill="none" stroke="#231F20" stroke-width="4.5219" stroke-linecap="round" stroke-linejoin="round" stroke-miterlimit="10" d="
					M202.015,212.419c5.094,10.834,15.879,18.309,28.36,18.309c6.128,0,11.851-1.804,16.688-4.922"/>
				
					<path fill="none" stroke="#231F20" stroke-width="4.5219" stroke-linecap="round" stroke-linejoin="round" stroke-miterlimit="10" d="
					M205.234,212.419c-5.093,10.834-15.878,18.309-28.359,18.309c-6.129,0-11.851-1.804-16.688-4.922"/>
				
					<path fill="none" stroke="#AA845E" stroke-width="3.3915" stroke-linecap="round" stroke-linejoin="round" stroke-miterlimit="10" d="
					M132.578,196.599c14.62,0,26.472,11.853,26.472,26.472c0,14.621-11.852,26.471-26.472,26.471
					c-6.853,0-13.097-2.604-17.798-6.875"/>
			</g>
			<g>
				<g>
					<g>
						<g>
							<g>
								
									<line fill="#A6A8AB" stroke="#A6A8AB" stroke-width="7.3131" stroke-linecap="round" stroke-linejoin="round" stroke-miterlimit="10" x1="49.501" y1="236.536" x2="73.595" y2="279.33"/>
								<g>
									<g>
										<path fill="#A6A8AB" d="M53.354,220.018l-19.97,11.244c-5.067,2.854-6.869,9.297-4.015,14.364l4.486,7.97
											c2.852,5.066,9.296,6.866,14.362,4.015l19.97-11.244c5.067-2.853,6.869-9.294,4.015-14.36l-4.487-7.971
											C64.863,218.968,58.42,217.166,53.354,220.018z"/>
										
											<line fill="#A6A8AB" stroke="#A6A8AB" stroke-width="9.771" stroke-linecap="round" stroke-linejoin="round" stroke-miterlimit="10" x1="21.279" y1="221.052" x2="38.469" y2="251.58"/>
										
											<line fill="#A6A8AB" stroke="#A6A8AB" stroke-width="9.771" stroke-linecap="round" stroke-linejoin="round" stroke-miterlimit="10" x1="51.081" y1="204.272" x2="68.27" y2="234.803"/>
										
											<line fill="#A6A8AB" stroke="#A6A8AB" stroke-width="9.771" stroke-linecap="round" stroke-linejoin="round" stroke-miterlimit="10" x1="36.039" y1="212.742" x2="53.226" y2="243.271"/>
									</g>
								</g>
								<g>
									<g>
										
											<line fill="none" stroke="#231F20" stroke-width="3.2213" stroke-linecap="round" stroke-linejoin="round" stroke-miterlimit="10" x1="42.711" y1="234.162" x2="44.602" y2="237.521"/>
										
											<line fill="none" stroke="#231F20" stroke-width="3.2213" stroke-linecap="round" stroke-linejoin="round" stroke-miterlimit="10" x1="50.996" y1="229.498" x2="52.885" y2="232.854"/>
									</g>
									
										<path fill="none" stroke="#231F20" stroke-width="2.5729" stroke-linecap="round" stroke-linejoin="round" stroke-miterlimit="10" d="
										M55.33,238.985c1.051,1.866,0.391,4.23-1.476,5.281c-1.866,1.05-4.231,0.389-5.28-1.477"/>
								</g>
								<g>
									<path fill="#EC1C24" d="M98.709,323.937c-5.278,2.974-11.97,1.104-14.94-4.176L61.11,279.518
										c-2.972-5.278-1.102-11.97,4.178-14.942c5.279-2.971,11.967-1.103,14.94,4.178l22.658,40.246
										C105.859,314.277,103.989,320.965,98.709,323.937z"/>
								</g>
								<g>
									<circle fill="#FFDA00" cx="88.003" cy="304.922" r="3.651"/>
									<circle fill="#FFDA00" cx="77.24" cy="285.805" r="3.652"/>
								</g>
							</g>
						</g>
					</g>
					
						<path fill="#FFFFFF" stroke="#FFFFFF" stroke-width="2.1047" stroke-linecap="round" stroke-linejoin="round" stroke-miterlimit="10" d="
						M47.791,242.921c0.009,0.017,0.017,0.036,0.025,0.049l0.142,0.25c1.253,2.229,4.075,3.018,6.3,1.766
						c2.226-1.255,3.016-4.077,1.761-6.303l-0.14-0.251c-0.009-0.017-0.021-0.031-0.03-0.045L47.791,242.921z"/>
				</g>
				<g>
					<circle fill="#FF7BAC" cx="13.398" cy="207.916" r="13.894"/>
					<path fill="#FF7BAC" d="M35.31,193.909c1.039,8.164-4.738,15.62-12.9,16.66c-8.162,1.035-15.619-4.738-16.657-12.902
						c-1.038-8.16,4.737-15.618,12.899-16.656C26.813,179.973,34.272,185.749,35.31,193.909z"/>
					<path fill="#FF7BAC" d="M36.179,210.625c0.825,6.485-3.765,12.412-10.251,13.239c-6.484,0.822-12.412-3.766-13.236-10.253
						c-0.824-6.484,3.766-12.411,10.25-13.236C29.428,199.551,35.355,204.14,36.179,210.625z"/>
					<circle fill="#FF7BAC" cx="41.255" cy="192.478" r="14.898"/>
					<circle fill="#FF7BAC" cx="41.261" cy="202.3" r="11.839"/>
				</g>
			</g>
			<circle fill="#C3996B" stroke="#C3996B" stroke-width="2.9589" stroke-miterlimit="10" cx="72.561" cy="298.97" r="19.356"/>
		</g>
	</g>
	<circle display="inline" fill="#FF7BAC" cx="80.949" cy="409.496" r="6.011"/>
	<circle display="inline" fill="#FF7BAC" cx="121.138" cy="411.502" r="4.004"/>
	<path display="inline" fill="#FF7BAC" d="M106.693,407.974c0,4.161-3.371,7.534-7.533,7.534c-4.156,0-7.528-3.373-7.528-7.534
		c0-4.156,3.372-7.528,7.528-7.528C103.322,400.445,106.693,403.817,106.693,407.974z"/>
	<circle display="inline" fill="#FF7BAC" cx="297.088" cy="412.329" r="3.75"/>
	<circle display="inline" fill="#FF7BAC" cx="312.604" cy="410.831" r="5.249"/>
</g>
<g id="Layer_9">
	<g>
		
			<line fill="none" stroke="#FFFFFF" stroke-width="8.3776" stroke-linecap="round" stroke-linejoin="round" stroke-miterlimit="10" x1="187.396" y1="215.544" x2="187.396" y2="232.995"/>
		
			<line fill="none" stroke="#FFFFFF" stroke-width="8.3776" stroke-linecap="round" stroke-linejoin="round" stroke-miterlimit="10" x1="197.181" y1="220.073" x2="177.608" y2="220.073"/>
	</g>
	<g>
		
			<polyline fill="none" stroke="#929497" stroke-width="20" stroke-linecap="round" stroke-linejoin="round" stroke-miterlimit="10" points="
			471.095,114.166 471.095,90.669 567.099,90.669 		"/>
		
			<line fill="none" stroke="#929497" stroke-width="16.7551" stroke-linecap="round" stroke-linejoin="round" stroke-miterlimit="10" x1="450.032" y1="119.516" x2="492.63" y2="119.516"/>
	</g>
</g>
<g id="Layer_7">
	<g>
		<rect x="240.125" y="401.14" fill="#EDBED6" width="42.12" height="52.459"/>
		<circle fill="#F2ADCC" cx="380.788" cy="409.077" r="15.736"/>
		<g>
			
				<path fill="#EDBED6" stroke="#EDBED6" stroke-width="3.3915" stroke-linecap="round" stroke-linejoin="round" stroke-miterlimit="10" d="
				M226.086,178.865v-45.446c0-16.28,13.196-29.478,29.482-29.478c16.279,0,29.477,13.197,29.477,29.478v45.446H226.086z"/>
			<path opacity="0.3" fill="#FFFFFF" d="M243.577,178.88v-18.482c0-6.62,5.367-11.987,11.99-11.987
				c6.621,0,11.986,5.367,11.986,11.987v18.482H243.577z"/>
		</g>
		<g>
			
				<path fill="#EDBED6" stroke="#EDBED6" stroke-width="3.3915" stroke-linecap="round" stroke-linejoin="round" stroke-miterlimit="10" d="
				M300.086,178.865v-45.446c0-16.28,13.196-29.478,29.482-29.478c16.279,0,29.477,13.197,29.477,29.478v45.446H300.086z"/>
			<path opacity="0.3" fill="#FFFFFF" d="M317.577,178.88v-18.482c0-6.62,5.367-11.987,11.99-11.987
				c6.621,0,11.986,5.367,11.986,11.987v18.482H317.577z"/>
		</g>
		<path fill="#EDBED6" d="M275.201,312.073c-30.753,0-55.684,24.931-55.684,55.685v5.842c0,30.752,24.931,55.684,55.684,55.684
			h63.091c30.755,0,55.686-24.932,55.686-55.684v-5.842c0-30.754-24.931-55.685-55.686-55.685H275.201z"/>
		<path opacity="0.3" fill="#FFFFFF" d="M274.563,377.476c-10.446,0-18.913,8.468-18.913,18.913v1.983
			c0,10.444,8.467,18.914,18.913,18.914h21.428c10.445,0,18.912-8.47,18.912-18.914v-1.983c0-10.445-8.467-18.913-18.912-18.913
			H274.563z"/>
		
			<path fill="#EDBED6" stroke="#EDBED6" stroke-width="11.3049" stroke-linecap="round" stroke-linejoin="round" stroke-miterlimit="10" d="
			M435.403,181.838c8.494,13.507,13.431,29.468,13.431,46.567v8.978c0,48.38-39.357,87.735-87.735,87.735H246.745
			c-48.379,0-87.737-39.355-87.737-87.735v-8.978c0-17.1,4.937-33.061,13.432-46.567H435.403z"/>
		<path fill="none" stroke="#EC1C24" stroke-miterlimit="10" d="M287.331,231.154"/>
		<path fill="#231F20" d="M275.663,253.582c0,3.562,2.885,6.445,6.446,6.445l0,0c3.563,0,6.447-2.884,6.447-6.445v-0.22
			c0-3.563-2.885-6.451-6.447-6.451l0,0c-3.562,0-6.446,2.889-6.446,6.451V253.582z"/>
		
			<line fill="#FEED72" stroke="#231F20" stroke-width="5" stroke-linecap="round" stroke-linejoin="round" stroke-miterlimit="10" x1="282.109" y1="256.194" x2="282.109" y2="276.951"/>
		<g>
			<g>
				
					<line fill="#A6A8AB" stroke="#FFFFFF" stroke-width="6.6504" stroke-linecap="round" stroke-linejoin="round" stroke-miterlimit="10" x1="292.972" y1="342.036" x2="292.972" y2="323.479"/>
				
					<line fill="#A6A8AB" stroke="#FFFFFF" stroke-width="6.6504" stroke-linecap="round" stroke-linejoin="round" stroke-miterlimit="10" x1="283.546" y1="342.036" x2="283.546" y2="323.479"/>
				
					<line fill="#A6A8AB" stroke="#FFFFFF" stroke-width="6.6504" stroke-linecap="round" stroke-linejoin="round" stroke-miterlimit="10" x1="274.12" y1="342.036" x2="274.12" y2="323.479"/>
				
					<line fill="#A6A8AB" stroke="#FFFFFF" stroke-width="6.6504" stroke-linecap="round" stroke-linejoin="round" stroke-miterlimit="10" x1="264.694" y1="342.036" x2="264.694" y2="323.479"/>
			</g>
			
				<line fill="#A6A8AB" stroke="#FFFFFF" stroke-width="6.6504" stroke-linecap="round" stroke-linejoin="round" stroke-miterlimit="10" x1="280.54" y1="349.3" x2="325.199" y2="349.3"/>
			
				<line fill="#A6A8AB" stroke="#1B75BB" stroke-width="22.6508" stroke-linecap="round" stroke-linejoin="round" stroke-miterlimit="10" x1="329.214" y1="349.3" x2="372.416" y2="349.3"/>
			
				<path fill="#1B75BB" stroke="#1B75BB" stroke-width="7.3327" stroke-linecap="round" stroke-linejoin="round" stroke-miterlimit="10" d="
				M258.499,344.254c0-3.271,2.652-5.923,5.924-5.923h28.821c3.271,0,5.922,2.651,5.922,5.923v10.091
				c0,3.272-2.651,5.924-5.922,5.924h-28.821c-3.271,0-5.924-2.651-5.924-5.924V344.254z"/>
			<g>
				
					<line fill="none" stroke="#231F20" stroke-width="4.0542" stroke-linecap="round" stroke-linejoin="round" stroke-miterlimit="10" x1="276.356" y1="354.636" x2="279.86" y2="354.636"/>
				
					<line fill="none" stroke="#231F20" stroke-width="4.0542" stroke-linecap="round" stroke-linejoin="round" stroke-miterlimit="10" x1="276.356" y1="343.963" x2="279.86" y2="343.963"/>
			</g>
			
				<path fill="none" stroke="#231F20" stroke-width="2.3397" stroke-linecap="round" stroke-linejoin="round" stroke-miterlimit="10" d="
				M286.981,345.774c1.947,0,3.525,1.579,3.525,3.525c0,1.947-1.578,3.525-3.525,3.525"/>
			
				<line fill="#A6A8AB" stroke="#FFFFFF" stroke-width="6.6504" stroke-linecap="round" stroke-linejoin="round" stroke-miterlimit="10" x1="362.339" y1="349.3" x2="372.416" y2="349.3"/>
			
				<path fill="#FFFFFF" stroke="#FFFFFF" stroke-width="1.5203" stroke-linecap="round" stroke-linejoin="round" stroke-miterlimit="10" d="
				M286.351,353.753c0.018,0,0.035,0.003,0.052,0.003h0.278c2.461,0,4.456-1.995,4.456-4.456s-1.995-4.456-4.456-4.456h-0.278
				c-0.017,0-0.034,0.003-0.052,0.003V353.753z"/>
		</g>
		<g>
			
				<line fill="#EDBED6" stroke="#EDBED6" stroke-width="4" stroke-linecap="round" stroke-linejoin="round" stroke-miterlimit="10" x1="448.839" y1="256.438" x2="461.62" y2="255.951"/>
			
				<line fill="#EDBED6" stroke="#EDBED6" stroke-width="4" stroke-linecap="round" stroke-linejoin="round" stroke-miterlimit="10" x1="447.033" y1="269.609" x2="459.426" y2="272.779"/>
		</g>
		<g>
			
				<line fill="#EDBED6" stroke="#EDBED6" stroke-width="4" stroke-linecap="round" stroke-linejoin="round" stroke-miterlimit="10" x1="158.815" y1="256.438" x2="146.034" y2="255.951"/>
			
				<line fill="#EDBED6" stroke="#EDBED6" stroke-width="4" stroke-linecap="round" stroke-linejoin="round" stroke-miterlimit="10" x1="160.621" y1="269.609" x2="148.229" y2="272.779"/>
		</g>
		<rect x="317.125" y="401.14" fill="#EDBED6" width="44.198" height="52.459"/>
		<g>
			<path fill="#FFFFFF" d="M292.683,273.996v9.534c0,6.062-4.913,10.977-10.977,10.977c-6.062,0-10.977-4.915-10.977-10.977v-9.534
				H292.683z"/>
		</g>
		
			<line fill="#FEED72" stroke="#231F20" stroke-width="5" stroke-linecap="round" stroke-linejoin="round" stroke-miterlimit="10" x1="301.488" y1="275.573" x2="261.731" y2="275.573"/>
		<g>
			<g>
				
					<line fill="#FFFFFF" stroke="#F6921E" stroke-width="6.6504" stroke-linecap="round" stroke-linejoin="round" stroke-miterlimit="10" x1="292.972" y1="342.036" x2="292.972" y2="323.479"/>
				
					<line fill="#FFFFFF" stroke="#F6921E" stroke-width="6.6504" stroke-linecap="round" stroke-linejoin="round" stroke-miterlimit="10" x1="283.546" y1="342.036" x2="283.546" y2="323.479"/>
				
					<line fill="#FFFFFF" stroke="#F6921E" stroke-width="6.6504" stroke-linecap="round" stroke-linejoin="round" stroke-miterlimit="10" x1="274.12" y1="342.036" x2="274.12" y2="323.479"/>
				
					<line fill="#FFFFFF" stroke="#F6921E" stroke-width="6.6504" stroke-linecap="round" stroke-linejoin="round" stroke-miterlimit="10" x1="264.694" y1="342.036" x2="264.694" y2="323.479"/>
			</g>
			
				<line fill="#A6A8AB" stroke="#1B75BB" stroke-width="6.6504" stroke-linecap="round" stroke-linejoin="round" stroke-miterlimit="10" x1="280.54" y1="349.3" x2="325.199" y2="349.3"/>
			
				<line fill="#A6A8AB" stroke="#1B75BB" stroke-width="22.6508" stroke-linecap="round" stroke-linejoin="round" stroke-miterlimit="10" x1="329.214" y1="349.3" x2="372.416" y2="349.3"/>
			
				<path fill="#1B75BB" stroke="#1B75BB" stroke-width="7.3327" stroke-linecap="round" stroke-linejoin="round" stroke-miterlimit="10" d="
				M258.499,344.254c0-3.271,2.652-5.923,5.924-5.923h28.821c3.271,0,5.922,2.651,5.922,5.923v10.091
				c0,3.272-2.651,5.924-5.922,5.924h-28.821c-3.271,0-5.924-2.651-5.924-5.924V344.254z"/>
			<g>
				
					<line fill="none" stroke="#231F20" stroke-width="4.0542" stroke-linecap="round" stroke-linejoin="round" stroke-miterlimit="10" x1="276.356" y1="354.636" x2="279.86" y2="354.636"/>
				
					<line fill="none" stroke="#231F20" stroke-width="4.0542" stroke-linecap="round" stroke-linejoin="round" stroke-miterlimit="10" x1="276.356" y1="343.963" x2="279.86" y2="343.963"/>
			</g>
			
				<path fill="none" stroke="#231F20" stroke-width="2.3397" stroke-linecap="round" stroke-linejoin="round" stroke-miterlimit="10" d="
				M286.981,345.774c1.947,0,3.525,1.579,3.525,3.525c0,1.947-1.578,3.525-3.525,3.525"/>
			
				<line fill="#A6A8AB" stroke="#F6921E" stroke-width="6.6504" stroke-linecap="round" stroke-linejoin="round" stroke-miterlimit="10" x1="362.339" y1="349.3" x2="372.416" y2="349.3"/>
			
				<path fill="#FFFFFF" stroke="#FFFFFF" stroke-width="1.5203" stroke-linecap="round" stroke-linejoin="round" stroke-miterlimit="10" d="
				M286.351,353.753c0.018,0,0.035,0.003,0.052,0.003h0.278c2.461,0,4.456-1.995,4.456-4.456s-1.995-4.456-4.456-4.456h-0.278
				c-0.017,0-0.034,0.003-0.052,0.003V353.753z"/>
		</g>
	</g>
	<g>
		<path fill="#90278E" d="M251.312,434.464c-12.366,0-22.544,9.486-22.688,21.146c-0.01,0.723,0.271,1.419,0.779,1.934
			c0.509,0.515,1.201,0.805,1.925,0.805h39.969c0.724,0,1.416-0.29,1.925-0.805c0.508-0.515,0.789-1.211,0.779-1.935
			C273.854,443.95,263.677,434.464,251.312,434.464z"/>
		<g>
			<line fill="#90278E" x1="258.022" y1="455.521" x2="285.108" y2="455.521"/>
			<path fill="#90278E" d="M285.108,458.349h-27.086c-1.563,0-2.828-1.266-2.828-2.828s1.266-2.828,2.828-2.828h27.086
				c1.563,0,2.828,1.266,2.828,2.828S286.671,458.349,285.108,458.349z"/>
		</g>
	</g>
	<g>
		<path fill="#90278E" d="M330.312,434.464c-12.366,0-22.544,9.486-22.688,21.146c-0.01,0.723,0.271,1.419,0.779,1.934
			c0.509,0.515,1.201,0.805,1.925,0.805h39.969c0.724,0,1.416-0.29,1.925-0.805c0.508-0.515,0.789-1.211,0.779-1.935
			C352.854,443.95,342.677,434.464,330.312,434.464z"/>
		<g>
			<line fill="#90278E" x1="337.022" y1="455.521" x2="364.108" y2="455.521"/>
			<path fill="#90278E" d="M364.108,458.349h-27.086c-1.563,0-2.828-1.266-2.828-2.828s1.266-2.828,2.828-2.828h27.086
				c1.563,0,2.828,1.266,2.828,2.828S365.671,458.349,364.108,458.349z"/>
		</g>
	</g>
	<g>
		<path fill="#F2ADCC" stroke="#F2ADCC" stroke-width="3.2369" stroke-miterlimit="10" d="M374.934,325.964l27.34-0.335
			c9.116-0.112,16.594,7.186,16.707,16.299c0.11,9.116-7.185,16.595-16.299,16.705l-27.341,0.338L374.934,325.964z"/>
		<circle fill="#F2ADCC" stroke="#F2ADCC" stroke-width="3.5605" stroke-miterlimit="10" cx="376.975" cy="342.758" r="21.292"/>
	</g>
	
		<line fill="#929497" stroke="#1FDBC0" stroke-width="13.0647" stroke-linecap="round" stroke-linejoin="round" stroke-miterlimit="10" x1="269.093" y1="315.288" x2="287.884" y2="315.288"/>
	<path fill="#1FDBC0" d="M274.915,308.775c4.692,0.392-2.755,13.09-6.258,13.09c-3.502,0-7.212-2.946-7.212-7.654
		c0-4.709,3.816-8.985,7.212-8.983C270.358,305.229,268.517,308.24,274.915,308.775z"/>
	<g>
		<g>
			<path fill="none" stroke="#1FDBC0" stroke-width="8" stroke-linecap="round" stroke-linejoin="round" stroke-miterlimit="10" d="
				M228.518,301.274c0-5.21-4.225-9.433-9.434-9.433l0,0c-5.21,0-9.434,4.223-9.434,9.433v8.066"/>
			<path fill="#FFFFFF" d="M216.346,309.887c0-0.723-0.586-1.308-1.309-1.308c0.723,0,1.309-0.586,1.309-1.309
				c0-0.722-0.586-1.308-1.309-1.308h-11.085c-0.723,0-1.308,0.586-1.308,1.308c0,0.723,0.585,1.309,1.308,1.309
				c-0.723,0-1.308,0.585-1.308,1.308c0,0.722,0.585,1.308,1.308,1.308c-0.723,0-1.308,0.586-1.308,1.309
				c0,0.722,0.585,1.308,1.308,1.308h11.085c0.723,0,1.309-0.586,1.309-1.308c0-0.723-0.586-1.309-1.309-1.309
				C215.76,311.194,216.346,310.608,216.346,309.887z"/>
			<path fill="#EB008B" d="M225.673,321.571c0-4.286-3.474-7.761-7.761-7.761h-16.834c-4.287,0-7.761,3.475-7.761,7.761
				l-3.881,52.831c0,4.286,3.474,7.761,7.76,7.761h24.598c4.286,0,7.76-3.475,7.76-7.761L225.673,321.571z"/>
		</g>
		<path fill="#F2ADCC" d="M179.928,349.551c0,11.759,9.535,21.291,21.291,21.291c11.761,0,21.294-9.532,21.294-21.291
			s-9.533-21.293-21.294-21.293C189.463,328.258,179.928,337.792,179.928,349.551z"/>
	</g>
	<g>
		
			<circle fill="none" stroke="#90278E" stroke-width="5" stroke-linecap="round" stroke-linejoin="round" stroke-miterlimit="10" cx="320.745" cy="226.154" r="36.414"/>
		
			<circle fill="none" stroke="#90278E" stroke-width="5" stroke-linecap="round" stroke-linejoin="round" stroke-miterlimit="10" cx="243.745" cy="226.154" r="36.414"/>
		
			<line fill="none" stroke="#90278E" stroke-width="5" stroke-linecap="round" stroke-linejoin="round" stroke-miterlimit="10" x1="207.331" y1="226.154" x2="164.489" y2="226.154"/>
		
			<line fill="none" stroke="#90278E" stroke-width="5" stroke-linecap="round" stroke-linejoin="round" stroke-miterlimit="10" x1="396.489" y1="226.154" x2="357.159" y2="226.154"/>
	</g>
</g>
<g id="pupilas">
	<g>
		<path fill="#231F20" d="M301.095,248.606c0,2.688,2.176,4.864,4.863,4.864l0,0c2.686,0,4.863-2.177,4.863-4.864v-3.461
			c0-2.688-2.178-4.865-4.863-4.865l0,0c-2.688,0-4.863,2.178-4.863,4.865V248.606z"/>
		<path fill="#231F20" d="M254.744,248.606c0,2.688,2.178,4.864,4.864,4.864l0,0c2.686,0,4.863-2.177,4.863-4.864v-3.461
			c0-2.688-2.178-4.865-4.863-4.865l0,0c-2.687,0-4.864,2.178-4.864,4.865V248.606z"/>
	</g>
</g>
<g id="Layer_12" display="none">
	
		<path display="inline" fill="#EDBED6" stroke="#231F20" stroke-width="4.5219" stroke-linecap="round" stroke-linejoin="round" stroke-miterlimit="10" d="
		M330.31,230.282v5.78c0,7.444-6.036,13.478-13.479,13.478l0,0c-7.443,0-13.479-6.033-13.479-13.478v-5.525"/>
	
		<path display="inline" fill="#EDBED6" stroke="#231F20" stroke-width="4.5219" stroke-linecap="round" stroke-linejoin="round" stroke-miterlimit="10" d="
		M261.31,230.282v5.78c0,7.444-6.036,13.478-13.479,13.478l0,0c-7.443,0-13.479-6.033-13.479-13.478v-5.525"/>
</g>
<g id="bacha">
	<g>
		
			<line fill="none" stroke="#929497" stroke-width="8.3776" stroke-linecap="round" stroke-linejoin="round" stroke-miterlimit="10" x1="21.395" y1="205.544" x2="21.395" y2="222.995"/>
		
			<line fill="none" stroke="#929497" stroke-width="8.3776" stroke-linecap="round" stroke-linejoin="round" stroke-miterlimit="10" x1="31.181" y1="210.073" x2="11.609" y2="210.073"/>
	</g>
	
		<path fill="#FFFFFF" stroke="#FFFFFF" stroke-width="17.3806" stroke-linecap="round" stroke-linejoin="round" stroke-miterlimit="10" d="
		M88.915,323.838c-0.42,31.976-29.781,57.784-65.957,57.784c-36.178,0-65.538-25.809-65.958-57.784H88.915z"/>
	<g>
		
			<line fill="#FFFFFF" stroke="#FFFFFF" stroke-width="30" stroke-linecap="round" stroke-linejoin="round" stroke-miterlimit="10" x1="2.134" y1="383.888" x2="2.134" y2="434.269"/>
		
			<line fill="#FFFFFF" stroke="#FFFFFF" stroke-width="25.1327" stroke-linecap="round" stroke-linejoin="round" stroke-miterlimit="10" x1="-14.933" y1="440.077" x2="19.448" y2="440.077"/>
	</g>
	<g>
		
			<line fill="none" stroke="#929497" stroke-width="8.3776" stroke-linecap="round" stroke-linejoin="round" stroke-miterlimit="10" x1="496.55" y1="283.269" x2="518.001" y2="283.269"/>
		
			<line fill="none" stroke="#929497" stroke-width="8.3776" stroke-linecap="round" stroke-linejoin="round" stroke-miterlimit="10" x1="501.079" y1="273.483" x2="501.079" y2="293.056"/>
	</g>
	<g>
		
			<line fill="none" stroke="#929497" stroke-width="20" stroke-linecap="round" stroke-linejoin="round" stroke-miterlimit="10" x1="34.497" y1="232.132" x2="-61.507" y2="232.132"/>
		
			<line fill="none" stroke="#929497" stroke-width="20" stroke-linecap="round" stroke-linejoin="round" stroke-miterlimit="10" x1="34.497" y1="255.629" x2="34.497" y2="232.132"/>
		
			<line fill="none" stroke="#929497" stroke-width="16.7551" stroke-linecap="round" stroke-linejoin="round" stroke-miterlimit="10" x1="45.795" y1="260.979" x2="23.198" y2="260.979"/>
	</g>
</g>
<g id="cositas">
</g>
</svg>
