<?xml version="1.0" encoding="utf-8"?><svg xmlns:xlink="http://www.w3.org/1999/xlink" id="tutorial11" image-rendering="auto" baseProfile="basic" version="1.1" x="0px" y="0px" width="800" height="450" xmlns="http://www.w3.org/2000/svg"><g id="Scene_1" overflow="visible"><g style="display:none;"><path fill="#BB2B82" d="M413.437,214.394Q413.437,197.217 401.304,185.083 389.17,172.95 371.994,172.95 354.817,172.95 342.683,185.083 330.55,197.217 330.55,214.394 330.55,231.57 342.683,243.704 354.817,255.837 371.994,255.837 389.17,255.837 401.304,243.704 413.437,231.57 413.437,214.394"/><path fill="#FFF" d="M391.771,214.367L363.85,230.484 363.85,230.557 363.887,230.557 391.808,214.403 391.808,214.33 363.887,198.213 363.813,198.25 363.85,199.968 363.85,198.25 391.771,214.367"/><path fill="#FFF" d="M363.85,230.484L391.771,214.367 363.85,198.25 363.85,199.968Q363.848,200.233 363.85,200.516 363.848,200.904 363.85,201.283 363.842,215.878 363.85,230.484"/><path fill="none" stroke="#FFF" stroke-width="5" stroke-linecap="round" stroke-linejoin="round" d="M363.85,200.516Q363.848,200.233 363.85,199.968M363.85,201.283Q363.848,200.904 363.85,200.516M363.85,230.484Q363.842,215.878 363.85,201.283"/><path fill="none" stroke="#FFF" stroke-width="5" stroke-linecap="round" stroke-linejoin="round" d="M391.771,214.367L363.85,230.484M363.85,199.968L363.85,198.25 391.771,214.367"/><animate attributeName="display" repeatCount="indefinite" dur="3.042s" keyTimes="0;0.452;0.466;1" values="none;inline;none;none"/></g><g style="display:none;"><path fill="#BB2B82" d="M413.437,214.394Q413.437,197.217 401.304,185.083 389.17,172.95 371.994,172.95 354.817,172.95 342.683,185.083 330.55,197.217 330.55,214.394 330.55,231.57 342.683,243.704 354.817,255.837 371.994,255.837 389.17,255.837 401.304,243.704 413.437,231.57 413.437,214.394"/><path fill="#FFF" d="M391.808,214.403L391.808,214.33 363.887,198.213 363.813,198.25 363.85,199.968 363.85,198.25 391.771,214.367 363.85,230.484 363.85,230.557 363.887,230.557 391.808,214.403"/><path fill="#FFF" d="M363.85,230.484L391.771,214.367 363.85,198.25 363.85,199.968Q363.848,200.233 363.85,200.516 363.848,200.904 363.85,201.283 363.842,215.878 363.85,230.484"/><path fill="none" stroke="#FFF" stroke-width="5" stroke-linecap="round" stroke-linejoin="round" d="M363.85,200.516Q363.848,200.233 363.85,199.968M363.85,201.283Q363.848,200.904 363.85,200.516M363.85,230.484Q363.842,215.878 363.85,201.283"/><path fill="none" stroke="#FFF" stroke-width="5" stroke-linecap="round" stroke-linejoin="round" d="M363.85,199.968L363.85,198.25 391.771,214.367 363.85,230.484"/><animate attributeName="display" repeatCount="indefinite" dur="3.042s" keyTimes="0;0.26;0.452;1" values="none;inline;none;none"/></g><g style="display:none;"><path fill="#EE5D80" d="M413.437,214.394Q413.437,197.217 401.304,185.083 389.17,172.95 371.994,172.95 354.817,172.95 342.683,185.083 330.55,197.217 330.55,214.394 330.55,231.57 342.683,243.704 354.817,255.837 371.994,255.837 389.17,255.837 401.304,243.704 413.437,231.57 413.437,214.394"/><path fill="#FFF" d="M391.808,214.403L391.808,214.33 363.887,198.213 363.813,198.25 363.85,199.968 363.85,198.25 391.771,214.367 363.85,230.484 363.85,230.557 363.887,230.557 391.808,214.403"/><path fill="#FFF" d="M363.85,230.484L391.771,214.367 363.85,198.25 363.85,199.968Q363.848,200.233 363.85,200.516 363.848,200.904 363.85,201.283 363.842,215.878 363.85,230.484"/><path fill="none" stroke="#FFF" stroke-width="5" stroke-linecap="round" stroke-linejoin="round" d="M363.85,200.516Q363.848,200.233 363.85,199.968M363.85,201.283Q363.848,200.904 363.85,200.516M363.85,230.484Q363.842,215.878 363.85,201.283"/><path fill="none" stroke="#FFF" stroke-width="5" stroke-linecap="round" stroke-linejoin="round" d="M363.85,199.968L363.85,198.25 391.771,214.367 363.85,230.484"/><animate attributeName="display" repeatCount="indefinite" dur="3.042s" keyTimes="0;0.247;0.26;1" values="none;inline;none;none"/></g><g><path fill="#EE5D80" d="M409.647,214.373Q409.647,198.718 398.588,187.659 387.529,176.6 371.873,176.6 356.218,176.6 345.159,187.659 334.1,198.718 334.1,214.373 334.1,230.029 345.159,241.088 356.218,252.147 371.873,252.147 387.529,252.147 398.588,241.088 409.647,230.029 409.647,214.373"/><path fill="#FFF" d="M389.882,214.423L389.882,214.356 364.433,199.667 364.367,199.7 364.4,201.266 364.4,199.7 389.849,214.39 364.4,229.079 364.4,229.146 364.433,229.146 389.882,214.423"/><path fill="#FFF" d="M364.4,229.079L389.849,214.39 364.4,199.7 364.4,201.266Q364.398,201.507 364.4,201.765 364.398,202.119 364.4,202.465 364.392,215.767 364.4,229.079"/><path fill="none" stroke="#FFF" stroke-width="5" stroke-linecap="round" stroke-linejoin="round" d="M364.4,201.765Q364.398,201.507 364.4,201.266M364.4,202.465Q364.398,202.119 364.4,201.765M364.4,229.079Q364.392,215.767 364.4,202.465"/><path fill="none" stroke="#FFF" stroke-width="5" stroke-linecap="round" stroke-linejoin="round" d="M364.4,201.266L364.4,199.7 389.849,214.39 364.4,229.079"/><animate attributeName="display" repeatCount="indefinite" dur="3.042s" keyTimes="0;0.247;0.466;1" values="inline;none;inline;inline"/></g><g style="display:none;"><path fill="none" stroke="#999" stroke-width="10" stroke-linecap="round" stroke-linejoin="round" d="M372.35,116.281L372.35,117.236"/><path fill="none" stroke="#999" stroke-width="10" stroke-linecap="round" stroke-linejoin="round" d="M430.632,135.729L429.603,136.758"/><path fill="none" stroke="#999" stroke-width="10" stroke-linecap="round" stroke-linejoin="round" d="M314.132,135.722L315.403,136.993"/><animate attributeName="display" repeatCount="indefinite" dur="3.042s" keyTimes="0;0.288;0.301;1" values="none;inline;none;none"/></g><g style="display:none;"><path fill="none" stroke="#999" stroke-width="10" stroke-linecap="round" stroke-linejoin="round" d="M372.35,118.733L372.35,129.406"/><path fill="none" stroke="#999" stroke-width="10" stroke-linecap="round" stroke-linejoin="round" d="M428.832,137.529L420.65,145.711"/><path fill="none" stroke="#999" stroke-width="10" stroke-linecap="round" stroke-linejoin="round" d="M315.729,137.319L323.383,144.973"/><animate attributeName="display" repeatCount="indefinite" dur="3.042s" keyTimes="0;0.274;0.288;1" values="none;inline;none;none"/></g><g style="display:none;"><path fill="none" stroke="#999" stroke-width="10" stroke-linecap="round" stroke-linejoin="round" d="M372.35,128.601L372.35,148.451"/><path fill="none" stroke="#999" stroke-width="10" stroke-linecap="round" stroke-linejoin="round" d="M419.885,146.476L405.849,160.512"/><path fill="none" stroke="#999" stroke-width="10" stroke-linecap="round" stroke-linejoin="round" d="M324.876,146.415L338.912,160.451"/><animate attributeName="display" repeatCount="indefinite" dur="3.042s" keyTimes="0;0.247;0.274;1" values="none;inline;none;none"/></g><g style="display:none;"><path fill="#F59120" d="M566.827,279.521Q563.877,278.915 560.749,278.908L530.886,278.908 530.886,255.052Q530.885,254.321 530.814,253.608 530.739,252.888 530.596,252.194 530.456,251.502 530.253,250.833 530.045,250.168 529.775,249.534 529.503,248.901 529.172,248.298 528.846,247.696 528.466,247.134 527.701,246.001 526.741,245.035 525.775,244.07 524.642,243.3 524.08,242.92 523.478,242.594 522.87,242.268 522.231,242.001 521.598,241.731 520.932,241.523 520.263,241.314 519.571,241.17 518.883,241.031 518.169,240.962 517.455,240.891 516.724,240.89 514.76,240.893 512.953,241.388 511.152,241.893 509.576,242.822 507.996,243.75 506.708,245.035 505.422,246.323 504.495,247.903 503.565,249.48 503.061,251.28 502.56,253.087 502.552,255.052L502.552,314.828 491.018,303.284Q489.977,302.246 488.795,301.466 488.207,301.082 487.589,300.76 486.971,300.435 486.332,300.178 485.693,299.918 485.033,299.72 484.373,299.526 483.703,299.398 483.038,299.268 482.363,299.201 481.682,299.137 481.002,299.139 480.321,299.137 479.641,299.201 478.965,299.268 478.3,299.398 477.63,299.526 476.97,299.72 476.311,299.918 475.672,300.178 475.033,300.435 474.414,300.76 473.797,301.082 473.209,301.466 472.027,302.246 470.985,303.284 469.602,304.677 468.679,306.308 467.758,307.936 467.297,309.706 466.839,311.479 466.84,313.301 466.839,315.122 467.297,316.896 467.758,318.666 468.679,320.294 469.602,321.924 470.985,323.317L514.127,366.458Q514.47,366.804 514.833,367.123 515.201,367.441 515.581,367.726 515.963,368.015 516.361,368.277 516.756,368.536 517.161,368.765 517.565,368.997 517.982,369.202 518.404,369.404 518.834,369.576 519.259,369.746 519.696,369.887 520.134,370.032 520.579,370.147L590.912,370.147 590.923,370.126 590.923,309.082Q590.916,305.954 590.31,303.004 589.702,300.053 588.554,297.341 587.401,294.625 585.769,292.208 584.134,289.795 582.08,287.74 580.031,285.691 577.623,284.062 575.205,282.43 572.49,281.277 569.777,280.129 566.827,279.521"/><animate attributeName="display" repeatCount="indefinite" dur="3.042s" keyTimes="0;0.603;0.616;1" values="none;inline;none;none"/></g><g style="display:none;"><path fill="#F59120" d="M550.927,276.421Q547.977,275.815 544.849,275.808L514.986,275.808 514.986,251.952Q514.985,251.221 514.914,250.508 514.839,249.788 514.696,249.094 514.556,248.402 514.353,247.733 514.145,247.068 513.875,246.434 513.603,245.801 513.272,245.198 512.946,244.596 512.566,244.034 511.801,242.901 510.841,241.935 509.875,240.97 508.742,240.2 508.18,239.82 507.578,239.494 506.97,239.168 506.331,238.901 505.698,238.631 505.032,238.423 504.363,238.214 503.671,238.07 502.983,237.931 502.269,237.862 501.555,237.791 500.824,237.79 498.86,237.793 497.053,238.288 495.252,238.793 493.676,239.722 492.096,240.65 490.808,241.935 489.522,243.223 488.595,244.803 487.665,246.38 487.161,248.18 486.66,249.987 486.652,251.952L486.652,311.728 475.118,300.184Q474.077,299.146 472.895,298.366 472.307,297.982 471.689,297.66 471.071,297.335 470.432,297.078 469.793,296.818 469.133,296.62 468.473,296.426 467.803,296.298 467.138,296.168 466.463,296.101 465.782,296.037 465.102,296.039 464.421,296.037 463.741,296.101 463.065,296.168 462.4,296.298 461.73,296.426 461.07,296.62 460.411,296.818 459.772,297.078 459.133,297.335 458.514,297.66 457.897,297.982 457.309,298.366 456.127,299.146 455.085,300.184 453.702,301.577 452.779,303.208 451.858,304.836 451.397,306.606 450.939,308.379 450.94,310.201 450.939,312.022 451.397,313.796 451.858,315.566 452.779,317.194 453.702,318.824 455.085,320.217L498.227,363.358Q498.57,363.704 498.933,364.023 499.301,364.341 499.681,364.626 500.063,364.915 500.461,365.177 500.856,365.436 501.261,365.665 501.665,365.897 502.082,366.102 502.504,366.304 502.934,366.476 503.359,366.646 503.796,366.787 504.234,366.932 504.679,367.047L575.012,367.047 575.023,367.026 575.023,305.982Q575.016,302.854 574.41,299.904 573.802,296.953 572.654,294.241 571.501,291.525 569.869,289.108 568.234,286.695 566.18,284.64 564.131,282.591 561.723,280.962 559.305,279.33 556.59,278.177 553.877,277.029 550.927,276.421"/><animate attributeName="display" repeatCount="indefinite" dur="3.042s" keyTimes="0;0.589;0.603;1" values="none;inline;none;none"/></g><g style="display:none;"><path fill="#F59120" d="M535.077,273.271Q532.127,272.665 528.999,272.658L499.136,272.658 499.136,248.802Q499.135,248.071 499.064,247.358 498.989,246.638 498.846,245.944 498.706,245.252 498.503,244.583 498.295,243.918 498.025,243.284 497.753,242.651 497.422,242.048 497.096,241.446 496.716,240.884 495.951,239.751 494.991,238.785 494.025,237.82 492.892,237.05 492.33,236.67 491.728,236.344 491.12,236.018 490.481,235.751 489.848,235.481 489.182,235.273 488.513,235.064 487.821,234.92 487.133,234.781 486.419,234.712 485.705,234.641 484.974,234.64 483.01,234.643 481.203,235.138 479.402,235.643 477.826,236.572 476.246,237.5 474.958,238.785 473.672,240.073 472.745,241.653 471.815,243.23 471.311,245.03 470.81,246.837 470.802,248.802L470.802,308.578 459.268,297.034Q458.227,295.996 457.045,295.216 456.457,294.832 455.839,294.51 455.221,294.185 454.582,293.928 453.943,293.668 453.283,293.47 452.623,293.276 451.953,293.148 451.288,293.018 450.613,292.951 449.932,292.887 449.252,292.889 448.571,292.887 447.891,292.951 447.215,293.018 446.55,293.148 445.88,293.276 445.22,293.47 444.561,293.668 443.922,293.928 443.283,294.185 442.664,294.51 442.047,294.832 441.459,295.216 440.277,295.996 439.235,297.034 437.852,298.427 436.929,300.058 436.008,301.686 435.547,303.456 435.089,305.229 435.09,307.051 435.089,308.872 435.547,310.646 436.008,312.416 436.929,314.044 437.852,315.674 439.235,317.067L482.377,360.208Q482.72,360.554 483.083,360.873 483.451,361.191 483.831,361.476 484.213,361.765 484.611,362.027 485.006,362.286 485.411,362.515 485.815,362.747 486.232,362.952 486.654,363.154 487.084,363.326 487.509,363.496 487.946,363.637 488.384,363.782 488.829,363.897L559.162,363.897 559.173,363.876 559.173,302.832Q559.166,299.704 558.56,296.754 557.952,293.803 556.804,291.091 555.651,288.375 554.019,285.958 552.384,283.545 550.33,281.49 548.281,279.441 545.873,277.812 543.455,276.18 540.74,275.027 538.027,273.879 535.077,273.271"/><animate attributeName="display" repeatCount="indefinite" dur="3.042s" keyTimes="0;0.575;0.589;1" values="none;inline;none;none"/></g><g style="display:none;"><path fill="#F59120" d="M519.177,270.171Q516.227,269.565 513.099,269.558L483.236,269.558 483.236,245.702Q483.235,244.971 483.164,244.258 483.089,243.538 482.946,242.844 482.806,242.152 482.603,241.483 482.395,240.818 482.125,240.184 481.853,239.551 481.522,238.948 481.196,238.346 480.816,237.784 480.051,236.651 479.091,235.685 478.125,234.72 476.992,233.95 476.43,233.57 475.828,233.244 475.22,232.918 474.581,232.651 473.948,232.381 473.282,232.173 472.613,231.964 471.921,231.82 471.233,231.681 470.519,231.612 469.805,231.541 469.074,231.54 467.11,231.543 465.303,232.038 463.502,232.543 461.926,233.472 460.346,234.4 459.058,235.685 457.772,236.973 456.845,238.553 455.915,240.13 455.411,241.93 454.91,243.737 454.902,245.702L454.902,305.478 443.368,293.934Q442.327,292.896 441.145,292.116 440.557,291.732 439.939,291.41 439.321,291.085 438.682,290.828 438.043,290.568 437.383,290.37 436.723,290.176 436.053,290.048 435.388,289.918 434.713,289.851 434.032,289.787 433.352,289.789 432.671,289.787 431.991,289.851 431.315,289.918 430.65,290.048 429.98,290.176 429.32,290.37 428.661,290.568 428.022,290.828 427.383,291.085 426.764,291.41 426.147,291.732 425.559,292.116 424.377,292.896 423.335,293.934 421.952,295.327 421.029,296.958 420.108,298.586 419.647,300.356 419.189,302.129 419.19,303.951 419.189,305.772 419.647,307.546 420.108,309.316 421.029,310.944 421.952,312.574 423.335,313.967L466.477,357.108Q466.82,357.454 467.183,357.773 467.551,358.091 467.931,358.376 468.313,358.665 468.711,358.927 469.106,359.186 469.511,359.415 469.915,359.647 470.332,359.852 470.754,360.054 471.184,360.226 471.609,360.396 472.046,360.537 472.484,360.682 472.929,360.797L543.262,360.797 543.273,360.776 543.273,299.732Q543.266,296.604 542.66,293.654 542.052,290.703 540.904,287.991 539.751,285.275 538.119,282.858 536.484,280.445 534.43,278.39 532.381,276.341 529.973,274.712 527.555,273.08 524.84,271.927 522.127,270.779 519.177,270.171"/><animate attributeName="display" repeatCount="indefinite" dur="3.042s" keyTimes="0;0.562;0.575;1" values="none;inline;none;none"/></g><g style="display:none;"><path fill="#F59120" d="M503.277,267.021Q500.327,266.415 497.199,266.408L467.336,266.408 467.336,242.552Q467.335,241.821 467.264,241.108 467.189,240.388 467.046,239.694 466.906,239.002 466.703,238.333 466.495,237.668 466.225,237.034 465.953,236.401 465.622,235.798 465.296,235.196 464.916,234.634 464.151,233.501 463.191,232.535 462.225,231.57 461.092,230.8 460.53,230.42 459.928,230.094 459.32,229.768 458.681,229.501 458.048,229.231 457.382,229.023 456.713,228.814 456.021,228.67 455.333,228.531 454.619,228.462 453.905,228.391 453.174,228.39 451.21,228.393 449.403,228.888 447.602,229.393 446.026,230.322 444.446,231.25 443.158,232.535 441.872,233.823 440.945,235.403 440.015,236.98 439.511,238.78 439.01,240.587 439.002,242.552L439.002,302.328 427.468,290.784Q426.427,289.746 425.245,288.966 424.657,288.582 424.039,288.26 423.421,287.935 422.782,287.678 422.143,287.418 421.483,287.22 420.823,287.026 420.153,286.898 419.488,286.768 418.813,286.701 418.132,286.637 417.452,286.639 416.771,286.637 416.091,286.701 415.415,286.768 414.75,286.898 414.08,287.026 413.42,287.22 412.761,287.418 412.122,287.678 411.483,287.935 410.864,288.26 410.247,288.582 409.659,288.966 408.477,289.746 407.435,290.784 406.052,292.177 405.129,293.808 404.208,295.436 403.747,297.206 403.289,298.979 403.29,300.801 403.289,302.622 403.747,304.396 404.208,306.166 405.129,307.794 406.052,309.424 407.435,310.817L450.577,353.958Q450.92,354.304 451.283,354.623 451.651,354.941 452.031,355.226 452.413,355.515 452.811,355.777 453.206,356.036 453.611,356.265 454.015,356.497 454.432,356.702 454.854,356.904 455.284,357.076 455.709,357.246 456.146,357.387 456.584,357.532 457.029,357.647L527.362,357.647 527.373,357.626 527.373,296.582Q527.366,293.454 526.76,290.504 526.152,287.553 525.004,284.841 523.851,282.125 522.219,279.708 520.584,277.295 518.53,275.24 516.481,273.191 514.073,271.562 511.655,269.93 508.94,268.777 506.227,267.629 503.277,267.021"/><animate attributeName="display" repeatCount="indefinite" dur="3.042s" keyTimes="0;0.548;0.562;1" values="none;inline;none;none"/></g><g style="display:none;"><path fill="#F59120" d="M487.377,263.871Q484.427,263.265 481.299,263.258L451.436,263.258 451.436,239.402Q451.435,238.671 451.364,237.958 451.289,237.238 451.146,236.544 451.006,235.852 450.803,235.183 450.595,234.518 450.325,233.884 450.053,233.251 449.722,232.648 449.396,232.046 449.016,231.484 448.251,230.351 447.291,229.385 446.325,228.42 445.192,227.65 444.63,227.27 444.028,226.944 443.42,226.618 442.781,226.351 442.148,226.081 441.482,225.873 440.813,225.664 440.121,225.52 439.433,225.381 438.719,225.312 438.005,225.241 437.274,225.24 435.31,225.243 433.503,225.738 431.702,226.243 430.126,227.172 428.546,228.1 427.258,229.385 425.972,230.673 425.045,232.253 424.115,233.83 423.611,235.63 423.11,237.437 423.102,239.402L423.102,299.178 411.568,287.634Q410.527,286.596 409.345,285.816 408.757,285.432 408.139,285.11 407.521,284.785 406.882,284.528 406.243,284.268 405.583,284.07 404.923,283.876 404.253,283.748 403.588,283.618 402.913,283.551 402.232,283.487 401.552,283.489 400.871,283.487 400.191,283.551 399.515,283.618 398.85,283.748 398.18,283.876 397.52,284.07 396.861,284.268 396.222,284.528 395.583,284.785 394.964,285.11 394.347,285.432 393.759,285.816 392.577,286.596 391.535,287.634 390.152,289.027 389.229,290.658 388.308,292.286 387.847,294.056 387.389,295.829 387.39,297.651 387.389,299.472 387.847,301.246 388.308,303.016 389.229,304.644 390.152,306.274 391.535,307.667L434.677,350.808Q435.02,351.154 435.383,351.473 435.751,351.791 436.131,352.076 436.513,352.365 436.911,352.627 437.306,352.886 437.711,353.115 438.115,353.347 438.532,353.552 438.954,353.754 439.384,353.926 439.809,354.096 440.246,354.237 440.684,354.382 441.129,354.497L511.462,354.497 511.473,354.476 511.473,293.432Q511.466,290.304 510.86,287.354 510.252,284.403 509.104,281.691 507.951,278.975 506.319,276.558 504.684,274.145 502.63,272.09 500.581,270.041 498.173,268.412 495.755,266.78 493.04,265.627 490.327,264.479 487.377,263.871"/><animate attributeName="display" repeatCount="indefinite" dur="3.042s" keyTimes="0;0.534;0.548;1" values="none;inline;none;none"/></g><g style="display:none;"><path fill="#F59120" d="M471.477,260.771Q468.527,260.165 465.399,260.158L435.536,260.158 435.536,236.302Q435.535,235.571 435.464,234.858 435.389,234.138 435.246,233.444 435.106,232.752 434.903,232.083 434.695,231.418 434.425,230.784 434.153,230.151 433.822,229.548 433.496,228.946 433.116,228.384 432.351,227.251 431.391,226.285 430.425,225.32 429.292,224.55 428.73,224.17 428.128,223.844 427.52,223.518 426.881,223.251 426.248,222.981 425.582,222.773 424.913,222.564 424.221,222.42 423.533,222.281 422.819,222.212 422.105,222.141 421.374,222.14 419.41,222.143 417.603,222.638 415.802,223.143 414.226,224.072 412.646,225 411.358,226.285 410.072,227.573 409.145,229.153 408.215,230.73 407.711,232.53 407.21,234.337 407.202,236.302L407.202,296.078 395.668,284.534Q394.627,283.496 393.445,282.716 392.857,282.332 392.239,282.01 391.621,281.685 390.982,281.428 390.343,281.168 389.683,280.97 389.023,280.776 388.353,280.648 387.688,280.518 387.013,280.451 386.332,280.387 385.652,280.389 384.971,280.387 384.291,280.451 383.615,280.518 382.95,280.648 382.28,280.776 381.62,280.97 380.961,281.168 380.322,281.428 379.683,281.685 379.064,282.01 378.447,282.332 377.859,282.716 376.677,283.496 375.635,284.534 374.252,285.927 373.329,287.558 372.408,289.186 371.947,290.956 371.489,292.729 371.49,294.551 371.489,296.372 371.947,298.146 372.408,299.916 373.329,301.544 374.252,303.174 375.635,304.567L418.777,347.708Q419.12,348.054 419.483,348.373 419.851,348.691 420.231,348.976 420.613,349.265 421.011,349.527 421.406,349.786 421.811,350.015 422.215,350.247 422.632,350.452 423.054,350.654 423.484,350.826 423.909,350.996 424.346,351.137 424.784,351.282 425.229,351.397L495.562,351.397 495.573,351.376 495.573,290.332Q495.566,287.204 494.96,284.254 494.352,281.303 493.204,278.591 492.051,275.875 490.419,273.458 488.784,271.045 486.73,268.99 484.681,266.941 482.273,265.312 479.855,263.68 477.14,262.527 474.427,261.379 471.477,260.771"/><animate attributeName="display" repeatCount="indefinite" dur="3.042s" keyTimes="0;0.521;0.534;1" values="none;inline;none;none"/></g><g style="display:none;"><path fill="#F59120" d="M455.627,257.621Q452.677,257.015 449.549,257.008L419.686,257.008 419.686,233.152Q419.685,232.421 419.614,231.708 419.539,230.988 419.396,230.294 419.256,229.602 419.053,228.933 418.845,228.268 418.575,227.634 418.303,227.001 417.972,226.398 417.646,225.796 417.266,225.234 416.501,224.101 415.541,223.135 414.575,222.17 413.442,221.4 412.88,221.02 412.278,220.694 411.67,220.368 411.031,220.101 410.398,219.831 409.732,219.623 409.063,219.414 408.371,219.27 407.683,219.131 406.969,219.062 406.255,218.991 405.524,218.99 403.56,218.993 401.753,219.488 399.952,219.993 398.376,220.922 396.796,221.85 395.508,223.135 394.222,224.423 393.295,226.003 392.365,227.58 391.861,229.38 391.36,231.187 391.352,233.152L391.352,292.928 379.818,281.384Q378.777,280.346 377.595,279.566 377.007,279.182 376.389,278.86 375.771,278.535 375.132,278.278 374.493,278.018 373.833,277.82 373.173,277.626 372.503,277.498 371.838,277.368 371.163,277.301 370.482,277.237 369.802,277.239 369.121,277.237 368.441,277.301 367.765,277.368 367.1,277.498 366.43,277.626 365.77,277.82 365.111,278.018 364.472,278.278 363.833,278.535 363.214,278.86 362.597,279.182 362.009,279.566 360.827,280.346 359.785,281.384 358.402,282.777 357.479,284.408 356.558,286.036 356.097,287.806 355.639,289.579 355.64,291.401 355.639,293.222 356.097,294.996 356.558,296.766 357.479,298.394 358.402,300.024 359.785,301.417L402.927,344.558Q403.27,344.904 403.633,345.223 404.001,345.541 404.381,345.826 404.763,346.115 405.161,346.377 405.556,346.636 405.961,346.865 406.365,347.097 406.782,347.302 407.204,347.504 407.634,347.676 408.059,347.846 408.496,347.987 408.934,348.132 409.379,348.247L479.712,348.247 479.723,348.226 479.723,287.182Q479.716,284.054 479.11,281.104 478.502,278.153 477.354,275.441 476.201,272.725 474.569,270.308 472.934,267.895 470.88,265.84 468.831,263.791 466.423,262.162 464.005,260.53 461.29,259.377 458.577,258.229 455.627,257.621"/><animate attributeName="display" repeatCount="indefinite" dur="3.042s" keyTimes="0;0.507;0.521;1" values="none;inline;none;none"/></g><g style="display:none;"><path fill="#F59120" d="M439.727,254.521Q436.777,253.915 433.649,253.908L403.786,253.908 403.786,230.052Q403.785,229.321 403.714,228.608 403.639,227.888 403.496,227.194 403.356,226.502 403.153,225.833 402.945,225.168 402.675,224.534 402.403,223.901 402.072,223.298 401.746,222.696 401.366,222.134 400.601,221.001 399.641,220.035 398.675,219.07 397.542,218.3 396.98,217.92 396.378,217.594 395.77,217.268 395.131,217.001 394.498,216.731 393.832,216.523 393.163,216.314 392.471,216.17 391.783,216.031 391.069,215.962 390.355,215.891 389.624,215.89 387.66,215.893 385.853,216.388 384.052,216.893 382.476,217.822 380.896,218.75 379.608,220.035 378.322,221.323 377.395,222.903 376.465,224.48 375.961,226.28 375.46,228.087 375.452,230.052L375.452,289.828 363.918,278.284Q362.877,277.246 361.695,276.466 361.107,276.082 360.489,275.76 359.871,275.435 359.232,275.178 358.593,274.918 357.933,274.72 357.273,274.526 356.603,274.398 355.938,274.268 355.263,274.201 354.582,274.137 353.902,274.139 353.221,274.137 352.541,274.201 351.865,274.268 351.2,274.398 350.53,274.526 349.87,274.72 349.211,274.918 348.572,275.178 347.933,275.435 347.314,275.76 346.697,276.082 346.109,276.466 344.927,277.246 343.885,278.284 342.502,279.677 341.579,281.308 340.658,282.936 340.197,284.706 339.739,286.479 339.74,288.301 339.739,290.122 340.197,291.896 340.658,293.666 341.579,295.294 342.502,296.924 343.885,298.317L387.027,341.458Q387.37,341.804 387.733,342.123 388.101,342.441 388.481,342.726 388.863,343.015 389.261,343.277 389.656,343.536 390.061,343.765 390.465,343.997 390.882,344.202 391.304,344.404 391.734,344.576 392.159,344.746 392.596,344.887 393.034,345.032 393.479,345.147L463.812,345.147 463.823,345.126 463.823,284.082Q463.816,280.954 463.21,278.004 462.602,275.053 461.454,272.341 460.301,269.625 458.669,267.208 457.034,264.795 454.98,262.74 452.931,260.691 450.523,259.062 448.105,257.43 445.39,256.277 442.677,255.129 439.727,254.521"/><animate attributeName="display" repeatCount="indefinite" dur="3.042s" keyTimes="0;0.493;0.507;1" values="none;inline;none;none"/></g><g style="display:none;"><path fill="#F59120" d="M422.348,252.331Q419.508,251.747 416.496,251.741L387.748,251.741 387.748,228.774Q387.747,228.071 387.678,227.384 387.606,226.691 387.468,226.023 387.334,225.357 387.138,224.713 386.937,224.072 386.678,223.462 386.416,222.852 386.097,222.272 385.783,221.693 385.417,221.152 384.681,220.06 383.757,219.131 382.827,218.201 381.736,217.461 381.195,217.095 380.616,216.78 380.03,216.467 379.415,216.21 378.806,215.95 378.165,215.75 377.521,215.549 376.855,215.41 376.192,215.276 375.504,215.21 374.817,215.141 374.114,215.14 372.223,215.143 370.483,215.62 368.75,216.106 367.232,217.001 365.712,217.893 364.471,219.131 363.233,220.371 362.341,221.892 361.446,223.41 360.96,225.143 360.478,226.883 360.47,228.774L360.47,286.321 349.367,275.207Q348.364,274.208 347.226,273.457 346.66,273.087 346.066,272.777 345.471,272.465 344.855,272.217 344.24,271.966 343.605,271.776 342.97,271.589 342.325,271.466 341.684,271.341 341.034,271.276 340.379,271.215 339.724,271.216 339.069,271.215 338.414,271.276 337.764,271.341 337.123,271.466 336.478,271.589 335.843,271.776 335.208,271.966 334.592,272.217 333.978,272.465 333.382,272.777 332.788,273.087 332.222,273.457 331.084,274.208 330.081,275.207 328.749,276.548 327.861,278.118 326.974,279.685 326.53,281.389 326.089,283.097 326.09,284.85 326.089,286.603 326.53,288.311 326.974,290.015 327.861,291.582 328.749,293.152 330.081,294.493L371.613,336.025Q371.944,336.358 372.293,336.665 372.647,336.971 373.014,337.245 373.381,337.523 373.764,337.776 374.144,338.025 374.534,338.246 374.923,338.469 375.324,338.666 375.731,338.861 376.145,339.026 376.554,339.189 376.975,339.326 377.396,339.465 377.825,339.576L445.535,339.576 445.545,339.556 445.545,280.789Q445.538,277.778 444.954,274.937 444.369,272.097 443.264,269.486 442.154,266.871 440.583,264.544 439.009,262.221 437.032,260.243 435.059,258.271 432.741,256.702 430.414,255.131 427.799,254.021 425.188,252.916 422.348,252.331"/><animate attributeName="display" repeatCount="indefinite" dur="3.042s" keyTimes="0;0.466;0.479;1" values="none;inline;none;none"/></g><g style="display:none;"><path fill="#F59120" d="M420.965,253.289Q418.235,252.727 415.34,252.721L387.707,252.721 387.707,230.646Q387.706,229.97 387.64,229.309 387.571,228.643 387.438,228.001 387.309,227.361 387.12,226.742 386.928,226.126 386.678,225.54 386.426,224.954 386.12,224.396 385.818,223.839 385.467,223.319 384.759,222.27 383.871,221.377 382.977,220.483 381.928,219.771 381.408,219.419 380.851,219.117 380.289,218.816 379.698,218.569 379.112,218.319 378.496,218.127 377.877,217.933 377.236,217.8 376.599,217.671 375.938,217.608 375.277,217.541 374.602,217.54 372.784,217.543 371.112,218.002 369.445,218.469 367.987,219.329 366.525,220.187 365.333,221.377 364.143,222.569 363.285,224.03 362.425,225.489 361.958,227.155 361.495,228.828 361.487,230.646L361.487,285.96 350.814,275.278Q349.85,274.317 348.757,273.596 348.213,273.24 347.641,272.942 347.069,272.642 346.478,272.403 345.886,272.163 345.276,271.98 344.665,271.801 344.045,271.682 343.429,271.561 342.805,271.499 342.175,271.44 341.546,271.442 340.916,271.44 340.286,271.499 339.661,271.561 339.046,271.682 338.426,271.801 337.815,271.98 337.205,272.163 336.613,272.403 336.022,272.642 335.45,272.942 334.878,273.24 334.334,273.596 333.241,274.317 332.277,275.278 330.997,276.567 330.142,278.076 329.29,279.582 328.863,281.22 328.44,282.861 328.44,284.547 328.44,286.232 328.863,287.874 329.29,289.512 330.142,291.018 330.997,292.527 332.277,293.816L372.198,333.737Q372.516,334.057 372.852,334.352 373.192,334.646 373.544,334.91 373.897,335.177 374.265,335.42 374.631,335.66 375.006,335.872 375.379,336.086 375.765,336.275 376.156,336.463 376.554,336.621 376.948,336.779 377.352,336.91 377.757,337.044 378.169,337.15L443.252,337.15 443.262,337.131 443.262,280.643Q443.256,277.749 442.695,275.019 442.132,272.288 441.07,269.778 440.003,267.265 438.493,265.029 436.98,262.795 435.08,260.894 433.183,258.998 430.955,257.49 428.718,255.98 426.205,254.914 423.695,253.851 420.965,253.289"/><animate attributeName="display" repeatCount="indefinite" dur="3.042s" keyTimes="0;0.26;0.466;1" values="none;inline;none;none"/></g><g style="display:none;"><path fill="#F59120" d="M422.398,252.331Q419.558,251.747 416.546,251.741L387.798,251.741 387.798,228.774Q387.797,228.071 387.728,227.384 387.656,226.691 387.518,226.023 387.384,225.357 387.188,224.713 386.987,224.072 386.728,223.462 386.466,222.852 386.147,222.272 385.833,221.693 385.467,221.152 384.731,220.06 383.807,219.131 382.877,218.201 381.786,217.461 381.245,217.095 380.666,216.78 380.08,216.467 379.465,216.21 378.856,215.95 378.215,215.75 377.571,215.549 376.905,215.41 376.242,215.276 375.554,215.21 374.867,215.141 374.164,215.14 372.273,215.143 370.533,215.62 368.8,216.106 367.282,217.001 365.762,217.893 364.521,219.131 363.283,220.371 362.391,221.892 361.496,223.41 361.01,225.143 360.528,226.883 360.52,228.774L360.52,286.321 349.417,275.207Q348.414,274.208 347.276,273.457 346.71,273.087 346.116,272.777 345.521,272.465 344.905,272.217 344.29,271.966 343.655,271.776 343.02,271.589 342.375,271.466 341.734,271.341 341.084,271.276 340.429,271.215 339.774,271.216 339.119,271.215 338.464,271.276 337.814,271.341 337.173,271.466 336.528,271.589 335.893,271.776 335.258,271.966 334.642,272.217 334.028,272.465 333.432,272.777 332.838,273.087 332.272,273.457 331.134,274.208 330.131,275.207 328.799,276.548 327.911,278.118 327.024,279.685 326.58,281.389 326.139,283.097 326.14,284.85 326.139,286.603 326.58,288.311 327.024,290.015 327.911,291.582 328.799,293.152 330.131,294.493L371.663,336.025Q371.994,336.358 372.343,336.665 372.697,336.971 373.064,337.245 373.431,337.523 373.814,337.776 374.194,338.025 374.584,338.246 374.973,338.469 375.374,338.666 375.781,338.861 376.195,339.026 376.604,339.189 377.025,339.326 377.446,339.465 377.875,339.576L445.585,339.576 445.595,339.556 445.595,280.789Q445.588,277.778 445.004,274.937 444.419,272.097 443.314,269.486 442.204,266.871 440.633,264.544 439.059,262.221 437.082,260.243 435.109,258.271 432.791,256.702 430.464,255.131 427.849,254.021 425.238,252.916 422.398,252.331"/><animate attributeName="display" repeatCount="indefinite" dur="3.042s" keyTimes="0;0.247;0.26;1" values="none;inline;none;none"/></g><g style="display:none;"><path fill="#F59120" d="M423.827,251.371Q420.877,250.765 417.749,250.758L387.886,250.758 387.886,226.902Q387.885,226.171 387.814,225.458 387.739,224.738 387.596,224.044 387.456,223.352 387.253,222.683 387.045,222.018 386.775,221.384 386.503,220.751 386.172,220.148 385.846,219.546 385.466,218.984 384.701,217.851 383.741,216.885 382.775,215.92 381.642,215.15 381.08,214.77 380.478,214.444 379.87,214.118 379.231,213.851 378.598,213.581 377.932,213.373 377.263,213.164 376.571,213.02 375.883,212.881 375.169,212.812 374.455,212.741 373.724,212.74 371.76,212.743 369.953,213.238 368.152,213.743 366.576,214.672 364.996,215.6 363.708,216.885 362.422,218.173 361.495,219.753 360.565,221.33 360.061,223.13 359.56,224.937 359.552,226.902L359.552,286.678 348.018,275.134Q346.977,274.096 345.795,273.316 345.207,272.932 344.589,272.61 343.971,272.285 343.332,272.028 342.693,271.768 342.033,271.57 341.373,271.376 340.703,271.248 340.038,271.118 339.363,271.051 338.682,270.987 338.002,270.989 337.321,270.987 336.641,271.051 335.965,271.118 335.3,271.248 334.63,271.376 333.97,271.57 333.311,271.768 332.672,272.028 332.033,272.285 331.414,272.61 330.797,272.932 330.209,273.316 329.027,274.096 327.985,275.134 326.602,276.527 325.679,278.158 324.758,279.786 324.297,281.556 323.839,283.329 323.84,285.151 323.839,286.972 324.297,288.746 324.758,290.516 325.679,292.144 326.602,293.774 327.985,295.167L371.127,338.308Q371.47,338.654 371.833,338.973 372.201,339.291 372.581,339.576 372.963,339.865 373.361,340.127 373.756,340.386 374.161,340.615 374.565,340.847 374.982,341.052 375.404,341.254 375.834,341.426 376.259,341.596 376.696,341.737 377.134,341.882 377.579,341.997L447.912,341.997 447.923,341.976 447.923,280.932Q447.916,277.804 447.31,274.854 446.702,271.903 445.554,269.191 444.401,266.475 442.769,264.058 441.134,261.645 439.08,259.59 437.031,257.541 434.623,255.912 432.205,254.28 429.49,253.127 426.777,251.979 423.827,251.371"/><animate attributeName="display" repeatCount="indefinite" dur="3.042s" keyTimes="0;0.233;0.247;0.479;0.493;1" values="none;inline;none;inline;none;none"/></g><g style="display:none;"><path fill="#F59120" d="M439.777,254.471Q436.827,253.865 433.699,253.858L403.836,253.858 403.836,230.002Q403.835,229.271 403.764,228.558 403.689,227.838 403.546,227.144 403.406,226.452 403.203,225.783 402.995,225.118 402.725,224.484 402.453,223.851 402.122,223.248 401.796,222.646 401.416,222.084 400.651,220.951 399.691,219.985 398.725,219.02 397.592,218.25 397.03,217.87 396.428,217.544 395.82,217.218 395.181,216.951 394.548,216.681 393.882,216.473 393.213,216.264 392.521,216.12 391.833,215.981 391.119,215.912 390.405,215.841 389.674,215.84 387.71,215.843 385.903,216.338 384.102,216.843 382.526,217.772 380.946,218.7 379.658,219.985 378.372,221.273 377.445,222.853 376.515,224.43 376.011,226.23 375.51,228.037 375.502,230.002L375.502,289.778 363.968,278.234Q362.927,277.196 361.745,276.416 361.157,276.032 360.539,275.71 359.921,275.385 359.282,275.128 358.643,274.868 357.983,274.67 357.323,274.476 356.653,274.348 355.988,274.218 355.313,274.151 354.632,274.087 353.952,274.089 353.271,274.087 352.591,274.151 351.915,274.218 351.25,274.348 350.58,274.476 349.92,274.67 349.261,274.868 348.622,275.128 347.983,275.385 347.364,275.71 346.747,276.032 346.159,276.416 344.977,277.196 343.935,278.234 342.552,279.627 341.629,281.258 340.708,282.886 340.247,284.656 339.789,286.429 339.79,288.251 339.789,290.072 340.247,291.846 340.708,293.616 341.629,295.244 342.552,296.874 343.935,298.267L387.077,341.408Q387.42,341.754 387.783,342.073 388.151,342.391 388.531,342.676 388.913,342.965 389.311,343.227 389.706,343.486 390.111,343.715 390.515,343.947 390.932,344.152 391.354,344.354 391.784,344.526 392.209,344.696 392.646,344.837 393.084,344.982 393.529,345.097L463.862,345.097 463.873,345.076 463.873,284.032Q463.866,280.904 463.26,277.954 462.652,275.003 461.504,272.291 460.351,269.575 458.719,267.158 457.084,264.745 455.03,262.69 452.981,260.641 450.573,259.012 448.155,257.38 445.44,256.227 442.727,255.079 439.777,254.471"/><animate attributeName="display" repeatCount="indefinite" dur="3.042s" keyTimes="0;0.219;0.233;1" values="none;inline;none;none"/></g><g style="display:none;"><path fill="#F59120" d="M455.677,257.571Q452.727,256.965 449.599,256.958L419.736,256.958 419.736,233.102Q419.735,232.371 419.664,231.658 419.589,230.938 419.446,230.244 419.306,229.552 419.103,228.883 418.895,228.218 418.625,227.584 418.353,226.951 418.022,226.348 417.696,225.746 417.316,225.184 416.551,224.051 415.591,223.085 414.625,222.12 413.492,221.35 412.93,220.97 412.328,220.644 411.72,220.318 411.081,220.051 410.448,219.781 409.782,219.573 409.113,219.364 408.421,219.22 407.733,219.081 407.019,219.012 406.305,218.941 405.574,218.94 403.61,218.943 401.803,219.438 400.002,219.943 398.426,220.872 396.846,221.8 395.558,223.085 394.272,224.373 393.345,225.953 392.415,227.53 391.911,229.33 391.41,231.137 391.402,233.102L391.402,292.878 379.868,281.334Q378.827,280.296 377.645,279.516 377.057,279.132 376.439,278.81 375.821,278.485 375.182,278.228 374.543,277.968 373.883,277.77 373.223,277.576 372.553,277.448 371.888,277.318 371.213,277.251 370.532,277.187 369.852,277.189 369.171,277.187 368.491,277.251 367.815,277.318 367.15,277.448 366.48,277.576 365.82,277.77 365.161,277.968 364.522,278.228 363.883,278.485 363.264,278.81 362.647,279.132 362.059,279.516 360.877,280.296 359.835,281.334 358.452,282.727 357.529,284.358 356.608,285.986 356.147,287.756 355.689,289.529 355.69,291.351 355.689,293.172 356.147,294.946 356.608,296.716 357.529,298.344 358.452,299.974 359.835,301.367L402.977,344.508Q403.32,344.854 403.683,345.173 404.051,345.491 404.431,345.776 404.813,346.065 405.211,346.327 405.606,346.586 406.011,346.815 406.415,347.047 406.832,347.252 407.254,347.454 407.684,347.626 408.109,347.796 408.546,347.937 408.984,348.082 409.429,348.197L479.762,348.197 479.773,348.176 479.773,287.132Q479.766,284.004 479.16,281.054 478.552,278.103 477.404,275.391 476.251,272.675 474.619,270.258 472.984,267.845 470.93,265.79 468.881,263.741 466.473,262.112 464.055,260.48 461.34,259.327 458.627,258.179 455.677,257.571"/><animate attributeName="display" repeatCount="indefinite" dur="3.042s" keyTimes="0;0.205;0.219;1" values="none;inline;none;none"/></g><g style="display:none;"><path fill="#F59120" d="M471.527,260.721Q468.577,260.115 465.449,260.108L435.586,260.108 435.586,236.252Q435.585,235.521 435.514,234.808 435.439,234.088 435.296,233.394 435.156,232.702 434.953,232.033 434.745,231.368 434.475,230.734 434.203,230.101 433.872,229.498 433.546,228.896 433.166,228.334 432.401,227.201 431.441,226.235 430.475,225.27 429.342,224.5 428.78,224.12 428.178,223.794 427.57,223.468 426.931,223.201 426.298,222.931 425.632,222.723 424.963,222.514 424.271,222.37 423.583,222.231 422.869,222.162 422.155,222.091 421.424,222.09 419.46,222.093 417.653,222.588 415.852,223.093 414.276,224.022 412.696,224.95 411.408,226.235 410.122,227.523 409.195,229.103 408.265,230.68 407.761,232.48 407.26,234.287 407.252,236.252L407.252,296.028 395.718,284.484Q394.677,283.446 393.495,282.666 392.907,282.282 392.289,281.96 391.671,281.635 391.032,281.378 390.393,281.118 389.733,280.92 389.073,280.726 388.403,280.598 387.738,280.468 387.063,280.401 386.382,280.337 385.702,280.339 385.021,280.337 384.341,280.401 383.665,280.468 383,280.598 382.33,280.726 381.67,280.92 381.011,281.118 380.372,281.378 379.733,281.635 379.114,281.96 378.497,282.282 377.909,282.666 376.727,283.446 375.685,284.484 374.302,285.877 373.379,287.508 372.458,289.136 371.997,290.906 371.539,292.679 371.54,294.501 371.539,296.322 371.997,298.096 372.458,299.866 373.379,301.494 374.302,303.124 375.685,304.517L418.827,347.658Q419.17,348.004 419.533,348.323 419.901,348.641 420.281,348.926 420.663,349.215 421.061,349.477 421.456,349.736 421.861,349.965 422.265,350.197 422.682,350.402 423.104,350.604 423.534,350.776 423.959,350.946 424.396,351.087 424.834,351.232 425.279,351.347L495.612,351.347 495.623,351.326 495.623,290.282Q495.616,287.154 495.01,284.204 494.402,281.253 493.254,278.541 492.101,275.825 490.469,273.408 488.834,270.995 486.78,268.94 484.731,266.891 482.323,265.262 479.905,263.63 477.19,262.477 474.477,261.329 471.527,260.721"/><animate attributeName="display" repeatCount="indefinite" dur="3.042s" keyTimes="0;0.192;0.205;1" values="none;inline;none;none"/></g><g style="display:none;"><path fill="#F59120" d="M487.427,263.821Q484.477,263.215 481.349,263.208L451.486,263.208 451.486,239.352Q451.485,238.621 451.414,237.908 451.339,237.188 451.196,236.494 451.056,235.802 450.853,235.133 450.645,234.468 450.375,233.834 450.103,233.201 449.772,232.598 449.446,231.996 449.066,231.434 448.301,230.301 447.341,229.335 446.375,228.37 445.242,227.6 444.68,227.22 444.078,226.894 443.47,226.568 442.831,226.301 442.198,226.031 441.532,225.823 440.863,225.614 440.171,225.47 439.483,225.331 438.769,225.262 438.055,225.191 437.324,225.19 435.36,225.193 433.553,225.688 431.752,226.193 430.176,227.122 428.596,228.05 427.308,229.335 426.022,230.623 425.095,232.203 424.165,233.78 423.661,235.58 423.16,237.387 423.152,239.352L423.152,299.128 411.618,287.584Q410.577,286.546 409.395,285.766 408.807,285.382 408.189,285.06 407.571,284.735 406.932,284.478 406.293,284.218 405.633,284.02 404.973,283.826 404.303,283.698 403.638,283.568 402.963,283.501 402.282,283.437 401.602,283.439 400.921,283.437 400.241,283.501 399.565,283.568 398.9,283.698 398.23,283.826 397.57,284.02 396.911,284.218 396.272,284.478 395.633,284.735 395.014,285.06 394.397,285.382 393.809,285.766 392.627,286.546 391.585,287.584 390.202,288.977 389.279,290.608 388.358,292.236 387.897,294.006 387.439,295.779 387.44,297.601 387.439,299.422 387.897,301.196 388.358,302.966 389.279,304.594 390.202,306.224 391.585,307.617L434.727,350.758Q435.07,351.104 435.433,351.423 435.801,351.741 436.181,352.026 436.563,352.315 436.961,352.577 437.356,352.836 437.761,353.065 438.165,353.297 438.582,353.502 439.004,353.704 439.434,353.876 439.859,354.046 440.296,354.187 440.734,354.332 441.179,354.447L511.512,354.447 511.523,354.426 511.523,293.382Q511.516,290.254 510.91,287.304 510.302,284.353 509.154,281.641 508.001,278.925 506.369,276.508 504.734,274.095 502.68,272.04 500.631,269.991 498.223,268.362 495.805,266.73 493.09,265.577 490.377,264.429 487.427,263.821"/><animate attributeName="display" repeatCount="indefinite" dur="3.042s" keyTimes="0;0.178;0.192;1" values="none;inline;none;none"/></g><g style="display:none;"><path fill="#F59120" d="M503.327,266.971Q500.377,266.365 497.249,266.358L467.386,266.358 467.386,242.502Q467.385,241.771 467.314,241.058 467.239,240.338 467.096,239.644 466.956,238.952 466.753,238.283 466.545,237.618 466.275,236.984 466.003,236.351 465.672,235.748 465.346,235.146 464.966,234.584 464.201,233.451 463.241,232.485 462.275,231.52 461.142,230.75 460.58,230.37 459.978,230.044 459.37,229.718 458.731,229.451 458.098,229.181 457.432,228.973 456.763,228.764 456.071,228.62 455.383,228.481 454.669,228.412 453.955,228.341 453.224,228.34 451.26,228.343 449.453,228.838 447.652,229.343 446.076,230.272 444.496,231.2 443.208,232.485 441.922,233.773 440.995,235.353 440.065,236.93 439.561,238.73 439.06,240.537 439.052,242.502L439.052,302.278 427.518,290.734Q426.477,289.696 425.295,288.916 424.707,288.532 424.089,288.21 423.471,287.885 422.832,287.628 422.193,287.368 421.533,287.17 420.873,286.976 420.203,286.848 419.538,286.718 418.863,286.651 418.182,286.587 417.502,286.589 416.821,286.587 416.141,286.651 415.465,286.718 414.8,286.848 414.13,286.976 413.47,287.17 412.811,287.368 412.172,287.628 411.533,287.885 410.914,288.21 410.297,288.532 409.709,288.916 408.527,289.696 407.485,290.734 406.102,292.127 405.179,293.758 404.258,295.386 403.797,297.156 403.339,298.929 403.34,300.751 403.339,302.572 403.797,304.346 404.258,306.116 405.179,307.744 406.102,309.374 407.485,310.767L450.627,353.908Q450.97,354.254 451.333,354.573 451.701,354.891 452.081,355.176 452.463,355.465 452.861,355.727 453.256,355.986 453.661,356.215 454.065,356.447 454.482,356.652 454.904,356.854 455.334,357.026 455.759,357.196 456.196,357.337 456.634,357.482 457.079,357.597L527.412,357.597 527.423,357.576 527.423,296.532Q527.416,293.404 526.81,290.454 526.202,287.503 525.054,284.791 523.901,282.075 522.269,279.658 520.634,277.245 518.58,275.19 516.531,273.141 514.123,271.512 511.705,269.88 508.99,268.727 506.277,267.579 503.327,266.971"/><animate attributeName="display" repeatCount="indefinite" dur="3.042s" keyTimes="0;0.164;0.178;1" values="none;inline;none;none"/></g><g style="display:none;"><path fill="#F59120" d="M519.227,270.121Q516.277,269.515 513.149,269.508L483.286,269.508 483.286,245.652Q483.285,244.921 483.214,244.208 483.139,243.488 482.996,242.794 482.856,242.102 482.653,241.433 482.445,240.768 482.175,240.134 481.903,239.501 481.572,238.898 481.246,238.296 480.866,237.734 480.101,236.601 479.141,235.635 478.175,234.67 477.042,233.9 476.48,233.52 475.878,233.194 475.27,232.868 474.631,232.601 473.998,232.331 473.332,232.123 472.663,231.914 471.971,231.77 471.283,231.631 470.569,231.562 469.855,231.491 469.124,231.49 467.16,231.493 465.353,231.988 463.552,232.493 461.976,233.422 460.396,234.35 459.108,235.635 457.822,236.923 456.895,238.503 455.965,240.08 455.461,241.88 454.96,243.687 454.952,245.652L454.952,305.428 443.418,293.884Q442.377,292.846 441.195,292.066 440.607,291.682 439.989,291.36 439.371,291.035 438.732,290.778 438.093,290.518 437.433,290.32 436.773,290.126 436.103,289.998 435.438,289.868 434.763,289.801 434.082,289.737 433.402,289.739 432.721,289.737 432.041,289.801 431.365,289.868 430.7,289.998 430.03,290.126 429.37,290.32 428.711,290.518 428.072,290.778 427.433,291.035 426.814,291.36 426.197,291.682 425.609,292.066 424.427,292.846 423.385,293.884 422.002,295.277 421.079,296.908 420.158,298.536 419.697,300.306 419.239,302.079 419.24,303.901 419.239,305.722 419.697,307.496 420.158,309.266 421.079,310.894 422.002,312.524 423.385,313.917L466.527,357.058Q466.87,357.404 467.233,357.723 467.601,358.041 467.981,358.326 468.363,358.615 468.761,358.877 469.156,359.136 469.561,359.365 469.965,359.597 470.382,359.802 470.804,360.004 471.234,360.176 471.659,360.346 472.096,360.487 472.534,360.632 472.979,360.747L543.312,360.747 543.323,360.726 543.323,299.682Q543.316,296.554 542.71,293.604 542.102,290.653 540.954,287.941 539.801,285.225 538.169,282.808 536.534,280.395 534.48,278.34 532.431,276.291 530.023,274.662 527.605,273.03 524.89,271.877 522.177,270.729 519.227,270.121"/><animate attributeName="display" repeatCount="indefinite" dur="3.042s" keyTimes="0;0.151;0.164;1" values="none;inline;none;none"/></g><g style="display:none;"><path fill="#F59120" d="M535.127,273.221Q532.177,272.615 529.049,272.608L499.186,272.608 499.186,248.752Q499.185,248.021 499.114,247.308 499.039,246.588 498.896,245.894 498.756,245.202 498.553,244.533 498.345,243.868 498.075,243.234 497.803,242.601 497.472,241.998 497.146,241.396 496.766,240.834 496.001,239.701 495.041,238.735 494.075,237.77 492.942,237 492.38,236.62 491.778,236.294 491.17,235.968 490.531,235.701 489.898,235.431 489.232,235.223 488.563,235.014 487.871,234.87 487.183,234.731 486.469,234.662 485.755,234.591 485.024,234.59 483.06,234.593 481.253,235.088 479.452,235.593 477.876,236.522 476.296,237.45 475.008,238.735 473.722,240.023 472.795,241.603 471.865,243.18 471.361,244.98 470.86,246.787 470.852,248.752L470.852,308.528 459.318,296.984Q458.277,295.946 457.095,295.166 456.507,294.782 455.889,294.46 455.271,294.135 454.632,293.878 453.993,293.618 453.333,293.42 452.673,293.226 452.003,293.098 451.338,292.968 450.663,292.901 449.982,292.837 449.302,292.839 448.621,292.837 447.941,292.901 447.265,292.968 446.6,293.098 445.93,293.226 445.27,293.42 444.611,293.618 443.972,293.878 443.333,294.135 442.714,294.46 442.097,294.782 441.509,295.166 440.327,295.946 439.285,296.984 437.902,298.377 436.979,300.008 436.058,301.636 435.597,303.406 435.139,305.179 435.14,307.001 435.139,308.822 435.597,310.596 436.058,312.366 436.979,313.994 437.902,315.624 439.285,317.017L482.427,360.158Q482.77,360.504 483.133,360.823 483.501,361.141 483.881,361.426 484.263,361.715 484.661,361.977 485.056,362.236 485.461,362.465 485.865,362.697 486.282,362.902 486.704,363.104 487.134,363.276 487.559,363.446 487.996,363.587 488.434,363.732 488.879,363.847L559.212,363.847 559.223,363.826 559.223,302.782Q559.216,299.654 558.61,296.704 558.002,293.753 556.854,291.041 555.701,288.325 554.069,285.908 552.434,283.495 550.38,281.44 548.331,279.391 545.923,277.762 543.505,276.13 540.79,274.977 538.077,273.829 535.127,273.221"/><animate attributeName="display" repeatCount="indefinite" dur="3.042s" keyTimes="0;0.137;0.151;1" values="none;inline;none;none"/></g><g style="display:none;"><path fill="#F59120" d="M550.977,276.371Q548.027,275.765 544.899,275.758L515.036,275.758 515.036,251.902Q515.035,251.171 514.964,250.458 514.889,249.738 514.746,249.044 514.606,248.352 514.403,247.683 514.195,247.018 513.925,246.384 513.653,245.751 513.322,245.148 512.996,244.546 512.616,243.984 511.851,242.851 510.891,241.885 509.925,240.92 508.792,240.15 508.23,239.77 507.628,239.444 507.02,239.118 506.381,238.851 505.748,238.581 505.082,238.373 504.413,238.164 503.721,238.02 503.033,237.881 502.319,237.812 501.605,237.741 500.874,237.74 498.91,237.743 497.103,238.238 495.302,238.743 493.726,239.672 492.146,240.6 490.858,241.885 489.572,243.173 488.645,244.753 487.715,246.33 487.211,248.13 486.71,249.937 486.702,251.902L486.702,311.678 475.168,300.134Q474.127,299.096 472.945,298.316 472.357,297.932 471.739,297.61 471.121,297.285 470.482,297.028 469.843,296.768 469.183,296.57 468.523,296.376 467.853,296.248 467.188,296.118 466.513,296.051 465.832,295.987 465.152,295.989 464.471,295.987 463.791,296.051 463.115,296.118 462.45,296.248 461.78,296.376 461.12,296.57 460.461,296.768 459.822,297.028 459.183,297.285 458.564,297.61 457.947,297.932 457.359,298.316 456.177,299.096 455.135,300.134 453.752,301.527 452.829,303.158 451.908,304.786 451.447,306.556 450.989,308.329 450.99,310.151 450.989,311.972 451.447,313.746 451.908,315.516 452.829,317.144 453.752,318.774 455.135,320.167L498.277,363.308Q498.62,363.654 498.983,363.973 499.351,364.291 499.731,364.576 500.113,364.865 500.511,365.127 500.906,365.386 501.311,365.615 501.715,365.847 502.132,366.052 502.554,366.254 502.984,366.426 503.409,366.596 503.846,366.737 504.284,366.882 504.729,366.997L575.062,366.997 575.073,366.976 575.073,305.932Q575.066,302.804 574.46,299.854 573.852,296.903 572.704,294.191 571.551,291.475 569.919,289.058 568.284,286.645 566.23,284.59 564.181,282.541 561.773,280.912 559.355,279.28 556.64,278.127 553.927,276.979 550.977,276.371"/><animate attributeName="display" repeatCount="indefinite" dur="3.042s" keyTimes="0;0.123;0.137;1" values="none;inline;none;none"/></g><g style="display:none;"><path fill="#F59120" d="M566.877,279.471Q563.927,278.865 560.799,278.858L530.936,278.858 530.936,255.002Q530.935,254.271 530.864,253.558 530.789,252.838 530.646,252.144 530.506,251.452 530.303,250.783 530.095,250.118 529.825,249.484 529.553,248.851 529.222,248.248 528.896,247.646 528.516,247.084 527.751,245.951 526.791,244.985 525.825,244.02 524.692,243.25 524.13,242.87 523.528,242.544 522.92,242.218 522.281,241.951 521.648,241.681 520.982,241.473 520.313,241.264 519.621,241.12 518.933,240.981 518.219,240.912 517.505,240.841 516.774,240.84 514.81,240.843 513.003,241.338 511.202,241.843 509.626,242.772 508.046,243.7 506.758,244.985 505.472,246.273 504.545,247.853 503.615,249.43 503.111,251.23 502.61,253.037 502.602,255.002L502.602,314.778 491.068,303.234Q490.027,302.196 488.845,301.416 488.257,301.032 487.639,300.71 487.021,300.385 486.382,300.128 485.743,299.868 485.083,299.67 484.423,299.476 483.753,299.348 483.088,299.218 482.413,299.151 481.732,299.087 481.052,299.089 480.371,299.087 479.691,299.151 479.015,299.218 478.35,299.348 477.68,299.476 477.02,299.67 476.361,299.868 475.722,300.128 475.083,300.385 474.464,300.71 473.847,301.032 473.259,301.416 472.077,302.196 471.035,303.234 469.652,304.627 468.729,306.258 467.808,307.886 467.347,309.656 466.889,311.429 466.89,313.251 466.889,315.072 467.347,316.846 467.808,318.616 468.729,320.244 469.652,321.874 471.035,323.267L514.177,366.408Q514.52,366.754 514.883,367.073 515.251,367.391 515.631,367.676 516.013,367.965 516.411,368.227 516.806,368.486 517.211,368.715 517.615,368.947 518.032,369.152 518.454,369.354 518.884,369.526 519.309,369.696 519.746,369.837 520.184,369.982 520.629,370.097L590.962,370.097 590.973,370.076 590.973,309.032Q590.966,305.904 590.36,302.954 589.752,300.003 588.604,297.291 587.451,294.575 585.819,292.158 584.184,289.745 582.13,287.69 580.081,285.641 577.673,284.012 575.255,282.38 572.54,281.227 569.827,280.079 566.877,279.471"/><animate attributeName="display" repeatCount="indefinite" dur="3.042s" keyTimes="0;0.11;0.123;1" values="none;inline;none;none"/></g><g><path fill="#F59120" d="M582.777,282.621Q579.827,282.015 576.699,282.008L546.836,282.008 546.836,258.152Q546.835,257.421 546.764,256.708 546.689,255.988 546.546,255.294 546.406,254.602 546.203,253.933 545.995,253.268 545.725,252.634 545.453,252.001 545.122,251.398 544.796,250.796 544.416,250.234 543.651,249.101 542.691,248.135 541.725,247.17 540.592,246.4 540.03,246.02 539.428,245.694 538.82,245.368 538.181,245.101 537.548,244.831 536.882,244.623 536.213,244.414 535.521,244.27 534.833,244.131 534.119,244.062 533.405,243.991 532.674,243.99 530.71,243.993 528.903,244.488 527.102,244.993 525.526,245.922 523.946,246.85 522.658,248.135 521.372,249.423 520.445,251.003 519.515,252.58 519.011,254.38 518.51,256.187 518.502,258.152L518.502,317.928 506.968,306.384Q505.927,305.346 504.745,304.566 504.157,304.182 503.539,303.86 502.921,303.535 502.282,303.278 501.643,303.018 500.983,302.82 500.323,302.626 499.653,302.498 498.988,302.368 498.313,302.301 497.632,302.237 496.952,302.239 496.271,302.237 495.591,302.301 494.915,302.368 494.25,302.498 493.58,302.626 492.92,302.82 492.261,303.018 491.622,303.278 490.983,303.535 490.364,303.86 489.747,304.182 489.159,304.566 487.977,305.346 486.935,306.384 485.552,307.777 484.629,309.408 483.708,311.036 483.247,312.806 482.789,314.579 482.79,316.401 482.789,318.222 483.247,319.996 483.708,321.766 484.629,323.394 485.552,325.024 486.935,326.417L530.077,369.558Q530.42,369.904 530.783,370.223 531.151,370.541 531.531,370.826 531.913,371.115 532.311,371.377 532.706,371.636 533.111,371.865 533.515,372.097 533.932,372.302 534.354,372.504 534.784,372.676 535.209,372.846 535.646,372.987 536.084,373.132 536.529,373.247L606.862,373.247 606.873,373.226 606.873,312.182Q606.866,309.054 606.26,306.104 605.652,303.153 604.504,300.441 603.351,297.725 601.719,295.308 600.084,292.895 598.03,290.84 595.981,288.791 593.573,287.162 591.155,285.53 588.44,284.377 585.727,283.229 582.777,282.621"/><animate attributeName="display" repeatCount="indefinite" dur="3.042s" keyTimes="0;0.11;0.616;1" values="inline;none;inline;inline"/></g></g></svg>