<?xml version="1.0" encoding="utf-8"?><svg xmlns:xlink="http://www.w3.org/1999/xlink" id="tutorial2_3_modif" image-rendering="auto" baseProfile="basic" version="1.1" x="0px" y="0px" width="800" height="450" xmlns="http://www.w3.org/2000/svg"><defs><symbol id="mano_abierta" overflow="visible"><g id="mano abierta_0.0"><path fill="#F59120" d="M123.85,18.25Q123.8,15.3 122.7,12.75 121.6,10.2 119.7,8.25 117.75,6.3 115.2,5.25 112.65,4.15 109.75,4.15 108.8,4.15 107.8,4.25 106.85,4.4 106,4.65 105.1,4.85 104.25,5.25 103.4,5.6 102.6,6.05 101.05,6.95 99.8,8.25 98.5,9.5 97.55,11.1 97.1,11.9 96.75,12.75 96.4,13.55 96.15,14.5 95.9,15.35 95.8,16.3 95.65,17.25 95.65,18.25L95.65,37.85Q94.8,37.8 93.95,37.8L93.95,14.1Q93.9,11.15 92.8,8.6 91.7,6.05 89.8,4.1 87.85,2.15 85.3,1.1 82.75,0 79.85,0 78.9,0 77.9,0.1 76.95,0.25 76.1,0.5 75.2,0.7 74.35,1.1 73.5,1.45 72.7,1.9 71.15,2.85 69.9,4.1 68.6,5.4 67.65,6.95 67.2,7.75 66.85,8.6 66.5,9.4 66.25,10.35 66,11.2 65.9,12.2 65.75,13.1 65.75,14.1L65.75,37.8 64.1,37.8 64.1,14.1Q64.1,11.15 63,8.6 61.95,6.05 60,4.1 58.05,2.15 55.5,1.1 52.95,0 50.05,0 49.1,0 48.1,0.1 47.15,0.25 46.3,0.5 45.4,0.7 44.55,1.1 43.7,1.45 42.9,1.9 41.35,2.85 40.1,4.1 38.8,5.4 37.85,6.95 37.4,7.75 37.05,8.6 36.7,9.4 36.45,10.35 36.2,11.2 36.1,12.2 35.95,13.1 35.95,14.1L35.95,73.45 24.5,62.05Q24,61.5 23.4,61.05 22.85,60.6 22.3,60.25 21.7,59.85 21.1,59.5 20.45,59.15 19.85,58.9 19.2,58.65 18.55,58.45 17.85,58.3 17.25,58.15 16.55,58 15.9,57.95 15.2,57.9 14.55,57.9 13.85,57.9 13.2,57.95 12.5,58 11.85,58.15 11.2,58.3 10.5,58.45 9.85,58.65 9.25,58.9 8.6,59.15 8,59.5 7.35,59.85 6.8,60.25 6.2,60.6 5.6,61.05 5.05,61.5 4.55,62.05 3.2,63.4 2.25,65.05 1.8,65.8 1.5,66.65 1.15,67.5 0.9,68.4 0.65,69.3 0.55,70.15 0.4,71.05 0.45,72 0.4,72.9 0.55,73.8 0.65,74.65 0.9,75.55 1.15,76.45 1.5,77.3 1.8,78.15 2.25,78.95 3.2,80.55 4.55,81.95L47.45,124.85Q47.9,125.25 48.4,125.7 48.85,126.1 49.4,126.45 49.95,126.85 50.45,127.15 51,127.45 51.55,127.7 52.1,127.95 52.7,128.15 53.3,128.35 53.9,128.5L123.8,128.5 123.8,78.4 123.85,78.35 123.85,18.25"/></g>
</symbol><symbol id="Timeline_1_copy" overflow="visible"><path fill="#00A44F" d="M92.4,-0.025L9.525,-0.025Q8.864,-0.029 8.225,0.05 7.597,0.133 7,0.3 6.383,0.476 5.8,0.725 5.229,0.965 4.7,1.275 4.165,1.581 3.675,1.95 3.199,2.333 2.775,2.775 2.334,3.199 1.95,3.675 1.581,4.165 1.275,4.7 0.965,5.229 0.725,5.8 0.476,6.383 0.3,7 0.133,7.598 0.05,8.225 -0.029,8.864 -0.025,9.525L-0.025,63.875Q-0.029,64.536 0.05,65.175 0.133,65.815 0.3,66.425 0.476,67.029 0.725,67.6 0.965,68.184 1.275,68.725 1.581,69.247 1.95,69.725 2.334,70.214 2.775,70.65 3.199,71.091 3.675,71.475 4.165,71.844 4.7,72.15 5.229,72.46 5.8,72.7 6.383,72.949 7,73.125 7.597,73.292 8.225,73.375 8.864,73.455 9.525,73.45L35.9,73.45 40.525,76.7Q40.891,76.95 41.3,77.075 41.718,77.201 42.15,77.2 42.57,77.201 42.975,77.075 43.384,76.95 43.75,76.7L48.4,73.45 92.4,73.45 92.425,73.425 92.425,0 92.4,-0.025"/>
</symbol></defs><g id="Scene_1" overflow="visible"><path fill="none" stroke="#D5D7DB" stroke-width="10" stroke-linecap="round" stroke-linejoin="round" d="M135.851,26.751L135.851,365.476"/><g style="display:none;"><g><path fill="#BB2B82" d="M690.937,304.394Q690.937,287.217 678.804,275.083 666.67,262.95 649.494,262.95 632.317,262.95 620.183,275.083 608.05,287.217 608.05,304.394 608.05,321.57 620.183,333.704 632.317,345.837 649.494,345.837 666.67,345.837 678.804,333.704 690.937,321.57 690.937,304.394"/><g><path fill="#FFF" d="M669.308,304.403L669.308,304.33 641.387,288.213 641.313,288.25 641.35,289.968 641.35,288.25 669.271,304.367 641.35,320.484 641.35,320.557 641.387,320.557 669.308,304.403"/><path fill="#FFF" d="M641.35,320.484L669.271,304.367 641.35,288.25 641.35,289.968Q641.348,290.233 641.35,290.516 641.348,290.904 641.35,291.283 641.342,305.878 641.35,320.484"/><path fill="none" stroke="#FFF" stroke-width="5" stroke-linecap="round" stroke-linejoin="round" d="M641.35,290.516Q641.348,290.233 641.35,289.968M641.35,291.283Q641.348,290.904 641.35,290.516M641.35,320.484Q641.342,305.878 641.35,291.283"/><path fill="none" stroke="#FFF" stroke-width="5" stroke-linecap="round" stroke-linejoin="round" d="M641.35,289.968L641.35,288.25 669.271,304.367 641.35,320.484"/></g></g><animate attributeName="display" repeatCount="indefinite" dur="9.875s" keyTimes="0;0.755;0.759;1" values="none;inline;none;none"/></g><g style="display:none;"><g><path fill="#BB2B82" d="M690.937,304.394Q690.937,287.217 678.804,275.083 666.67,262.95 649.494,262.95 632.317,262.95 620.183,275.083 608.05,287.217 608.05,304.394 608.05,321.57 620.183,333.704 632.317,345.837 649.494,345.837 666.67,345.837 678.804,333.704 690.937,321.57 690.937,304.394"/><g><path fill="#FFF" d="M669.271,304.367L641.35,320.484 641.35,320.557 641.387,320.557 669.308,304.403 669.308,304.33 641.387,288.213 641.313,288.25 641.35,289.968 641.35,288.25 669.271,304.367"/><path fill="#FFF" d="M641.35,320.484L669.271,304.367 641.35,288.25 641.35,289.968Q641.348,290.233 641.35,290.516 641.348,290.904 641.35,291.283 641.342,305.878 641.35,320.484"/><path fill="none" stroke="#FFF" stroke-width="5" stroke-linecap="round" stroke-linejoin="round" d="M641.35,290.516Q641.348,290.233 641.35,289.968M641.35,291.283Q641.348,290.904 641.35,290.516M641.35,320.484Q641.342,305.878 641.35,291.283"/><path fill="none" stroke="#FFF" stroke-width="5" stroke-linecap="round" stroke-linejoin="round" d="M669.271,304.367L641.35,320.484M641.35,289.968L641.35,288.25 669.271,304.367"/></g></g><animate attributeName="display" repeatCount="indefinite" dur="9.875s" keyTimes="0;0.696;0.755;1" values="none;inline;none;none"/></g><g style="display:none;"><g><path fill="#EE5D80" d="M690.937,304.394Q690.937,287.217 678.804,275.083 666.67,262.95 649.494,262.95 632.317,262.95 620.183,275.083 608.05,287.217 608.05,304.394 608.05,321.57 620.183,333.704 632.317,345.837 649.494,345.837 666.67,345.837 678.804,333.704 690.937,321.57 690.937,304.394"/><g><path fill="#FFF" d="M669.271,304.367L641.35,320.484 641.35,320.557 641.387,320.557 669.308,304.403 669.308,304.33 641.387,288.213 641.313,288.25 641.35,289.968 641.35,288.25 669.271,304.367"/><path fill="#FFF" d="M641.35,320.484L669.271,304.367 641.35,288.25 641.35,289.968Q641.348,290.233 641.35,290.516 641.348,290.904 641.35,291.283 641.342,305.878 641.35,320.484"/><path fill="none" stroke="#FFF" stroke-width="5" stroke-linecap="round" stroke-linejoin="round" d="M641.35,290.516Q641.348,290.233 641.35,289.968M641.35,291.283Q641.348,290.904 641.35,290.516M641.35,320.484Q641.342,305.878 641.35,291.283"/><path fill="none" stroke="#FFF" stroke-width="5" stroke-linecap="round" stroke-linejoin="round" d="M669.271,304.367L641.35,320.484M641.35,289.968L641.35,288.25 669.271,304.367"/></g></g><animate attributeName="display" repeatCount="indefinite" dur="9.875s" keyTimes="0;0.692;0.696;1" values="none;inline;none;none"/></g><g><g><path fill="#EE5D80" d="M687.147,304.373Q687.147,288.718 676.088,277.659 665.029,266.6 649.373,266.6 633.718,266.6 622.659,277.659 611.6,288.718 611.6,304.373 611.6,320.029 622.659,331.088 633.718,342.147 649.373,342.147 665.029,342.147 676.088,331.088 687.147,320.029 687.147,304.373"/><g><path fill="#FFF" d="M667.349,304.39L641.9,319.079 641.9,319.146 641.933,319.146 667.382,304.423 667.382,304.356 641.933,289.667 641.867,289.7 641.9,291.266 641.9,289.7 667.349,304.39"/><path fill="#FFF" d="M641.9,319.079L667.349,304.39 641.9,289.7 641.9,291.266Q641.898,291.507 641.9,291.765 641.898,292.119 641.9,292.465 641.892,305.767 641.9,319.079"/><path fill="none" stroke="#FFF" stroke-width="5" stroke-linecap="round" stroke-linejoin="round" d="M641.9,291.765Q641.898,291.507 641.9,291.266M641.9,292.465Q641.898,292.119 641.9,291.765M641.9,319.079Q641.892,305.767 641.9,292.465"/><path fill="none" stroke="#FFF" stroke-width="5" stroke-linecap="round" stroke-linejoin="round" d="M667.349,304.39L641.9,319.079M641.9,291.266L641.9,289.7 667.349,304.39"/></g></g><animate attributeName="display" repeatCount="indefinite" dur="9.875s" keyTimes="0;0.692;0.759;1" values="inline;none;inline;inline"/></g><g style="display:none;"><path fill="none" stroke="#999" stroke-width="10" stroke-linecap="round" stroke-linejoin="round" d="M649.85,203.781L649.85,204.736"/><path fill="none" stroke="#999" stroke-width="10" stroke-linecap="round" stroke-linejoin="round" d="M708.132,223.229L707.103,224.258"/><path fill="none" stroke="#999" stroke-width="10" stroke-linecap="round" stroke-linejoin="round" d="M591.632,223.222L592.903,224.493"/><animate attributeName="display" repeatCount="indefinite" dur="9.875s" keyTimes="0;0.705;0.709;1" values="none;inline;none;none"/></g><g style="display:none;"><path fill="none" stroke="#999" stroke-width="10" stroke-linecap="round" stroke-linejoin="round" d="M649.85,206.233L649.85,216.906"/><path fill="none" stroke="#999" stroke-width="10" stroke-linecap="round" stroke-linejoin="round" d="M706.332,225.029L698.15,233.211"/><path fill="none" stroke="#999" stroke-width="10" stroke-linecap="round" stroke-linejoin="round" d="M593.229,224.819L600.883,232.473"/><animate attributeName="display" repeatCount="indefinite" dur="9.875s" keyTimes="0;0.7;0.705;1" values="none;inline;none;none"/></g><g style="display:none;"><path fill="none" stroke="#999" stroke-width="10" stroke-linecap="round" stroke-linejoin="round" d="M649.85,216.05L649.85,235.9"/><path fill="none" stroke="#999" stroke-width="10" stroke-linecap="round" stroke-linejoin="round" d="M697.385,233.976L683.349,248.012"/><path fill="none" stroke="#999" stroke-width="10" stroke-linecap="round" stroke-linejoin="round" d="M602.325,233.915L616.361,247.951"/><animate attributeName="display" repeatCount="indefinite" dur="9.875s" keyTimes="0;0.692;0.7;1" values="none;inline;none;none"/></g><g style="display:none;"><path fill="#EE5D80" d="M433.7,76.1L358.45,76.1 358.45,139.25 433.7,139.25 433.7,76.1"/><use xlink:href="#Timeline_1_copy" transform="matrix(1 0 0 1 349.8 70.25)" opacity="0.5"/><path fill="#EE5D80" d="M358.05,70.3Q357.4,70.4 356.8,70.55 356.2,70.75 355.6,71 355.05,71.2 354.5,71.55 353.95,71.85 353.5,72.2 353,72.6 352.6,73.05 352.15,73.45 351.75,73.95 351.4,74.4 351.1,74.95 350.75,75.5 350.55,76.05 350.3,76.65 350.1,77.25 349.95,77.85 349.85,78.5 349.75,79.1 349.8,79.8L349.8,295.95Q349.75,296.6 349.85,297.25 349.95,297.9 350.1,298.5 350.3,299.1 350.55,299.7 350.75,300.25 351.1,300.8 351.4,301.3 351.75,301.8 352.15,302.3 352.6,302.7 353,303.15 353.5,303.55 353.95,303.9 354.5,304.2 355.05,304.5 355.6,304.75 356.2,305 356.8,305.2 357.4,305.35 358.05,305.45 358.65,305.5 359.35,305.5L442.25,305.5 442.25,294.7 442.2,294.65 398.15,294.65 393.75,297.7Q393.3,298.05 392.75,298.2 392.2,298.35 391.6,298.4 391,298.35 390.5,298.2 389.95,298.05 389.5,297.7L385.05,294.65 379.05,294.65Q376.85,294.6 374.95,293.8 373.05,293 371.6,291.55 370.15,290.1 369.35,288.2 368.55,286.3 368.55,284.15L368.55,153.1Q368.55,152.35 368.65,151.65 368.7,150.95 368.9,150.3 369.1,149.6 369.35,149 369.6,148.35 370,147.8 370.3,147.2 370.75,146.7 371.15,146.15 371.6,145.65 372.1,145.2 372.65,144.8 373.15,144.35 373.75,144 374.3,143.65 374.95,143.4 375.6,143.15 376.25,142.95 376.9,142.75 377.6,142.7 378.3,142.6 379.05,142.6L384.9,142.6Q385.05,142.6 385.2,142.65 385.35,142.65 385.45,142.75L390.6,146.35Q390.8,146.5 391.1,146.6 391.35,146.65 391.65,146.65 391.9,146.65 392.15,146.6 392.4,146.5 392.65,146.35L397.8,142.75Q397.9,142.65 398.05,142.65 398.15,142.6 398.35,142.6L442.2,142.6 442.25,142.55 442.25,70.25 359.35,70.25Q358.65,70.2 358.05,70.3"/><g><path fill="#EE5D80" d="M382,118.875L382.025,118.875 404.175,106.075 404.175,106.025 382.025,93.225 381.975,93.25 381.975,118.85 382,118.875"/><path fill="#EE5D80" stroke-width="5" stroke-linecap="round" stroke-linejoin="round" d="M404.15,106.05L382,93.25 382,118.85 404.15,106.05"/><path fill="none" stroke="#EE5D80" stroke-width="5" stroke-linecap="round" stroke-linejoin="round" d="M404.15,106.05L382,93.25 382,118.85 404.15,106.05"/></g><g><path fill="#FFC85F" d="M384.9,143.525L379.025,143.525Q378.364,143.521 377.725,143.6 377.098,143.683 376.5,143.85 375.883,144.026 375.3,144.275 374.729,144.515 374.2,144.825 373.664,145.131 373.175,145.5 372.699,145.883 372.275,146.325 371.834,146.749 371.45,147.225 371.081,147.715 370.775,148.25 370.465,148.78 370.225,149.35 369.976,149.933 369.8,150.55 369.633,151.147 369.55,151.775 369.471,152.414 369.475,153.075L369.475,207.425Q369.471,208.086 369.55,208.725 369.633,209.365 369.8,209.975 369.976,210.579 370.225,211.15 370.465,211.733 370.775,212.275 371.081,212.797 371.45,213.275 371.834,213.764 372.275,214.2 372.699,214.629 373.175,215 373.664,215.382 374.2,215.7 374.729,216.01 375.3,216.25 375.883,216.499 376.5,216.675 377.098,216.841 377.725,216.925 378.364,217.005 379.025,217L385.375,217 390,220.25Q390.364,220.501 390.775,220.625 391.191,220.75 391.625,220.75 392.044,220.75 392.45,220.625 392.86,220.501 393.225,220.25L397.875,217 451.9,217 451.925,216.975 451.925,143.55 451.9,143.525 398.3,143.525 393.2,147.1Q392.835,147.35 392.425,147.475 392.033,147.599 391.625,147.6 391.204,147.599 390.8,147.475 390.403,147.35 390.05,147.1L384.9,143.525"/><path fill="#FFC85F" stroke-width="1.8" stroke-linecap="round" stroke-linejoin="round" d="M451.9,216.975L451.9,143.55 398.325,143.55 393.225,147.125Q392.485,147.627 391.625,147.625 391.205,147.625 390.8,147.5 390.39,147.376 390.025,147.125L384.9,143.55 379.025,143.55Q377.445,143.551 376.025,144.025 374.594,144.515 373.4,145.4 372.217,146.267 371.35,147.45 370.465,148.644 369.975,150.075 369.501,151.496 369.5,153.075L369.5,207.425Q369.501,209.017 369.975,210.45 370.465,211.881 371.35,213.075 372.217,214.258 373.4,215.125 374.594,215.997 376.025,216.475 377.445,216.962 379.025,216.975L385.375,216.975 390.025,220.225Q390.39,220.476 390.8,220.6 391.205,220.725 391.625,220.725 392.045,220.725 392.45,220.6 392.86,220.476 393.225,220.225L397.85,216.975 451.9,216.975"/><path fill="none" stroke="#FFF" stroke-width="1.8" stroke-linecap="round" stroke-linejoin="round" d="M451.9,216.975L451.9,143.55 398.325,143.55 393.225,147.125Q392.485,147.627 391.625,147.625 391.205,147.625 390.8,147.5 390.39,147.376 390.025,147.125L384.9,143.55 379.025,143.55Q377.445,143.551 376.025,144.025 374.594,144.515 373.4,145.4 372.217,146.267 371.35,147.45 370.465,148.644 369.975,150.075 369.501,151.496 369.5,153.075L369.5,207.425Q369.501,209.017 369.975,210.45 370.465,211.881 371.35,213.075 372.217,214.258 373.4,215.125 374.594,215.997 376.025,216.475 377.445,216.962 379.025,216.975L385.375,216.975 390.025,220.225Q390.39,220.476 390.8,220.6 391.205,220.725 391.625,220.725 392.045,220.725 392.45,220.6 392.86,220.476 393.225,220.225L397.85,216.975 451.9,216.975"/></g><g><path fill="#221F1F" d="M391.6,120.525L391.625,120.525 413.775,107.725 413.775,107.675 391.625,94.875 391.575,94.9 391.575,120.5 391.6,120.525"/><path fill="#221F1F" stroke-width="5" stroke-linecap="round" stroke-linejoin="round" d="M413.75,107.7L391.6,94.9 391.6,120.5 413.75,107.7"/><path fill="none" stroke="#221F1F" stroke-width="5" stroke-linecap="round" stroke-linejoin="round" d="M413.75,107.7L391.6,94.9 391.6,120.5 413.75,107.7"/></g><path fill="#FFC85F" d="M374.15,220.75Q373.6,221.05 373.15,221.4 372.786,221.692 372.475,222 372.358,222.128 372.25,222.25 372.111,222.373 371.975,222.5 371.677,222.804 371.4,223.15 371.05,223.6 370.75,224.15 370.4,224.7 370.2,225.25 369.95,225.85 369.75,226.45 369.6,227.05 369.5,227.7 369.4,228.3 369.45,229L369.45,283.35Q369.4,284 369.5,284.65 369.6,285.25 369.75,285.9 369.95,286.5 370.2,287.05 370.4,287.65 370.75,288.2 371.05,288.7 371.4,289.2 371.693,289.53 372,289.85L372.25,290.1Q372.65,290.55 373.15,290.9 373.6,291.3 374.15,291.6 374.7,291.9 375.25,292.15 375.85,292.4 376.45,292.6 377.05,292.75 377.7,292.85 378.3,292.9 379,292.9L385.35,292.9 389.95,296.15Q390.3,296.4 390.75,296.55 391.075,296.631 391.425,296.65L391.7,296.65Q392.05,296.638 392.4,296.55 392.701,296.437 393,296.275L397.85,292.9 451.9,292.9 451.9,219.45 398.25,219.45 393.15,223Q392.8,223.25 392.4,223.4 392,223.5 391.6,223.5 391.15,223.5 390.75,223.4 390.35,223.25 390,223L384.85,219.45 379,219.45Q378.3,219.4 377.7,219.5 377.05,219.6 376.45,219.75 375.85,219.95 375.25,220.2 374.7,220.4 374.15,220.75"/><animate attributeName="display" repeatCount="indefinite" dur="9.875s" keyTimes="0;0.388;1" values="none;inline;inline"/></g><g><path fill="#EE5D80" d="M433.7,76.1L358.45,76.1 358.45,139.25 433.7,139.25 433.7,76.1"/><use xlink:href="#Timeline_1_copy" transform="matrix(1 0 0 1 349.8 70.25)" opacity="0.5"/><path fill="#EE5D80" d="M358.05,70.3Q357.4,70.4 356.8,70.55 356.2,70.75 355.6,71 355.05,71.2 354.5,71.55 353.95,71.85 353.5,72.2 353,72.6 352.6,73.05 352.15,73.45 351.75,73.95 351.4,74.4 351.1,74.95 350.75,75.5 350.55,76.05 350.3,76.65 350.1,77.25 349.95,77.85 349.85,78.5 349.75,79.1 349.8,79.8L349.8,219.25Q349.75,219.9 349.85,220.55 349.95,221.2 350.1,221.8 350.3,222.4 350.55,223 350.75,223.55 351.1,224.1 351.4,224.6 351.75,225.1 352.15,225.6 352.6,226 353,226.45 353.5,226.85 353.95,227.2 354.5,227.5 355.05,227.8 355.6,228.05 356.2,228.3 356.8,228.5 357.4,228.65 358.05,228.75 358.65,228.8 359.35,228.8L442.25,228.8 442.25,218 442.2,217.95 398.15,217.95 393.75,221Q393.3,221.35 392.75,221.5 392.2,221.65 391.6,221.7 391,221.65 390.5,221.5 389.95,221.35 389.5,221L385.05,217.95 379.05,217.95Q376.85,217.9 374.95,217.1 373.05,216.3 371.6,214.85 370.15,213.4 369.35,211.5 368.55,209.6 368.55,207.45L368.55,153.1Q368.55,152.35 368.65,151.65 368.7,150.95 368.9,150.3 369.1,149.6 369.35,149 369.6,148.35 370,147.8 370.3,147.2 370.75,146.7 371.15,146.15 371.6,145.65 372.1,145.2 372.65,144.8 373.15,144.35 373.75,144 374.3,143.65 374.95,143.4 375.6,143.15 376.25,142.95 376.9,142.75 377.6,142.7 378.3,142.6 379.05,142.6L384.9,142.6Q385.05,142.6 385.2,142.65 385.35,142.65 385.45,142.75L390.6,146.35Q390.8,146.5 391.1,146.6 391.35,146.65 391.65,146.65 391.9,146.65 392.15,146.6 392.4,146.5 392.65,146.35L397.8,142.75Q397.9,142.65 398.05,142.65 398.15,142.6 398.35,142.6L442.2,142.6 442.25,142.55 442.25,70.25 359.35,70.25Q358.65,70.2 358.05,70.3"/><g><path fill="#EE5D80" d="M382,118.875L382.025,118.875 404.175,106.075 404.175,106.025 382.025,93.225 381.975,93.25 381.975,118.85 382,118.875"/><path fill="#EE5D80" stroke-width="5" stroke-linecap="round" stroke-linejoin="round" d="M404.15,106.05L382,93.25 382,118.85 404.15,106.05"/><path fill="none" stroke="#EE5D80" stroke-width="5" stroke-linecap="round" stroke-linejoin="round" d="M404.15,106.05L382,93.25 382,118.85 404.15,106.05"/></g><g><path fill="#FFC85F" d="M384.9,143.525L379.025,143.525Q378.364,143.521 377.725,143.6 377.098,143.683 376.5,143.85 375.883,144.026 375.3,144.275 374.729,144.515 374.2,144.825 373.664,145.131 373.175,145.5 372.699,145.883 372.275,146.325 371.834,146.749 371.45,147.225 371.081,147.715 370.775,148.25 370.465,148.78 370.225,149.35 369.976,149.933 369.8,150.55 369.633,151.147 369.55,151.775 369.471,152.414 369.475,153.075L369.475,207.425Q369.471,208.086 369.55,208.725 369.633,209.365 369.8,209.975 369.976,210.579 370.225,211.15 370.465,211.733 370.775,212.275 371.081,212.797 371.45,213.275 371.834,213.764 372.275,214.2 372.699,214.629 373.175,215 373.664,215.382 374.2,215.7 374.729,216.01 375.3,216.25 375.883,216.499 376.5,216.675 377.098,216.841 377.725,216.925 378.364,217.005 379.025,217L385.375,217 390,220.25Q390.364,220.501 390.775,220.625 391.191,220.75 391.625,220.75 392.044,220.75 392.45,220.625 392.86,220.501 393.225,220.25L397.875,217 451.9,217 451.925,216.975 451.925,143.55 451.9,143.525 398.3,143.525 393.2,147.1Q392.835,147.35 392.425,147.475 392.033,147.599 391.625,147.6 391.204,147.599 390.8,147.475 390.403,147.35 390.05,147.1L384.9,143.525"/><path fill="#FFC85F" stroke-width="1.8" stroke-linecap="round" stroke-linejoin="round" d="M451.9,216.975L451.9,143.55 398.325,143.55 393.225,147.125Q392.485,147.627 391.625,147.625 391.205,147.625 390.8,147.5 390.39,147.376 390.025,147.125L384.9,143.55 379.025,143.55Q377.445,143.551 376.025,144.025 374.594,144.515 373.4,145.4 372.217,146.267 371.35,147.45 370.465,148.644 369.975,150.075 369.501,151.496 369.5,153.075L369.5,207.425Q369.501,209.017 369.975,210.45 370.465,211.881 371.35,213.075 372.217,214.258 373.4,215.125 374.594,215.997 376.025,216.475 377.445,216.962 379.025,216.975L385.375,216.975 390.025,220.225Q390.39,220.476 390.8,220.6 391.205,220.725 391.625,220.725 392.045,220.725 392.45,220.6 392.86,220.476 393.225,220.225L397.85,216.975 451.9,216.975"/><path fill="none" stroke="#FFF" stroke-width="1.8" stroke-linecap="round" stroke-linejoin="round" d="M451.9,216.975L451.9,143.55 398.325,143.55 393.225,147.125Q392.485,147.627 391.625,147.625 391.205,147.625 390.8,147.5 390.39,147.376 390.025,147.125L384.9,143.55 379.025,143.55Q377.445,143.551 376.025,144.025 374.594,144.515 373.4,145.4 372.217,146.267 371.35,147.45 370.465,148.644 369.975,150.075 369.501,151.496 369.5,153.075L369.5,207.425Q369.501,209.017 369.975,210.45 370.465,211.881 371.35,213.075 372.217,214.258 373.4,215.125 374.594,215.997 376.025,216.475 377.445,216.962 379.025,216.975L385.375,216.975 390.025,220.225Q390.39,220.476 390.8,220.6 391.205,220.725 391.625,220.725 392.045,220.725 392.45,220.6 392.86,220.476 393.225,220.225L397.85,216.975 451.9,216.975"/></g><g><path fill="#221F1F" d="M391.6,120.525L391.625,120.525 413.775,107.725 413.775,107.675 391.625,94.875 391.575,94.9 391.575,120.5 391.6,120.525"/><path fill="#221F1F" stroke-width="5" stroke-linecap="round" stroke-linejoin="round" d="M413.75,107.7L391.6,94.9 391.6,120.5 413.75,107.7"/><path fill="none" stroke="#221F1F" stroke-width="5" stroke-linecap="round" stroke-linejoin="round" d="M413.75,107.7L391.6,94.9 391.6,120.5 413.75,107.7"/></g><animate attributeName="display" repeatCount="indefinite" dur="9.875s" keyTimes="0;0.388;1" values="inline;none;none"/></g><g style="display:none;"><g id="bloque1" transform="matrix(1 0 0 1 30.5 68.55)"><animateTransform attributeName="transform" additive="replace" type="translate" dur="9.875s" keyTimes="0;1" values="0,0;0,0" fill="freeze"/><animateTransform attributeName="transform" additive="sum" type="translate" repeatCount="indefinite" dur="9.875s" keyTimes="0;0.228;0.232;0.236;0.241;0.245;0.249;0.253;0.257;0.262;0.266;0.27;0.274;0.278;0.283;0.287;0.291;0.295;0.3;0.304;0.308;0.312;0.316;0.321;0.325;0.329;0.333;0.338;0.342;0.345;0.346;1" values="30.5,68.55;30.5,68.55;35.6,71;40.7,73.45;45.8,75.9;50.9,78.35;56,80.8;61.1,83.25;76.4,90.6;91.7,97.95;106.95,105.25;122.25,112.6;137.55,119.95;152.85,127.3;168.15,134.65;183.45,142;198.7,149.3;214,156.65;229.3,164;244.6,171.35;259.9,178.7;275.2,186.05;290.45,193.35;305.75,200.7;321.05,208.05;326.45,209.3;331.8,210.6;337.2,211.85;342.55,213.1;347.95,214.4;0;0" calcMode="discrete"/><animateTransform attributeName="transform" additive="sum" type="translate" repeatCount="indefinite" dur="9.875s" keyTimes="0;0.346;0.35;0.354;0.359;0.363;1" values="0;347.95,214.4;353.3,215.65;358.7,216.9;364.05,218.2;369.45,219.45;369.45,219.45" calcMode="discrete"/><g id="bloque1_0.0"><g><path fill="#FFC85F" d="M82.501,0.051L82.451,0.051 82.451,73.501 82.501,73.501 82.501,0.051"/><path fill="#FFC85F" d="M4.751,1.351Q4.201,1.651 3.751,2.001 3.387,2.293 3.076,2.601 3.487,2.23 3.951,1.901 5.151,1.001 6.601,0.551 8.001,0.051 9.601,0.051 8.901,0.001 8.301,0.101 7.651,0.201 7.051,0.351 6.451,0.551 5.851,0.801 5.301,1.001 4.751,1.351"/><path fill="#FFC85F" d="M3.951,1.901Q3.487,2.23 3.076,2.601 2.959,2.729 2.851,2.851 2.712,2.974 2.576,3.101 2.215,3.507 1.901,3.951 1.001,5.151 0.551,6.601 0.051,8.001 0.051,9.601L0.051,63.951Q0.051,65.501 0.551,66.951 0.662,67.309 0.801,67.651 1.223,68.697 1.901,69.601 2.232,70.049 2.601,70.451L2.851,70.701Q3.251,71.151 3.751,71.501 3.851,71.576 3.951,71.651 5.151,72.501 6.601,73.001 8.001,73.451 9.601,73.501L15.951,73.501 19.401,75.926 20.601,76.751Q20.951,77.001 21.351,77.101 21.676,77.223 22.026,77.251L22.301,77.251Q22.651,77.232 23.001,77.101 23.301,77.026 23.601,76.876L27.251,74.326 28.401,73.501 28.451,73.501 82.451,73.501 82.451,0.051 28.901,0.051 23.801,3.651Q23.051,4.151 22.201,4.151 21.751,4.151 21.351,4.001 20.951,3.901 20.601,3.651L19.151,2.601 15.451,0.051 9.601,0.051Q8.001,0.051 6.601,0.551 5.151,1.001 3.951,1.901"/><path fill="#FFC85F" d="M2.001,3.751Q1.651,4.201 1.351,4.751 1.001,5.301 0.801,5.851 0.551,6.451 0.351,7.051 0.201,7.651 0.101,8.301 0.001,8.901 0.051,9.601 0.051,8.001 0.551,6.601 1.001,5.151 1.901,3.951 2.215,3.507 2.576,3.101 2.278,3.405 2.001,3.751"/><path fill="#FFC85F" d="M20.601,3.651Q20.951,3.901 21.351,4.001 20.951,3.851 20.601,3.601L19.151,2.601 20.601,3.651"/><path fill="#FFC85F" d="M22.201,4.101Q21.751,4.101 21.351,4.001 21.751,4.151 22.201,4.151 23.051,4.151 23.801,3.651L28.901,0.051 28.851,0.051 23.751,3.601Q23.401,3.851 23.001,4.001 22.601,4.101 22.201,4.101"/><path fill="#FFC85F" d="M28.451,73.501L28.401,73.501 27.251,74.326 28.451,73.501"/><path fill="#FFC85F" d="M21.351,77.151Q21.676,77.232 22.026,77.251 21.676,77.223 21.351,77.101 20.951,77.001 20.601,76.751L19.401,75.926 20.551,76.751Q20.901,77.001 21.351,77.151"/><path fill="#FFC85F" d="M22.301,77.251Q22.651,77.239 23.001,77.151 23.302,77.038 23.601,76.876 23.301,77.026 23.001,77.101 22.651,77.232 22.301,77.251"/><path fill="#FFC85F" d="M0.551,66.951Q0.051,65.501 0.051,63.951 0.001,64.601 0.101,65.251 0.201,65.851 0.351,66.501 0.551,67.101 0.801,67.651 0.662,67.309 0.551,66.951"/><path fill="#FFC85F" d="M9.601,73.501Q8.001,73.451 6.601,73.001 5.151,72.501 3.951,71.651 3.851,71.576 3.751,71.501 4.201,71.901 4.751,72.201 5.301,72.501 5.851,72.751 6.451,73.001 7.051,73.201 7.651,73.351 8.301,73.451 8.901,73.501 9.601,73.501"/><path fill="#FFC85F" d="M1.351,68.801Q1.651,69.301 2.001,69.801 2.294,70.131 2.601,70.451 2.232,70.049 1.901,69.601 1.223,68.697 0.801,67.651 1.001,68.251 1.351,68.801"/><path fill="none" stroke="#EE5D80" stroke-width="3" stroke-linecap="round" stroke-linejoin="round" d="M28.901,0.051L82.451,0.051M15.451,0.051L19.151,2.601M9.601,0.051L15.451,0.051M2.576,3.101Q2.817,2.845 3.076,2.601M0.051,63.951L0.051,9.601M2.851,70.701L2.601,70.451M3.751,71.501Q3.251,71.151 2.851,70.701M15.951,73.501L9.601,73.501M19.401,75.926L15.951,73.501M22.301,77.251L22.026,77.251M27.251,74.326L23.601,76.876M82.451,73.501L28.451,73.501"/><path fill="none" stroke="#EE5D80" stroke-width="3" stroke-linecap="round" stroke-linejoin="round" d="M82.451,0.051L82.451,73.501"/><path fill="none" stroke="#EE5D80" stroke-width="3" stroke-linecap="round" stroke-linejoin="round" d="M3.076,2.601Q3.487,2.23 3.951,1.901 5.151,1.001 6.601,0.551 8.001,0.051 9.601,0.051"/><path fill="none" stroke="#EE5D80" stroke-width="3" stroke-linecap="round" stroke-linejoin="round" d="M3.076,2.601Q2.959,2.729 2.851,2.851 2.712,2.974 2.576,3.101 2.215,3.507 1.901,3.951 1.001,5.151 0.551,6.601 0.051,8.001 0.051,9.601M0.051,63.951Q0.051,65.501 0.551,66.951 0.662,67.309 0.801,67.651 1.223,68.697 1.901,69.601 2.232,70.049 2.601,70.451M3.751,71.501Q3.851,71.576 3.951,71.651 5.151,72.501 6.601,73.001 8.001,73.451 9.601,73.501M19.401,75.926L20.601,76.751Q20.951,77.001 21.351,77.101 21.676,77.223 22.026,77.251M22.301,77.251Q22.651,77.232 23.001,77.101 23.301,77.026 23.601,76.876M27.251,74.326L28.401,73.501 28.451,73.501M28.901,0.051L23.801,3.651Q23.051,4.151 22.201,4.151 21.751,4.151 21.351,4.001 20.951,3.901 20.601,3.651L19.151,2.601"/></g></g></g><animate attributeName="display" repeatCount="indefinite" dur="9.875s" keyTimes="0;0.169;0.388;1" values="none;inline;none;none"/></g><g><path fill="#FFC85F" d="M35.2,69.85Q34.65,70.15 34.2,70.5 33.836,70.792 33.525,71.1 33.408,71.228 33.3,71.35 33.161,71.473 33.025,71.6 32.727,71.904 32.45,72.25 32.1,72.7 31.8,73.25 31.45,73.8 31.25,74.35 31,74.95 30.8,75.55 30.65,76.15 30.55,76.8 30.45,77.4 30.5,78.1L30.5,132.45Q30.45,133.1 30.55,133.75 30.65,134.35 30.8,135 31,135.6 31.25,136.15 31.45,136.75 31.8,137.3 32.1,137.8 32.45,138.3 32.743,138.63 33.05,138.95L33.3,139.2Q33.7,139.65 34.2,140 34.65,140.4 35.2,140.7 35.75,141 36.3,141.25 36.9,141.5 37.5,141.7 38.1,141.85 38.75,141.95 39.35,142 40.05,142L46.4,142 51,145.25Q51.35,145.5 51.8,145.65 52.125,145.731 52.475,145.75L52.75,145.75Q53.1,145.738 53.45,145.65 53.751,145.537 54.05,145.375L58.9,142 112.95,142 112.95,68.55 59.3,68.55 54.2,72.1Q53.85,72.35 53.45,72.5 53.05,72.6 52.65,72.6 52.2,72.6 51.8,72.5 51.4,72.35 51.05,72.1L45.9,68.55 40.05,68.55Q39.35,68.5 38.75,68.6 38.1,68.7 37.5,68.85 36.9,69.05 36.3,69.3 35.75,69.5 35.2,69.85"/><animate attributeName="display" repeatCount="indefinite" dur="9.875s" keyTimes="0;0.169;1" values="inline;none;none"/></g><g style="display:none;"><g id="mano_tap" transform="matrix(1 0 0 1 608 293.5)"><animateTransform attributeName="transform" additive="replace" type="translate" repeatCount="indefinite" dur="9.875s" keyTimes="0;0.755;0.759;0.764;0.768;0.772;0.776;0.781;0.785;0.789;0.793;0.797;0.802;0.806;0.81;0.814;0.819;0.823;0.827;0.831;1" values="608,293.5;608,293.5;612.2,294.95;616.4,296.4;620.55,297.8;624.75,299.25;628.95,300.7;633.15,302.15;637.3,303.55;641.5,305;645.7,306.45;647.1,306.95;648.5,307.4;649.9,307.9;651.3,308.35;652.65,308.85;654.05,309.3;655.45,309.8;656.85,310.25;658.25,310.75;658.25,310.75" calcMode="discrete"/><g id="mano tap_0.0"><path fill="#F59120" d="M99.977,38.621Q97.027,38.015 93.899,38.008L64.036,38.008 64.036,14.152Q64.035,13.421 63.964,12.708 63.889,11.988 63.746,11.294 63.606,10.602 63.403,9.933 63.195,9.268 62.925,8.634 62.653,8.001 62.322,7.398 61.996,6.796 61.616,6.234 60.851,5.101 59.891,4.135 58.925,3.17 57.792,2.4 57.23,2.02 56.628,1.694 56.02,1.368 55.381,1.101 54.748,0.831 54.082,0.623 53.413,0.414 52.721,0.27 52.033,0.131 51.319,0.062 50.605,-0.009 49.874,-0.01 47.91,-0.007 46.103,0.488 44.302,0.993 42.726,1.922 41.146,2.85 39.858,4.135 38.572,5.423 37.645,7.003 36.715,8.58 36.211,10.38 35.71,12.187 35.702,14.152L35.702,73.928 24.168,62.384Q23.127,61.346 21.945,60.566 21.357,60.182 20.739,59.86 20.121,59.535 19.482,59.278 18.843,59.018 18.183,58.82 17.523,58.626 16.853,58.498 16.188,58.368 15.513,58.301 14.832,58.237 14.152,58.239 13.471,58.237 12.791,58.301 12.115,58.368 11.45,58.498 10.78,58.626 10.12,58.82 9.461,59.018 8.822,59.278 8.183,59.535 7.564,59.86 6.947,60.182 6.359,60.566 5.177,61.346 4.135,62.384 2.752,63.777 1.829,65.408 0.908,67.036 0.447,68.806 -0.011,70.579 -0.01,72.401 -0.011,74.222 0.447,75.996 0.908,77.766 1.829,79.394 2.752,81.024 4.135,82.417L47.277,125.558Q47.62,125.904 47.983,126.223 48.351,126.541 48.731,126.826 49.113,127.115 49.511,127.377 49.906,127.636 50.311,127.865 50.715,128.097 51.132,128.302 51.554,128.504 51.984,128.676 52.409,128.846 52.846,128.987 53.284,129.132 53.729,129.247L124.062,129.247 124.073,129.226 124.073,68.182Q124.066,65.054 123.46,62.104 122.852,59.153 121.704,56.441 120.551,53.725 118.919,51.308 117.284,48.895 115.23,46.84 113.181,44.791 110.773,43.162 108.355,41.53 105.64,40.377 102.927,39.229 99.977,38.621"/></g></g><animate attributeName="display" repeatCount="indefinite" dur="9.875s" keyTimes="0;0.654;1" values="none;inline;inline"/></g><g style="display:none;"><use xlink:href="#mano_abierta" transform="matrix(1.068 0 0 1.068 363.2 250.55)"><animateTransform attributeName="transform" additive="replace" type="translate" dur="9.875s" keyTimes="0;1" values="0,0;0,0" fill="freeze"/><animateTransform attributeName="transform" additive="sum" type="translate" repeatCount="indefinite" dur="9.875s" keyTimes="0;0.388;0.392;0.397;0.401;0.405;0.409;0.498;0.502;0.506;0.511;0.515;0.519;0.523;0.527;0.532;0.536;0.54;0.544;0.549;0.553;0.557;0.561;0.565;0.57;0.574;0.578;0.582;0.586;0.59;0.591;1" values="429.473,319.546;429.473,319.546;429.481,319.57;429.431,319.537;429.438,319.559;429.444,319.529;429.45,319.55;429.45,319.55;432.4,320.05;435.4,320.5;438.35,321;441.3,321.45;444.3,321.95;447.25,322.4;456.15,323.85;465.1,325.25;474,326.7;482.9,328.1;491.8,329.55;500.75,330.95;509.65,332.4;518.55,333.85;527.45,335.25;536.4,336.7;545.3,338.1;554.2,339.55;563.1,340.95;572.05,342.4;580.95,343.8;589.85,345.25;0;0" calcMode="discrete"/><animateTransform attributeName="transform" additive="sum" type="translate" repeatCount="indefinite" dur="9.875s" keyTimes="0;0.591;0.595;0.599;0.603;0.608;0.612;0.616;0.62;0.624;0.629;0.633;0.637;0.641;0.646;1" values="0;589.85,345.25;598.75,346.7;607.7,348.1;616.6,349.55;625.5,350.95;634.4,352.4;643.35,353.8;652.25,355.25;655.2,355.75;658.2,356.2;661.15,356.7;664.1,357.15;667.1,357.65;670.05,358.1;670.05,358.1" calcMode="discrete"/><animateTransform attributeName="transform" additive="sum" type="scale" repeatCount="indefinite" dur="9.875s" keyTimes="0;0.388;0.392;0.397;0.401;0.405;0.409;0.59;0.591;1" values="1.068,1.068;1.068,1.068;1.054,1.054;1.041,1.041;1.027,1.027;1.014,1.014;1,1;1,1;1;1" calcMode="discrete"/><animateTransform attributeName="transform" additive="sum" type="translate" repeatCount="indefinite" dur="9.875s" keyTimes="0;0.388;0.392;0.397;0.401;0.405;0.409;0.59;0.591;1" values="-62.05,-64.6;-62.05,-64.6;-62.1,-64.65;-62,-64.6;-62.05,-64.65;-62,-64.55;-62.05,-64.6;-62.05,-64.6;0;0" calcMode="discrete"/><animateTransform attributeName="transform" additive="sum" type="translate" repeatCount="indefinite" dur="9.875s" keyTimes="0;0.591;1" values="0;-62.05,-64.6;-62.05,-64.6" calcMode="discrete"/></use><animate attributeName="display" repeatCount="indefinite" dur="9.875s" keyTimes="0;0.388;0.654;1" values="none;inline;none;none"/></g><g style="display:none;"><g id="mano_cerrada" transform="matrix(1 0 0 1 20.95 72.8)"><animateTransform attributeName="transform" additive="replace" type="translate" dur="9.875s" keyTimes="0;1" values="0,0;0,0" fill="freeze"/><animateTransform attributeName="transform" additive="sum" type="translate" repeatCount="indefinite" dur="9.875s" keyTimes="0;0.228;0.232;0.236;0.241;0.245;0.249;0.253;0.257;0.262;0.266;0.27;0.274;0.278;0.283;0.287;0.291;0.295;0.3;0.304;0.308;0.312;0.316;0.321;0.325;0.329;0.333;0.338;0.342;0.345;0.346;1" values="20.95,72.8;20.95,72.8;26.05,75.25;31.15,77.7;36.25,80.2;41.35,82.65;46.45,85.1;51.55,87.55;66.85,94.95;82.15,102.3;97.4,109.7;112.7,117.05;128,124.45;143.3,131.8;158.6,139.2;173.9,146.55;189.15,153.95;204.45,161.3;219.75,168.7;235.05,176.05;250.35,183.45;265.65,190.8;280.9,198.2;296.2,205.55;311.5,212.95;316.9,215.1;322.25,217.3;327.65,219.45;333,221.6;338.4,223.8;0;0" calcMode="discrete"/><animateTransform attributeName="transform" additive="sum" type="translate" repeatCount="indefinite" dur="9.875s" keyTimes="0;0.346;0.35;0.354;0.359;0.363;1" values="0;338.4,223.8;343.75,225.95;349.15,228.1;354.5,230.3;359.9,232.45;359.9,232.45" calcMode="discrete"/><g id="mano cerrada_0.0"><path fill="#F59120" d="M123.45,46.8Q123.45,43.5 122.25,40.65 121,37.85 118.9,35.7 116.75,33.55 113.9,32.35 111.05,31.15 107.8,31.15 105.65,31.15 103.65,31.65 101.65,32.2 99.9,33.25 98.15,34.25 96.75,35.7 95.3,37.1 94.35,38.85 94.05,36.75 93.25,34.9 92.05,32.05 89.9,29.9 87.75,27.75 84.95,26.55 82.05,25.35 78.8,25.35 76.65,25.35 74.65,25.85 72.65,26.45 70.95,27.45 69.15,28.5 67.75,29.9 66.3,31.3 65.3,33.05 64.35,34.65 63.8,36.45L63.8,30.8Q63.8,27.9 62.75,25.35 61.65,22.8 59.7,20.85 57.8,18.9 55.25,17.85 52.7,16.75 49.75,16.75 48.75,16.75 47.85,16.85 46.9,17 46,17.25 45.1,17.45 44.25,17.85 43.4,18.2 42.65,18.65 41.05,19.55 39.8,20.85 38.5,22.1 37.6,23.7 37.15,24.5 36.8,25.35 36.4,26.15 36.2,27.05 35.95,27.95 35.8,28.9 35.7,29.8 35.7,30.8L35.55,79.05Q33.15,81.5 31.35,84.55 29.4,87.8 28.4,91.5 27.35,95.2 27.35,99.3 27.35,103.35 28.4,107.1 29.4,110.8 31.35,114.05 33.3,117.3 35.95,120 38.6,122.65 41.85,124.55 45.1,126.5 48.85,127.55 50.65,128.05 52.55,128.3 53.05,128.45 53.55,128.6L57.9,128.6Q58.05,128.55 58.25,128.6L69.95,128.65 69.95,128.6 123.45,128.6 123.45,55.55Q123.45,54.7 123.45,53.95L123.45,46.8"/></g></g><animate attributeName="display" repeatCount="indefinite" dur="9.875s" keyTimes="0;0.169;0.388;1" values="none;inline;none;none"/></g><g><use xlink:href="#mano_abierta" transform="matrix(1 0 0 1 336.05 294.4)"><animateTransform attributeName="transform" additive="replace" type="translate" repeatCount="indefinite" dur="9.875s" keyTimes="0;0.055;0.059;0.063;0.068;0.072;0.076;0.08;0.084;0.089;0.093;0.097;0.101;0.105;0.11;0.114;0.118;0.122;0.127;0.131;0.135;0.139;0.143;0.148;1" values="336.05,294.4;336.05,294.4;330.65,290.8;325.3,287.25;319.9,283.65;314.5,280.1;309.1,276.5;303.75,272.95;298.35,269.35;279.5,256.8;260.65,244.3;241.8,231.75;222.95,219.25;204.1,206.7;185.2,194.2;166.35,181.65;147.5,169.15;128.65,156.6;109.8,144.1;90.95,131.55;73.45,119.95;55.95,108.3;38.45,96.7;20.95,85.05;20.95,85.05" calcMode="discrete"/></use><animate attributeName="display" repeatCount="indefinite" dur="9.875s" keyTimes="0;0.169;1" values="inline;none;none"/></g></g></svg>