<?xml version="1.0" encoding="utf-8"?><svg xmlns:xlink="http://www.w3.org/1999/xlink" id="tutorial2_2_modif" image-rendering="auto" baseProfile="basic" version="1.1" x="0px" y="0px" width="800" height="450" xmlns="http://www.w3.org/2000/svg"><defs><symbol id="mano_abierta" overflow="visible"><g id="mano abierta_0.0"><path fill="#F59120" d="M123.85,18.25Q123.8,15.3 122.7,12.75 121.6,10.2 119.7,8.25 117.75,6.3 115.2,5.25 112.65,4.15 109.75,4.15 108.8,4.15 107.8,4.25 106.85,4.4 106,4.65 105.1,4.85 104.25,5.25 103.4,5.6 102.6,6.05 101.05,6.95 99.8,8.25 98.5,9.5 97.55,11.1 97.1,11.9 96.75,12.75 96.4,13.55 96.15,14.5 95.9,15.35 95.8,16.3 95.65,17.25 95.65,18.25L95.65,37.85Q94.8,37.8 93.95,37.8L93.95,14.1Q93.9,11.15 92.8,8.6 91.7,6.05 89.8,4.1 87.85,2.15 85.3,1.1 82.75,0 79.85,0 78.9,0 77.9,0.1 76.95,0.25 76.1,0.5 75.2,0.7 74.35,1.1 73.5,1.45 72.7,1.9 71.15,2.85 69.9,4.1 68.6,5.4 67.65,6.95 67.2,7.75 66.85,8.6 66.5,9.4 66.25,10.35 66,11.2 65.9,12.2 65.75,13.1 65.75,14.1L65.75,37.8 64.1,37.8 64.1,14.1Q64.1,11.15 63,8.6 61.95,6.05 60,4.1 58.05,2.15 55.5,1.1 52.95,0 50.05,0 49.1,0 48.1,0.1 47.15,0.25 46.3,0.5 45.4,0.7 44.55,1.1 43.7,1.45 42.9,1.9 41.35,2.85 40.1,4.1 38.8,5.4 37.85,6.95 37.4,7.75 37.05,8.6 36.7,9.4 36.45,10.35 36.2,11.2 36.1,12.2 35.95,13.1 35.95,14.1L35.95,73.45 24.5,62.05Q24,61.5 23.4,61.05 22.85,60.6 22.3,60.25 21.7,59.85 21.1,59.5 20.45,59.15 19.85,58.9 19.2,58.65 18.55,58.45 17.85,58.3 17.25,58.15 16.55,58 15.9,57.95 15.2,57.9 14.55,57.9 13.85,57.9 13.2,57.95 12.5,58 11.85,58.15 11.2,58.3 10.5,58.45 9.85,58.65 9.25,58.9 8.6,59.15 8,59.5 7.35,59.85 6.8,60.25 6.2,60.6 5.6,61.05 5.05,61.5 4.55,62.05 3.2,63.4 2.25,65.05 1.8,65.8 1.5,66.65 1.15,67.5 0.9,68.4 0.65,69.3 0.55,70.15 0.4,71.05 0.45,72 0.4,72.9 0.55,73.8 0.65,74.65 0.9,75.55 1.15,76.45 1.5,77.3 1.8,78.15 2.25,78.95 3.2,80.55 4.55,81.95L47.45,124.85Q47.9,125.25 48.4,125.7 48.85,126.1 49.4,126.45 49.95,126.85 50.45,127.15 51,127.45 51.55,127.7 52.1,127.95 52.7,128.15 53.3,128.35 53.9,128.5L123.8,128.5 123.8,78.4 123.85,78.35 123.85,18.25"/></g>
</symbol><symbol id="Timeline_1_copy" overflow="visible"><path fill="#00A44F" d="M92.4,-0.025L9.525,-0.025Q8.864,-0.029 8.225,0.05 7.597,0.133 7,0.3 6.383,0.476 5.8,0.725 5.229,0.965 4.7,1.275 4.165,1.581 3.675,1.95 3.199,2.333 2.775,2.775 2.334,3.199 1.95,3.675 1.581,4.165 1.275,4.7 0.965,5.229 0.725,5.8 0.476,6.383 0.3,7 0.133,7.598 0.05,8.225 -0.029,8.864 -0.025,9.525L-0.025,63.875Q-0.029,64.536 0.05,65.175 0.133,65.815 0.3,66.425 0.476,67.029 0.725,67.6 0.965,68.184 1.275,68.725 1.581,69.247 1.95,69.725 2.334,70.214 2.775,70.65 3.199,71.091 3.675,71.475 4.165,71.844 4.7,72.15 5.229,72.46 5.8,72.7 6.383,72.949 7,73.125 7.597,73.292 8.225,73.375 8.864,73.455 9.525,73.45L35.9,73.45 40.525,76.7Q40.891,76.95 41.3,77.075 41.718,77.201 42.15,77.2 42.57,77.201 42.975,77.075 43.384,76.95 43.75,76.7L48.4,73.45 92.4,73.45 92.425,73.425 92.425,0 92.4,-0.025"/>
</symbol></defs><g id="Scene_1" overflow="visible"><path fill="none" stroke="#D5D7DB" stroke-width="10" stroke-linecap="round" stroke-linejoin="round" d="M135.851,26.751L135.851,365.476"/><g style="display:none;"><g><path fill="#BB2B82" d="M690.937,304.394Q690.937,287.217 678.804,275.083 666.67,262.95 649.494,262.95 632.317,262.95 620.183,275.083 608.05,287.217 608.05,304.394 608.05,321.57 620.183,333.704 632.317,345.837 649.494,345.837 666.67,345.837 678.804,333.704 690.937,321.57 690.937,304.394"/><g><path fill="#FFF" d="M669.271,304.367L641.35,320.484 641.35,320.557 641.387,320.557 669.308,304.403 669.308,304.33 641.387,288.213 641.313,288.25 641.35,289.968 641.35,288.25 669.271,304.367"/><path fill="#FFF" d="M641.35,320.484L669.271,304.367 641.35,288.25 641.35,289.968Q641.348,290.233 641.35,290.516 641.348,290.904 641.35,291.283 641.342,305.878 641.35,320.484"/><path fill="none" stroke="#FFF" stroke-width="5" stroke-linecap="round" stroke-linejoin="round" d="M641.35,290.516Q641.348,290.233 641.35,289.968M641.35,291.283Q641.348,290.904 641.35,290.516M641.35,320.484Q641.342,305.878 641.35,291.283"/><path fill="none" stroke="#FFF" stroke-width="5" stroke-linecap="round" stroke-linejoin="round" d="M669.271,304.367L641.35,320.484M641.35,289.968L641.35,288.25 669.271,304.367"/></g></g><animate attributeName="display" repeatCount="indefinite" dur="9.542s" keyTimes="0;0.747;0.751;1" values="none;inline;none;none"/></g><g style="display:none;"><g><path fill="#BB2B82" d="M690.937,304.394Q690.937,287.217 678.804,275.083 666.67,262.95 649.494,262.95 632.317,262.95 620.183,275.083 608.05,287.217 608.05,304.394 608.05,321.57 620.183,333.704 632.317,345.837 649.494,345.837 666.67,345.837 678.804,333.704 690.937,321.57 690.937,304.394"/><g><path fill="#FFF" d="M669.308,304.403L669.308,304.33 641.387,288.213 641.313,288.25 641.35,289.968 641.35,288.25 669.271,304.367 641.35,320.484 641.35,320.557 641.387,320.557 669.308,304.403"/><path fill="#FFF" d="M641.35,320.484L669.271,304.367 641.35,288.25 641.35,289.968Q641.348,290.233 641.35,290.516 641.348,290.904 641.35,291.283 641.342,305.878 641.35,320.484"/><path fill="none" stroke="#FFF" stroke-width="5" stroke-linecap="round" stroke-linejoin="round" d="M641.35,290.516Q641.348,290.233 641.35,289.968M641.35,291.283Q641.348,290.904 641.35,290.516M641.35,320.484Q641.342,305.878 641.35,291.283"/><path fill="none" stroke="#FFF" stroke-width="5" stroke-linecap="round" stroke-linejoin="round" d="M641.35,289.968L641.35,288.25 669.271,304.367 641.35,320.484"/></g></g><animate attributeName="display" repeatCount="indefinite" dur="9.542s" keyTimes="0;0.686;0.747;1" values="none;inline;none;none"/></g><g style="display:none;"><g><path fill="#EE5D80" d="M690.937,304.394Q690.937,287.217 678.804,275.083 666.67,262.95 649.494,262.95 632.317,262.95 620.183,275.083 608.05,287.217 608.05,304.394 608.05,321.57 620.183,333.704 632.317,345.837 649.494,345.837 666.67,345.837 678.804,333.704 690.937,321.57 690.937,304.394"/><g><path fill="#FFF" d="M669.308,304.403L669.308,304.33 641.387,288.213 641.313,288.25 641.35,289.968 641.35,288.25 669.271,304.367 641.35,320.484 641.35,320.557 641.387,320.557 669.308,304.403"/><path fill="#FFF" d="M641.35,320.484L669.271,304.367 641.35,288.25 641.35,289.968Q641.348,290.233 641.35,290.516 641.348,290.904 641.35,291.283 641.342,305.878 641.35,320.484"/><path fill="none" stroke="#FFF" stroke-width="5" stroke-linecap="round" stroke-linejoin="round" d="M641.35,290.516Q641.348,290.233 641.35,289.968M641.35,291.283Q641.348,290.904 641.35,290.516M641.35,320.484Q641.342,305.878 641.35,291.283"/><path fill="none" stroke="#FFF" stroke-width="5" stroke-linecap="round" stroke-linejoin="round" d="M641.35,289.968L641.35,288.25 669.271,304.367 641.35,320.484"/></g></g><animate attributeName="display" repeatCount="indefinite" dur="9.542s" keyTimes="0;0.681;0.686;1" values="none;inline;none;none"/></g><g><g><path fill="#EE5D80" d="M687.147,304.373Q687.147,288.718 676.088,277.659 665.029,266.6 649.373,266.6 633.718,266.6 622.659,277.659 611.6,288.718 611.6,304.373 611.6,320.029 622.659,331.088 633.718,342.147 649.373,342.147 665.029,342.147 676.088,331.088 687.147,320.029 687.147,304.373"/><g><path fill="#FFF" d="M667.382,304.423L667.382,304.356 641.933,289.667 641.867,289.7 641.9,291.266 641.9,289.7 667.349,304.39 641.9,319.079 641.9,319.146 641.933,319.146 667.382,304.423"/><path fill="#FFF" d="M641.9,319.079L667.349,304.39 641.9,289.7 641.9,291.266Q641.898,291.507 641.9,291.765 641.898,292.119 641.9,292.465 641.892,305.767 641.9,319.079"/><path fill="none" stroke="#FFF" stroke-width="5" stroke-linecap="round" stroke-linejoin="round" d="M641.9,291.765Q641.898,291.507 641.9,291.266M641.9,292.465Q641.898,292.119 641.9,291.765M641.9,319.079Q641.892,305.767 641.9,292.465"/><path fill="none" stroke="#FFF" stroke-width="5" stroke-linecap="round" stroke-linejoin="round" d="M641.9,291.266L641.9,289.7 667.349,304.39 641.9,319.079"/></g></g><animate attributeName="display" repeatCount="indefinite" dur="9.542s" keyTimes="0;0.681;0.751;1" values="inline;none;inline;inline"/></g><g style="display:none;"><path fill="none" stroke="#999" stroke-width="10" stroke-linecap="round" stroke-linejoin="round" d="M649.85,203.781L649.85,204.736"/><path fill="none" stroke="#999" stroke-width="10" stroke-linecap="round" stroke-linejoin="round" d="M708.132,223.229L707.103,224.258"/><path fill="none" stroke="#999" stroke-width="10" stroke-linecap="round" stroke-linejoin="round" d="M591.632,223.222L592.903,224.493"/><animate attributeName="display" repeatCount="indefinite" dur="9.542s" keyTimes="0;0.694;0.699;1" values="none;inline;none;none"/></g><g style="display:none;"><path fill="none" stroke="#999" stroke-width="10" stroke-linecap="round" stroke-linejoin="round" d="M649.85,206.233L649.85,216.906"/><path fill="none" stroke="#999" stroke-width="10" stroke-linecap="round" stroke-linejoin="round" d="M706.332,225.029L698.15,233.211"/><path fill="none" stroke="#999" stroke-width="10" stroke-linecap="round" stroke-linejoin="round" d="M593.229,224.819L600.883,232.473"/><animate attributeName="display" repeatCount="indefinite" dur="9.542s" keyTimes="0;0.69;0.694;1" values="none;inline;none;none"/></g><g style="display:none;"><path fill="none" stroke="#999" stroke-width="10" stroke-linecap="round" stroke-linejoin="round" d="M649.85,216.05L649.85,235.9"/><path fill="none" stroke="#999" stroke-width="10" stroke-linecap="round" stroke-linejoin="round" d="M697.385,233.976L683.349,248.012"/><path fill="none" stroke="#999" stroke-width="10" stroke-linecap="round" stroke-linejoin="round" d="M602.325,233.915L616.361,247.951"/><animate attributeName="display" repeatCount="indefinite" dur="9.542s" keyTimes="0;0.681;0.69;1" values="none;inline;none;none"/></g><g style="display:none;"><path fill="#EE5D80" d="M433.7,76.1L358.45,76.1 358.45,139.25 433.7,139.25 433.7,76.1"/><use xlink:href="#Timeline_1_copy" transform="matrix(1 0 0 1 349.8 70.25)" opacity="0.5"/><path fill="#EE5D80" d="M442.2,70.225L359.325,70.225Q358.664,70.221 358.025,70.3 357.397,70.383 356.8,70.55 356.183,70.726 355.6,70.975 355.029,71.215 354.5,71.525 353.965,71.831 353.475,72.2 352.999,72.583 352.575,73.025 352.134,73.449 351.75,73.925 351.381,74.415 351.075,74.95 350.765,75.479 350.525,76.05 350.276,76.633 350.1,77.25 349.933,77.848 349.85,78.475 349.771,79.114 349.775,79.775L349.775,219.25Q349.771,219.911 349.85,220.55 349.933,221.178 350.1,221.775 350.276,222.392 350.525,222.975 350.765,223.546 351.075,224.075 351.381,224.611 351.75,225.1 352.134,225.576 352.575,226 352.999,226.441 353.475,226.825 353.965,227.194 354.5,227.5 355.029,227.81 355.6,228.05 356.183,228.3 356.8,228.475 357.397,228.642 358.025,228.725 358.664,228.805 359.325,228.8L442.2,228.8 442.225,228.775 442.225,217.975 442.2,217.925 398.15,217.925 393.75,221Q393.284,221.33 392.75,221.5 392.195,221.672 391.6,221.675 391.019,221.672 390.475,221.5 389.942,221.33 389.475,221L385.05,217.925 379.025,217.925Q376.844,217.908 374.95,217.1 373.047,216.288 371.6,214.85 370.163,213.403 369.35,211.5 368.541,209.606 368.525,207.425L368.525,153.075Q368.529,152.35 368.625,151.65 368.717,150.946 368.9,150.275 369.084,149.619 369.35,149 369.624,148.364 369.975,147.775 370.315,147.2 370.725,146.675 371.131,146.133 371.6,145.65 372.084,145.181 372.625,144.775 373.15,144.353 373.725,144 374.314,143.661 374.95,143.4 375.582,143.134 376.25,142.95 376.908,142.767 377.6,142.675 378.3,142.579 379.025,142.575L384.9,142.575Q385.054,142.578 385.2,142.625 385.334,142.667 385.45,142.75L390.575,146.325Q390.808,146.49 391.075,146.575 391.345,146.653 391.625,146.65 391.893,146.653 392.15,146.575 392.417,146.49 392.65,146.325L397.775,142.75Q397.89,142.667 398.025,142.625 398.171,142.578 398.325,142.575L442.2,142.575 442.225,142.55 442.225,70.25 442.2,70.225"/><g><path fill="#EE5D80" d="M382,118.875L382.025,118.875 404.175,106.075 404.175,106.025 382.025,93.225 381.975,93.25 381.975,118.85 382,118.875"/><path fill="#EE5D80" stroke-width="5" stroke-linecap="round" stroke-linejoin="round" d="M404.15,106.05L382,93.25 382,118.85 404.15,106.05"/><path fill="none" stroke="#EE5D80" stroke-width="5" stroke-linecap="round" stroke-linejoin="round" d="M404.15,106.05L382,93.25 382,118.85 404.15,106.05"/></g><g><path fill="#FFC85F" d="M384.9,143.525L379.025,143.525Q378.364,143.521 377.725,143.6 377.098,143.683 376.5,143.85 375.883,144.026 375.3,144.275 374.729,144.515 374.2,144.825 373.664,145.131 373.175,145.5 372.699,145.883 372.275,146.325 371.834,146.749 371.45,147.225 371.081,147.715 370.775,148.25 370.465,148.78 370.225,149.35 369.976,149.933 369.8,150.55 369.633,151.147 369.55,151.775 369.471,152.414 369.475,153.075L369.475,207.425Q369.471,208.086 369.55,208.725 369.633,209.365 369.8,209.975 369.976,210.579 370.225,211.15 370.465,211.733 370.775,212.275 371.081,212.797 371.45,213.275 371.834,213.764 372.275,214.2 372.699,214.629 373.175,215 373.664,215.382 374.2,215.7 374.729,216.01 375.3,216.25 375.883,216.499 376.5,216.675 377.098,216.841 377.725,216.925 378.364,217.005 379.025,217L385.375,217 390,220.25Q390.364,220.501 390.775,220.625 391.191,220.75 391.625,220.75 392.044,220.75 392.45,220.625 392.86,220.501 393.225,220.25L397.875,217 451.9,217 451.925,216.975 451.925,143.55 451.9,143.525 398.3,143.525 393.2,147.1Q392.835,147.35 392.425,147.475 392.033,147.599 391.625,147.6 391.204,147.599 390.8,147.475 390.403,147.35 390.05,147.1L384.9,143.525"/><path fill="#FFC85F" stroke-width="1.8" stroke-linecap="round" stroke-linejoin="round" d="M451.9,216.975L451.9,143.55 398.325,143.55 393.225,147.125Q392.485,147.627 391.625,147.625 391.205,147.625 390.8,147.5 390.39,147.376 390.025,147.125L384.9,143.55 379.025,143.55Q377.445,143.551 376.025,144.025 374.594,144.515 373.4,145.4 372.217,146.267 371.35,147.45 370.465,148.644 369.975,150.075 369.501,151.496 369.5,153.075L369.5,207.425Q369.501,209.017 369.975,210.45 370.465,211.881 371.35,213.075 372.217,214.258 373.4,215.125 374.594,215.997 376.025,216.475 377.445,216.962 379.025,216.975L385.375,216.975 390.025,220.225Q390.39,220.476 390.8,220.6 391.205,220.725 391.625,220.725 392.045,220.725 392.45,220.6 392.86,220.476 393.225,220.225L397.85,216.975 451.9,216.975"/><path fill="none" stroke="#FFF" stroke-width="1.8" stroke-linecap="round" stroke-linejoin="round" d="M451.9,216.975L451.9,143.55 398.325,143.55 393.225,147.125Q392.485,147.627 391.625,147.625 391.205,147.625 390.8,147.5 390.39,147.376 390.025,147.125L384.9,143.55 379.025,143.55Q377.445,143.551 376.025,144.025 374.594,144.515 373.4,145.4 372.217,146.267 371.35,147.45 370.465,148.644 369.975,150.075 369.501,151.496 369.5,153.075L369.5,207.425Q369.501,209.017 369.975,210.45 370.465,211.881 371.35,213.075 372.217,214.258 373.4,215.125 374.594,215.997 376.025,216.475 377.445,216.962 379.025,216.975L385.375,216.975 390.025,220.225Q390.39,220.476 390.8,220.6 391.205,220.725 391.625,220.725 392.045,220.725 392.45,220.6 392.86,220.476 393.225,220.225L397.85,216.975 451.9,216.975"/></g><g><path fill="#221F1F" d="M391.6,120.525L391.625,120.525 413.775,107.725 413.775,107.675 391.625,94.875 391.575,94.9 391.575,120.5 391.6,120.525"/><path fill="#221F1F" stroke-width="5" stroke-linecap="round" stroke-linejoin="round" d="M413.75,107.7L391.6,94.9 391.6,120.5 413.75,107.7"/><path fill="none" stroke="#221F1F" stroke-width="5" stroke-linecap="round" stroke-linejoin="round" d="M413.75,107.7L391.6,94.9 391.6,120.5 413.75,107.7"/></g><animate attributeName="display" repeatCount="indefinite" dur="9.542s" keyTimes="0;0.402;1" values="none;inline;inline"/></g><g><path fill="#EE5D80" d="M433.45,76.1L358.2,76.1 358.2,139.25 433.45,139.25 433.45,76.1"/><use xlink:href="#Timeline_1_copy" transform="matrix(1 0 0 1 349.55 70.25)" opacity="0.5"/><path fill="#EE5D80" d="M442.001,142.6L442.051,142.55 442.051,70.25 359.151,70.25Q358.451,70.2 357.851,70.3 357.201,70.4 356.601,70.55 356.001,70.75 355.401,71 354.851,71.2 354.301,71.55 353.751,71.85 353.301,72.2 352.801,72.6 352.401,73.05 351.951,73.45 351.551,73.95 351.201,74.4 350.901,74.95 350.551,75.5 350.351,76.05 350.101,76.65 349.901,77.25 349.751,77.85 349.651,78.5 349.551,79.1 349.601,79.8L349.601,167.25Q349.551,167.7 349.651,168.55L349.901,169.8 350.351,171Q350.701,171.85 350.901,172.1L351.551,173.1Q351.901,173.6 352.401,174 352.851,174.5 353.301,174.85L354.301,175.5 356.601,176.5 357.851,176.75 442.051,176.8 442.051,166 442.001,165.95 397.951,165.95 393.551,169Q393.151,169.35 392.551,169.5L391.401,169.7 390.301,169.5Q389.701,169.35 389.301,169L384.851,165.95 378.851,165.95Q376.501,165.85 374.751,165.1 372.801,164.25 371.401,162.85 370.001,161.45 369.151,159.5 368.351,157.7 368.351,155.45L368.351,153.1Q368.351,152.35 368.451,151.65 368.501,150.95 368.701,150.3 368.901,149.6 369.151,149 369.401,148.35 369.801,147.8 370.101,147.2 370.551,146.7 370.951,146.15 371.401,145.65 371.901,145.2 372.451,144.8 372.951,144.35 373.551,144 374.101,143.65 374.751,143.4 375.401,143.15 376.051,142.95 376.701,142.75 377.401,142.7 378.101,142.6 378.851,142.6L384.701,142.6Q384.851,142.6 385.001,142.65 385.151,142.65 385.251,142.75L390.401,146.35Q390.601,146.5 390.901,146.6 391.151,146.65 391.451,146.65 391.701,146.65 391.951,146.6 392.201,146.5 392.451,146.35L397.601,142.75Q397.701,142.65 397.851,142.65 397.951,142.6 398.151,142.6L442.001,142.6"/><g><path fill="#EE5D80" d="M381.75,118.875L381.775,118.875 403.925,106.075 403.925,106.025 381.775,93.225 381.725,93.25 381.725,118.85 381.75,118.875"/><path fill="#EE5D80" stroke-width="5" stroke-linecap="round" stroke-linejoin="round" d="M403.9,106.05L381.75,93.25 381.75,118.85 403.9,106.05"/><path fill="none" stroke="#EE5D80" stroke-width="5" stroke-linecap="round" stroke-linejoin="round" d="M403.9,106.05L381.75,93.25 381.75,118.85 403.9,106.05"/></g><g><path fill="#221F1F" d="M391.35,120.525L391.375,120.525 413.525,107.725 413.525,107.675 391.375,94.875 391.325,94.9 391.325,120.5 391.35,120.525"/><path fill="#221F1F" stroke-width="5" stroke-linecap="round" stroke-linejoin="round" d="M413.5,107.7L391.35,94.9 391.35,120.5 413.5,107.7"/><path fill="none" stroke="#221F1F" stroke-width="5" stroke-linecap="round" stroke-linejoin="round" d="M413.5,107.7L391.35,94.9 391.35,120.5 413.5,107.7"/></g><animate attributeName="display" repeatCount="indefinite" dur="9.542s" keyTimes="0;0.402;1" values="inline;none;none"/></g><g style="display:none;"><g id="bloque1" transform="matrix(1 0 0 1 30.5 68.55)"><animateTransform attributeName="transform" additive="replace" type="translate" dur="9.542s" keyTimes="0;1" values="0,0;0,0" fill="freeze"/><animateTransform attributeName="transform" additive="sum" type="translate" repeatCount="indefinite" dur="9.542s" keyTimes="0;0.258;0.262;0.266;0.271;0.275;0.279;0.284;0.288;0.293;0.297;0.301;0.306;0.31;0.314;0.319;0.323;0.327;0.332;0.336;0.341;0.345;0.349;0.354;0.358;0.362;0.367;0.371;0.375;0.376;1" values="30.5,68.55;30.5,68.55;46.65,72.35;62.8,76.15;78.95,79.95;95.05,83.7;111.2,87.5;127.35,91.3;143.5,95.1;159.65,98.9;175.75,102.65;191.9,106.45;208.05,110.25;224.2,114.05;240.35,117.85;256.5,121.65;272.6,125.4;288.75,129.2;304.9,133;321.05,136.8;326.45,138.05;331.8,139.35;337.2,140.6;342.55,141.85;347.95,143.15;353.3,144.4;358.7,145.65;364.05,146.95;369.45,148.2;0;0" calcMode="discrete"/><animateTransform attributeName="transform" additive="sum" type="translate" repeatCount="indefinite" dur="9.542s" keyTimes="0;0.376;1" values="0;369.45,148.2;369.45,148.2" calcMode="discrete"/><g id="bloque1_0.0"><g><path fill="#FFC85F" d="M82.45,0L82.4,0 82.4,73.45 82.45,73.45 82.45,0"/><path fill="#FFC85F" d="M28.85,0L28.8,0 23.7,3.55Q23.35,3.8 22.95,3.95 22.55,4.05 22.15,4.05 21.7,4.05 21.3,3.95 21.7,4.1 22.15,4.1 23,4.1 23.75,3.6L28.85,0"/><path fill="#FFC85F" d="M20.55,3.6Q20.9,3.85 21.3,3.95 20.9,3.8 20.55,3.55L19.1,2.55 20.55,3.6"/><path fill="#FFC85F" d="M6.55,0.5Q7.95,0 9.55,0 8.85,-0.05 8.25,0.05 7.6,0.15 7,0.3 6.4,0.5 5.8,0.75 5.25,0.95 4.7,1.3 4.15,1.6 3.7,1.95 3.35,2.25 3.05,2.55 3.45,2.2 3.9,1.85 5.1,0.95 6.55,0.5"/><path fill="#FFC85F" d="M1.85,3.9Q2.063,3.58 2.325,3.275 2.138,3.481 1.95,3.7 1.6,4.15 1.3,4.7 0.95,5.25 0.75,5.8 0.5,6.4 0.3,7 0.15,7.6 0.05,8.25 -0.05,8.85 0,9.55 0,7.95 0.5,6.55 0.95,5.1 1.85,3.9"/><path fill="#FFC85F" d="M28.4,73.45L28.35,73.45 27.2,74.3 28.4,73.45"/><path fill="#FFC85F" d="M0.5,66.9Q0,65.45 0,63.9 -0.05,64.55 0.05,65.2 0.15,65.8 0.3,66.45 0.5,67.05 0.75,67.6 0.6,67.25 0.5,66.9"/><path fill="#FFC85F" d="M1.425,68.95Q1.672,69.353 1.95,69.75 2.25,70.1 2.55,70.4 2.2,70 1.85,69.55 1.624,69.26 1.425,68.95"/><path fill="#FFC85F" d="M3.9,71.6Q3.854,71.577 3.8,71.55 4.215,71.885 4.7,72.15 5.25,72.45 5.8,72.7 6.4,72.95 7,73.15 7.6,73.3 8.25,73.4 8.85,73.45 9.55,73.45 7.95,73.4 6.55,72.95 5.1,72.45 3.9,71.6"/><path fill="#FFC85F" d="M82.4,73.45L82.4,0 28.85,0 23.75,3.6Q23,4.1 22.15,4.1 21.7,4.1 21.3,3.95 20.9,3.85 20.55,3.6L19.1,2.55 15.4,0 9.55,0Q7.95,0 6.55,0.5 5.1,0.95 3.9,1.85 3.45,2.2 3.05,2.55 2.9,2.7 2.8,2.8 2.748,2.835 2.7,2.875 2.62,2.963 2.55,3.05L2.325,3.275Q2.063,3.58 1.85,3.9 0.95,5.1 0.5,6.55 0,7.95 0,9.55L0,63.9Q0,65.45 0.5,66.9 0.6,67.25 0.75,67.6 0.978,68.198 1.3,68.75 1.362,68.853 1.425,68.95 1.624,69.26 1.85,69.55 2.2,70 2.55,70.4L2.8,70.65Q3.2,71.1 3.7,71.45 3.754,71.504 3.8,71.55 3.854,71.577 3.9,71.6 5.1,72.45 6.55,72.95 7.95,73.4 9.55,73.45L15.9,73.45 19.35,75.9 20.55,76.7Q20.9,76.95 21.3,77.05 21.65,77.15 22,77.2L22.35,77.2Q22.644,77.181 22.95,77.05 23.213,77.006 23.475,76.875L23.55,76.85 27.2,74.3 28.35,73.45 28.4,73.45 82.4,73.45"/><path fill="#FFC85F" d="M22.95,77.1Q23.213,77.013 23.475,76.875 23.213,77.006 22.95,77.05 22.644,77.181 22.35,77.2 22.644,77.188 22.95,77.1"/><path fill="#FFC85F" d="M21.3,77.05Q20.9,76.95 20.55,76.7L19.35,75.9 20.5,76.7Q20.85,76.95 21.3,77.1 21.65,77.2 22,77.2 21.65,77.15 21.3,77.05"/><path fill="none" stroke="#EE5D80" stroke-width="3" stroke-linecap="round" stroke-linejoin="round" d="M28.85,0L82.4,0M15.4,0L19.1,2.55M9.55,0L15.4,0M2.7,2.875Q2.854,2.713 3.05,2.55M2.55,3.05Q2.62,2.963 2.7,2.875M2.325,3.275L2.55,3.05M0,63.9L0,9.55M1.3,68.75Q0.978,68.198 0.75,67.6M1.425,68.95Q1.362,68.853 1.3,68.75M2.8,70.65L2.55,70.4M3.7,71.45Q3.2,71.1 2.8,70.65M3.8,71.55Q3.754,71.504 3.7,71.45M15.9,73.45L9.55,73.45M19.35,75.9L15.9,73.45M22.35,77.2L22,77.2M23.55,76.85L23.475,76.875M27.2,74.3L23.55,76.85M82.4,73.45L28.4,73.45"/><path fill="none" stroke="#EE5D80" stroke-width="3" stroke-linecap="round" stroke-linejoin="round" d="M82.4,0L82.4,73.45"/><path fill="none" stroke="#EE5D80" stroke-width="3" stroke-linecap="round" stroke-linejoin="round" d="M21.3,3.95Q21.7,4.1 22.15,4.1 23,4.1 23.75,3.6L28.85,0"/><path fill="none" stroke="#EE5D80" stroke-width="3" stroke-linecap="round" stroke-linejoin="round" d="M20.55,3.6Q20.9,3.85 21.3,3.95M19.1,2.55L20.55,3.6"/><path fill="none" stroke="#EE5D80" stroke-width="3" stroke-linecap="round" stroke-linejoin="round" d="M6.55,0.5Q7.95,0 9.55,0M3.05,2.55Q3.45,2.2 3.9,1.85 5.1,0.95 6.55,0.5"/><path fill="none" stroke="#EE5D80" stroke-width="3" stroke-linecap="round" stroke-linejoin="round" d="M2.7,2.875Q2.748,2.835 2.8,2.8 2.9,2.7 3.05,2.55"/><path fill="none" stroke="#EE5D80" stroke-width="3" stroke-linecap="round" stroke-linejoin="round" d="M1.85,3.9Q2.063,3.58 2.325,3.275M0,9.55Q0,7.95 0.5,6.55 0.95,5.1 1.85,3.9"/><path fill="none" stroke="#EE5D80" stroke-width="3" stroke-linecap="round" stroke-linejoin="round" d="M28.4,73.45L28.35,73.45 27.2,74.3"/><path fill="none" stroke="#EE5D80" stroke-width="3" stroke-linecap="round" stroke-linejoin="round" d="M0.5,66.9Q0,65.45 0,63.9M0.75,67.6Q0.6,67.25 0.5,66.9"/><path fill="none" stroke="#EE5D80" stroke-width="3" stroke-linecap="round" stroke-linejoin="round" d="M2.55,70.4Q2.2,70 1.85,69.55 1.624,69.26 1.425,68.95"/><path fill="none" stroke="#EE5D80" stroke-width="3" stroke-linecap="round" stroke-linejoin="round" d="M3.9,71.6Q3.854,71.577 3.8,71.55M9.55,73.45Q7.95,73.4 6.55,72.95 5.1,72.45 3.9,71.6"/><path fill="none" stroke="#EE5D80" stroke-width="3" stroke-linecap="round" stroke-linejoin="round" d="M19.35,75.9L20.55,76.7Q20.9,76.95 21.3,77.05 21.65,77.15 22,77.2M22.35,77.2Q22.644,77.181 22.95,77.05 23.213,77.006 23.475,76.875"/></g></g></g><animate attributeName="display" repeatCount="indefinite" dur="9.542s" keyTimes="0;0.175;0.402;1" values="none;inline;none;none"/></g><g><path fill="#FFC85F" d="M35.2,69.85Q34.65,70.15 34.2,70.5 33.836,70.792 33.525,71.1 33.408,71.228 33.3,71.35 33.161,71.473 33.025,71.6 32.727,71.904 32.45,72.25 32.1,72.7 31.8,73.25 31.45,73.8 31.25,74.35 31,74.95 30.8,75.55 30.65,76.15 30.55,76.8 30.45,77.4 30.5,78.1L30.5,132.45Q30.45,133.1 30.55,133.75 30.65,134.35 30.8,135 31,135.6 31.25,136.15 31.45,136.75 31.8,137.3 32.1,137.8 32.45,138.3 32.743,138.63 33.05,138.95L33.3,139.2Q33.7,139.65 34.2,140 34.65,140.4 35.2,140.7 35.75,141 36.3,141.25 36.9,141.5 37.5,141.7 38.1,141.85 38.75,141.95 39.35,142 40.05,142L46.4,142 51,145.25Q51.35,145.5 51.8,145.65 52.125,145.731 52.475,145.75L52.75,145.75Q53.1,145.738 53.45,145.65 53.751,145.537 54.05,145.375L58.9,142 112.95,142 112.95,68.55 59.3,68.55 54.2,72.1Q53.85,72.35 53.45,72.5 53.05,72.6 52.65,72.6 52.2,72.6 51.8,72.5 51.4,72.35 51.05,72.1L45.9,68.55 40.05,68.55Q39.35,68.5 38.75,68.6 38.1,68.7 37.5,68.85 36.9,69.05 36.3,69.3 35.75,69.5 35.2,69.85"/><animate attributeName="display" repeatCount="indefinite" dur="9.542s" keyTimes="0;0.175;1" values="inline;none;none"/></g><g style="display:none;"><g id="mano_tap" transform="matrix(1 0 0 1 608 293.5)"><animateTransform attributeName="transform" additive="replace" type="translate" repeatCount="indefinite" dur="9.542s" keyTimes="0;0.747;0.751;0.755;0.76;0.764;0.769;0.773;0.777;0.782;0.786;0.79;0.795;0.799;0.803;0.808;0.812;0.817;0.821;0.825;1" values="608,293.5;608,293.5;612.2,294.95;616.4,296.4;620.55,297.8;624.75,299.25;628.95,300.7;633.15,302.15;637.3,303.55;641.5,305;645.7,306.45;647.1,306.95;648.5,307.4;649.9,307.9;651.3,308.35;652.65,308.85;654.05,309.3;655.45,309.8;656.85,310.25;658.25,310.75;658.25,310.75" calcMode="discrete"/><g id="mano tap_0.0"><path fill="#F59120" d="M99.977,38.621Q97.027,38.015 93.899,38.008L64.036,38.008 64.036,14.152Q64.035,13.421 63.964,12.708 63.889,11.988 63.746,11.294 63.606,10.602 63.403,9.933 63.195,9.268 62.925,8.634 62.653,8.001 62.322,7.398 61.996,6.796 61.616,6.234 60.851,5.101 59.891,4.135 58.925,3.17 57.792,2.4 57.23,2.02 56.628,1.694 56.02,1.368 55.381,1.101 54.748,0.831 54.082,0.623 53.413,0.414 52.721,0.27 52.033,0.131 51.319,0.062 50.605,-0.009 49.874,-0.01 47.91,-0.007 46.103,0.488 44.302,0.993 42.726,1.922 41.146,2.85 39.858,4.135 38.572,5.423 37.645,7.003 36.715,8.58 36.211,10.38 35.71,12.187 35.702,14.152L35.702,73.928 24.168,62.384Q23.127,61.346 21.945,60.566 21.357,60.182 20.739,59.86 20.121,59.535 19.482,59.278 18.843,59.018 18.183,58.82 17.523,58.626 16.853,58.498 16.188,58.368 15.513,58.301 14.832,58.237 14.152,58.239 13.471,58.237 12.791,58.301 12.115,58.368 11.45,58.498 10.78,58.626 10.12,58.82 9.461,59.018 8.822,59.278 8.183,59.535 7.564,59.86 6.947,60.182 6.359,60.566 5.177,61.346 4.135,62.384 2.752,63.777 1.829,65.408 0.908,67.036 0.447,68.806 -0.011,70.579 -0.01,72.401 -0.011,74.222 0.447,75.996 0.908,77.766 1.829,79.394 2.752,81.024 4.135,82.417L47.277,125.558Q47.62,125.904 47.983,126.223 48.351,126.541 48.731,126.826 49.113,127.115 49.511,127.377 49.906,127.636 50.311,127.865 50.715,128.097 51.132,128.302 51.554,128.504 51.984,128.676 52.409,128.846 52.846,128.987 53.284,129.132 53.729,129.247L124.062,129.247 124.073,129.226 124.073,68.182Q124.066,65.054 123.46,62.104 122.852,59.153 121.704,56.441 120.551,53.725 118.919,51.308 117.284,48.895 115.23,46.84 113.181,44.791 110.773,43.162 108.355,41.53 105.64,40.377 102.927,39.229 99.977,38.621"/></g></g><animate attributeName="display" repeatCount="indefinite" dur="9.542s" keyTimes="0;0.642;1" values="none;inline;inline"/></g><g style="display:none;"><use xlink:href="#mano_abierta" transform="matrix(1.068 0 0 1.068 363.2 171.3)"><animateTransform attributeName="transform" additive="replace" type="translate" dur="9.542s" keyTimes="0;1" values="0,0;0,0" fill="freeze"/><animateTransform attributeName="transform" additive="sum" type="translate" repeatCount="indefinite" dur="9.542s" keyTimes="0;0.402;0.406;0.41;0.415;0.419;0.424;0.515;0.52;0.524;0.528;0.533;0.537;0.541;0.546;0.55;0.555;0.559;0.563;0.568;0.572;0.576;0.581;0.585;0.589;0.594;0.598;0.603;0.607;0.61;0.611;1" values="429.473,240.296;429.473,240.296;429.481,240.32;429.431,240.287;429.438,240.308;429.444,240.279;429.45,240.3;429.45,240.3;436.75,245.3;444.1,250.3;451.4,255.3;458.7,260.3;466.05,265.35;473.35,270.35;480.65,275.35;488,280.35;495.3,285.35;505,289.4;514.7,293.45;524.45,297.5;534.15,301.5;543.85,305.55;553.55,309.6;563.25,313.65;572.95,317.7;582.65,321.7;592.4,325.75;602.1,329.8;611.8,333.85;621.5,337.9;0;0" calcMode="discrete"/><animateTransform attributeName="transform" additive="sum" type="translate" repeatCount="indefinite" dur="9.542s" keyTimes="0;0.611;0.616;0.62;0.624;0.629;0.633;1" values="0;621.5,337.9;631.2,341.95;640.9,345.95;650.65,350;660.35,354.05;670.05,358.1;670.05,358.1" calcMode="discrete"/><animateTransform attributeName="transform" additive="sum" type="scale" repeatCount="indefinite" dur="9.542s" keyTimes="0;0.402;0.406;0.41;0.415;0.419;0.424;0.61;0.611;1" values="1.068,1.068;1.068,1.068;1.054,1.054;1.041,1.041;1.027,1.027;1.014,1.014;1,1;1,1;1;1" calcMode="discrete"/><animateTransform attributeName="transform" additive="sum" type="translate" repeatCount="indefinite" dur="9.542s" keyTimes="0;0.402;0.406;0.41;0.415;0.419;0.424;0.61;0.611;1" values="-62.05,-64.6;-62.05,-64.6;-62.1,-64.65;-62,-64.6;-62.05,-64.6;-62,-64.6;-62.05,-64.6;-62.05,-64.6;0;0" calcMode="discrete"/><animateTransform attributeName="transform" additive="sum" type="translate" repeatCount="indefinite" dur="9.542s" keyTimes="0;0.611;1" values="0;-62.05,-64.6;-62.05,-64.6" calcMode="discrete"/></use><animate attributeName="display" repeatCount="indefinite" dur="9.542s" keyTimes="0;0.402;0.642;1" values="none;inline;none;none"/></g><g style="display:none;"><g id="mano_cerrada" transform="matrix(1 0 0 1 20.95 72.8)"><animateTransform attributeName="transform" additive="replace" type="translate" dur="9.542s" keyTimes="0;1" values="0,0;0,0" fill="freeze"/><animateTransform attributeName="transform" additive="sum" type="translate" repeatCount="indefinite" dur="9.542s" keyTimes="0;0.258;0.262;0.266;0.271;0.275;0.279;0.284;0.288;0.293;0.297;0.301;0.306;0.31;0.314;0.319;0.323;0.327;0.332;0.336;0.341;0.345;0.349;0.354;0.358;0.362;0.367;0.371;0.375;0.376;1" values="20.95,72.8;20.95,72.8;37.1,76.65;53.25,80.45;69.4,84.3;85.5,88.1;101.65,91.95;117.8,95.75;133.95,99.6;150.1,103.4;166.2,107.25;182.35,111.1;198.5,114.9;214.65,118.75;230.8,122.55;246.95,126.4;263.05,130.2;279.2,134.05;295.35,137.85;311.5,141.7;316.9,143;322.25,144.25;327.65,145.55;333,146.8;338.4,148.1;343.75,149.35;349.15,150.65;354.5,151.9;359.9,153.2;0;0" calcMode="discrete"/><animateTransform attributeName="transform" additive="sum" type="translate" repeatCount="indefinite" dur="9.542s" keyTimes="0;0.376;1" values="0;359.9,153.2;359.9,153.2" calcMode="discrete"/><g id="mano cerrada_0.0"><path fill="#F59120" d="M123.45,46.8Q123.45,43.5 122.25,40.65 121,37.85 118.9,35.7 116.75,33.55 113.9,32.35 111.05,31.15 107.8,31.15 105.65,31.15 103.65,31.65 101.65,32.2 99.9,33.25 98.15,34.25 96.75,35.7 95.3,37.1 94.35,38.85 94.05,36.75 93.25,34.9 92.05,32.05 89.9,29.9 87.75,27.75 84.95,26.55 82.05,25.35 78.8,25.35 76.65,25.35 74.65,25.85 72.65,26.45 70.95,27.45 69.15,28.5 67.75,29.9 66.3,31.3 65.3,33.05 64.35,34.65 63.8,36.45L63.8,30.8Q63.8,27.9 62.75,25.35 61.65,22.8 59.7,20.85 57.8,18.9 55.25,17.85 52.7,16.75 49.75,16.75 48.75,16.75 47.85,16.85 46.9,17 46,17.25 45.1,17.45 44.25,17.85 43.4,18.2 42.65,18.65 41.05,19.55 39.8,20.85 38.5,22.1 37.6,23.7 37.15,24.5 36.8,25.35 36.4,26.15 36.2,27.05 35.95,27.95 35.8,28.9 35.7,29.8 35.7,30.8L35.55,79.05Q33.15,81.5 31.35,84.55 29.4,87.8 28.4,91.5 27.35,95.2 27.35,99.3 27.35,103.35 28.4,107.1 29.4,110.8 31.35,114.05 33.3,117.3 35.95,120 38.6,122.65 41.85,124.55 45.1,126.5 48.85,127.55 50.65,128.05 52.55,128.3 53.05,128.45 53.55,128.6L57.9,128.6Q58.05,128.55 58.25,128.6L69.95,128.65 69.95,128.6 123.45,128.6 123.45,55.55Q123.45,54.7 123.45,53.95L123.45,46.8"/></g></g><animate attributeName="display" repeatCount="indefinite" dur="9.542s" keyTimes="0;0.175;0.402;1" values="none;inline;none;none"/></g><g><use xlink:href="#mano_abierta" transform="matrix(1 0 0 1 336.05 294.4)"><animateTransform attributeName="transform" additive="replace" type="translate" repeatCount="indefinite" dur="9.542s" keyTimes="0;0.057;0.061;0.065;0.07;0.074;0.079;0.083;0.087;0.092;0.096;0.1;0.105;0.109;0.114;0.118;0.122;0.127;0.131;0.135;0.14;0.144;0.148;0.153;1" values="336.05,294.4;336.05,294.4;330.65,290.8;325.3,287.25;319.9,283.65;314.5,280.1;309.1,276.5;303.75,272.95;298.35,269.35;279.5,256.8;260.65,244.3;241.8,231.75;222.95,219.25;204.1,206.7;185.2,194.2;166.35,181.65;147.5,169.15;128.65,156.6;109.8,144.1;90.95,131.55;73.45,119.95;55.95,108.3;38.45,96.7;20.95,85.05;20.95,85.05" calcMode="discrete"/></use><animate attributeName="display" repeatCount="indefinite" dur="9.542s" keyTimes="0;0.175;1" values="inline;none;none"/></g></g></svg>